{"glyphs":{"0":{"ha":863,"x_min":78,"x_max":786,"o":"m 221 511 q 225 408 221 463 q 238 301 229 354 q 263 199 248 248 q 304 113 279 150 q 362 54 328 76 q 440 32 395 32 q 510 50 479 32 q 563 97 541 67 q 601 169 586 127 q 626 258 616 210 q 639 357 635 305 q 643 459 643 408 q 639 573 643 515 q 625 684 635 631 q 600 785 616 738 q 562 867 585 832 q 507 922 538 902 q 435 942 475 942 q 363 924 395 942 q 308 876 332 907 q 268 804 284 846 q 241 714 252 762 q 226 614 231 667 q 221 511 221 562 m 78 482 q 87 601 78 541 q 114 719 96 662 q 161 826 132 776 q 230 914 190 876 q 322 973 270 951 q 438 995 374 995 q 557 974 505 995 q 648 915 609 952 q 713 829 686 878 q 755 723 739 779 q 779 607 772 667 q 786 489 786 547 q 778 371 786 431 q 752 254 770 311 q 706 147 734 197 q 639 59 678 96 q 548 -1 600 21 q 432 -22 496 -22 q 308 -1 361 -22 q 214 57 254 20 q 149 143 175 94 q 107 248 123 192 q 84 364 91 304 q 78 482 78 424 z "},"1":{"ha":505,"x_min":25,"x_max":457,"o":"m 345 151 q 344 100 345 124 q 340 56 344 75 l 457 61 l 457 0 l 103 0 l 103 46 q 162 59 139 47 q 199 91 186 71 q 218 140 213 111 q 224 204 224 168 l 222 860 l 220 860 l 53 752 l 25 793 l 296 995 l 343 995 l 345 151 z "},"2":{"ha":746,"x_min":64,"x_max":674,"o":"m 176 842 q 196 811 190 827 q 201 780 201 795 q 198 760 201 771 q 186 738 195 748 q 165 722 178 728 q 134 715 153 715 q 86 739 102 717 q 70 792 70 761 q 88 857 70 821 q 143 923 106 892 q 234 974 180 954 q 360 995 288 995 q 468 982 415 995 q 561 940 520 969 q 627 862 602 910 q 652 743 652 813 q 637 667 652 707 q 589 581 622 627 q 505 483 557 535 q 379 369 453 430 q 292 293 332 330 q 224 222 253 256 q 177 159 195 189 q 154 105 159 130 l 400 98 q 493 97 451 97 q 567 104 536 96 q 615 133 597 113 q 632 195 632 154 l 674 195 l 665 0 l 64 0 q 87 130 64 73 q 149 236 111 187 q 236 329 187 284 q 338 423 286 374 q 468 583 428 509 q 509 726 509 657 q 501 803 509 764 q 473 872 493 841 q 421 922 454 903 q 338 941 388 941 q 283 933 309 941 q 236 912 257 925 q 199 881 214 899 q 176 842 184 863 z "},"3":{"ha":774,"x_min":61,"x_max":705,"o":"m 186 840 q 204 812 199 827 q 209 783 209 798 q 205 764 209 775 q 195 744 202 753 q 175 729 187 735 q 145 723 163 722 q 100 745 115 724 q 85 795 85 766 q 102 858 85 823 q 155 924 119 893 q 243 975 190 954 q 368 995 296 995 q 474 982 424 995 q 564 940 525 968 q 625 865 602 911 q 648 753 648 819 q 637 687 648 720 q 599 624 625 654 q 529 567 572 593 q 421 522 485 541 l 421 520 q 539 492 487 513 q 629 436 592 470 q 685 356 665 401 q 705 257 705 311 q 675 134 705 186 q 598 47 646 81 q 486 -5 549 12 q 355 -22 422 -22 q 224 -4 279 -22 q 133 41 169 14 q 79 103 96 69 q 61 167 61 136 q 77 220 61 198 q 125 243 94 242 q 156 238 144 244 q 176 222 169 232 q 187 201 184 213 q 190 180 190 190 q 185 152 190 166 q 175 125 181 138 q 198 84 182 101 q 238 57 215 68 q 288 42 261 47 q 344 37 315 37 q 434 50 393 37 q 503 91 474 64 q 546 157 531 117 q 562 248 562 196 q 552 336 562 293 q 514 413 542 380 q 439 466 487 446 q 315 484 391 486 q 264 482 292 484 l 264 545 l 321 545 q 413 565 376 545 q 472 614 450 585 q 504 679 494 644 q 513 741 513 713 q 506 821 513 784 q 479 884 498 857 q 428 925 460 910 q 349 941 397 941 q 291 931 318 941 q 242 908 263 922 q 206 875 220 893 q 186 840 192 857 z "},"4":{"ha":753,"x_min":17,"x_max":706,"o":"m 566 151 q 565 98 566 123 q 560 53 564 74 l 667 57 l 667 0 l 317 0 l 317 46 l 328 46 q 385 62 363 49 q 419 98 407 75 q 435 152 431 121 q 439 221 439 183 l 439 268 l 17 268 l 17 336 l 519 995 l 566 995 l 566 351 l 706 350 l 706 268 l 566 268 l 566 151 m 109 358 l 439 354 l 439 797 l 437 797 l 109 358 z "},"5":{"ha":755,"x_min":72,"x_max":694,"o":"m 186 127 q 208 82 190 101 q 252 52 227 64 q 305 36 277 41 q 358 32 334 31 q 445 54 409 34 q 505 107 481 75 q 539 181 528 140 q 550 267 550 222 q 548 323 550 292 q 538 384 545 353 q 516 443 530 414 q 477 493 501 471 q 419 528 454 515 q 335 541 384 541 q 293 537 317 541 q 243 528 269 534 q 193 512 218 522 q 151 492 169 503 l 113 528 l 109 972 l 470 972 q 536 978 509 972 q 578 994 562 983 q 601 1022 594 1005 q 608 1063 608 1039 l 646 1063 l 638 879 l 173 869 l 174 564 q 260 590 208 578 q 375 603 313 603 q 521 575 460 603 q 620 504 582 548 q 676 404 659 459 q 694 292 694 348 q 666 156 694 214 q 591 57 638 97 q 482 -2 544 18 q 353 -22 420 -22 q 234 -4 286 -22 q 146 41 182 14 q 91 103 110 69 q 72 167 72 136 q 88 220 72 198 q 136 243 104 242 q 167 238 155 244 q 187 222 180 232 q 198 201 195 213 q 201 180 201 190 q 197 153 201 167 q 186 127 193 138 z "},"6":{"ha":803,"x_min":78,"x_max":735,"o":"m 412 545 q 348 532 380 545 q 289 498 316 519 q 240 449 261 477 q 210 391 220 421 q 225 261 213 326 q 260 146 237 197 q 320 63 283 95 q 412 32 357 32 q 496 51 461 32 q 553 103 531 71 q 585 177 574 135 q 595 265 595 219 q 592 322 595 291 q 582 384 589 353 q 562 444 575 415 q 529 495 549 473 q 480 531 509 517 q 412 545 451 545 m 596 862 q 581 888 592 874 q 552 915 570 903 q 511 935 534 927 q 458 943 487 943 q 367 918 406 943 q 300 854 328 894 q 255 766 273 815 q 228 666 238 716 q 213 569 218 616 q 208 490 209 523 q 249 534 225 513 q 301 572 272 555 q 366 597 331 588 q 441 607 401 607 q 581 578 525 607 q 672 504 637 549 q 721 404 706 458 q 735 296 735 349 q 710 173 735 231 q 642 72 686 115 q 539 3 599 28 q 410 -22 479 -22 q 254 11 317 -22 q 151 107 191 45 q 95 258 112 170 q 78 457 78 347 q 84 554 78 498 q 106 670 90 610 q 148 788 121 730 q 217 892 175 846 q 318 966 259 938 q 456 995 376 995 q 564 977 517 995 q 640 932 610 959 q 686 875 671 906 q 701 819 701 844 q 687 768 701 789 q 642 746 672 747 q 612 751 625 745 q 593 765 600 756 q 582 784 585 774 q 578 804 578 795 q 583 833 578 817 q 596 862 587 848 z "},"7":{"ha":640,"x_min":31,"x_max":612,"o":"m 271 -22 q 233 -3 243 -20 q 222 39 222 14 q 232 96 222 62 q 256 169 242 130 q 287 248 271 208 q 317 322 303 288 q 362 437 336 371 q 418 576 388 503 q 481 728 448 650 q 549 877 514 805 l 182 875 q 95 849 125 874 q 64 766 64 823 l 31 766 l 31 972 l 612 972 l 612 878 q 552 744 578 808 q 502 616 525 680 q 460 490 479 553 q 422 358 440 426 q 386 218 404 291 q 347 63 368 144 q 337 30 343 46 q 321 2 330 14 q 300 -17 313 -9 q 271 -22 288 -24 z "},"8":{"ha":781,"x_min":82,"x_max":711,"o":"m 667 770 q 652 693 667 729 q 612 627 637 657 q 552 571 586 596 q 479 528 518 547 q 568 467 526 500 q 642 396 610 434 q 692 317 673 359 q 711 230 711 275 q 684 117 711 164 q 612 38 657 69 q 507 -7 566 7 q 383 -22 448 -22 q 281 -11 334 -22 q 184 27 229 1 q 111 98 140 54 q 82 208 82 142 q 100 296 82 255 q 147 372 117 337 q 214 438 176 408 q 293 494 252 468 q 203 556 240 525 q 144 619 167 588 q 111 681 121 650 q 101 743 101 712 q 127 856 101 808 q 196 934 154 903 q 291 980 238 965 q 396 995 343 995 q 498 980 449 995 q 584 937 547 965 q 645 866 622 908 q 667 770 667 825 m 345 468 q 280 410 307 440 q 235 349 253 380 q 209 289 218 318 q 199 233 200 259 q 209 153 196 189 q 245 90 221 116 q 306 48 270 63 q 386 33 342 34 q 526 77 476 32 q 575 205 575 123 q 563 276 575 241 q 525 346 551 312 q 454 410 498 379 q 345 468 410 441 m 231 773 q 246 702 231 735 q 288 642 261 669 q 351 592 315 614 q 430 555 388 570 q 525 650 492 598 q 559 755 557 702 q 516 892 560 844 q 399 941 473 939 q 326 927 357 941 q 274 889 295 913 q 241 836 252 866 q 231 773 231 806 z "},"9":{"ha":803,"x_min":66,"x_max":721,"o":"m 386 427 q 451 439 418 427 q 510 473 483 452 q 558 521 538 494 q 589 579 579 549 q 574 709 585 644 q 539 825 563 774 q 478 909 516 877 q 385 941 441 941 q 306 922 340 941 q 250 869 272 902 q 216 793 227 836 q 204 704 204 750 q 207 647 204 678 q 217 586 210 616 q 237 527 224 555 q 270 475 250 498 q 319 440 290 453 q 386 427 347 427 m 209 105 q 224 77 214 90 q 251 53 234 63 q 292 37 268 43 q 350 31 317 31 q 441 53 403 31 q 506 112 479 75 q 550 196 533 149 q 575 293 566 243 q 588 392 585 343 q 590 480 591 440 q 549 436 572 457 q 497 399 526 415 q 433 374 468 383 q 357 364 397 364 q 258 377 301 364 q 183 413 215 391 q 129 467 151 436 q 93 531 106 497 q 73 602 79 566 q 66 673 66 638 q 90 800 66 741 q 155 902 113 859 q 259 970 198 945 q 395 995 319 995 q 556 957 492 995 q 656 852 619 919 q 707 694 692 785 q 721 498 721 604 q 716 390 721 448 q 697 274 711 332 q 657 163 683 216 q 592 68 632 109 q 494 3 551 28 q 357 -22 436 -22 q 240 -6 288 -23 q 162 36 193 10 q 118 91 132 61 q 104 149 104 121 q 120 200 104 179 q 165 222 135 220 q 194 217 182 222 q 213 202 205 211 q 224 182 220 193 q 227 162 227 171 q 209 105 227 134 z "}," ":{"ha":366,"x_min":0,"x_max":0,"o":""},"!":{"ha":370,"x_min":102,"x_max":265,"o":"m 265 66 q 258 32 265 48 q 240 3 252 16 q 214 -16 229 -9 q 183 -22 199 -22 q 152 -16 167 -22 q 126 3 138 -9 q 109 32 115 16 q 102 66 102 48 q 109 102 102 85 q 127 131 116 119 q 153 150 138 143 q 184 157 168 157 q 216 150 201 157 q 242 131 231 143 q 259 102 253 119 q 265 66 265 85 m 210 319 l 158 319 l 104 892 q 107 929 102 911 q 121 962 111 947 q 147 986 132 977 q 184 995 163 995 q 222 986 207 995 q 248 962 238 977 q 261 929 258 947 q 264 892 265 911 l 210 319 z "},"\"":{"ha":481,"x_min":85,"x_max":393,"o":"m 98 682 l 86 995 l 195 995 l 183 682 l 98 682 m 297 682 l 285 995 l 394 995 l 382 682 l 297 682 z "},"#":{"ha":1153,"x_min":46,"x_max":1106,"o":"m 214 -22 l 277 248 l 46 248 l 68 330 l 296 330 l 372 652 l 138 652 l 160 734 l 391 734 l 453 995 l 545 995 l 485 734 l 780 734 l 842 995 l 933 995 l 873 734 l 1106 734 l 1106 733 l 1085 652 l 854 652 l 782 330 l 1014 330 l 992 248 l 764 248 l 703 -22 l 602 -22 l 665 248 l 374 248 l 313 -22 l 214 -22 m 393 330 l 684 330 l 760 652 l 466 652 l 393 330 z "},"$":{"ha":734,"x_min":69,"x_max":684,"o":"m 154 -18 l 79 -18 l 79 275 l 127 275 q 151 165 132 211 q 203 90 170 119 q 281 46 236 60 q 382 33 327 33 q 456 45 422 33 q 515 81 490 58 q 553 136 539 104 q 566 205 566 168 q 545 290 566 254 q 489 354 524 326 q 409 407 454 383 q 318 456 364 431 q 227 507 271 480 q 147 569 182 534 q 91 648 112 604 q 69 753 69 693 q 75 801 69 774 q 94 853 81 827 q 128 905 107 880 q 178 949 149 930 q 245 981 207 969 q 332 995 283 994 l 332 1157 l 407 1157 l 406 994 q 484 977 445 990 q 559 936 522 964 l 554 995 l 623 995 l 623 691 l 572 691 q 557 787 569 741 q 520 866 545 832 q 453 921 494 901 q 351 941 412 941 q 275 927 307 941 q 223 890 243 913 q 192 838 202 867 q 182 778 182 808 q 203 698 182 732 q 260 635 225 663 q 341 583 296 607 q 433 533 386 558 q 525 481 479 509 q 605 419 570 454 q 662 339 640 384 q 684 236 684 294 q 667 143 684 187 q 616 63 650 98 q 532 5 583 28 q 413 -22 481 -18 l 412 -212 l 340 -212 l 339 -22 q 289 -17 315 -22 q 238 -3 263 -12 q 190 15 213 5 q 147 38 166 26 l 154 -18 z "},"%":{"ha":1208,"x_min":50,"x_max":1160,"o":"m 170 748 q 175 675 170 715 q 196 601 181 635 q 238 543 212 566 q 306 520 264 520 q 369 539 344 520 q 409 586 394 557 q 431 649 425 614 q 437 716 437 684 q 431 791 437 751 q 409 866 425 831 q 368 923 394 900 q 303 945 342 945 q 238 924 264 945 q 197 873 212 903 q 176 809 182 843 q 170 748 170 774 m 1017 939 l 229 -24 l 170 25 l 954 995 l 1017 939 m 50 726 q 66 822 50 774 q 115 908 83 869 q 194 970 147 946 q 302 995 241 994 q 414 974 366 996 q 494 916 463 952 q 541 833 526 880 q 557 739 557 786 q 537 635 557 685 q 482 548 517 586 q 401 488 448 511 q 302 466 355 466 q 193 488 239 466 q 114 546 146 509 q 66 629 82 582 q 50 726 50 675 m 1040 224 q 1038 272 1040 247 q 1029 323 1036 298 q 1013 372 1023 349 q 988 413 1003 395 q 952 442 973 431 q 904 452 931 452 q 841 434 866 452 q 801 387 816 416 q 779 324 785 359 q 772 257 772 290 q 779 182 772 222 q 802 107 786 142 q 845 51 819 73 q 910 28 871 28 q 975 48 949 28 q 1014 100 1000 69 q 1035 164 1029 130 q 1040 224 1040 198 m 1160 247 q 1143 151 1160 199 q 1095 65 1127 103 q 1017 2 1063 26 q 909 -22 970 -22 q 796 -2 844 -24 q 715 57 747 20 q 668 140 684 94 q 652 235 652 186 q 672 337 652 288 q 727 424 692 387 q 809 484 762 462 q 909 507 856 507 q 1018 485 970 507 q 1096 427 1065 463 q 1144 344 1128 391 q 1160 247 1160 297 z "},"&":{"ha":965,"x_min":50,"x_max":977,"o":"m 760 371 q 755 303 762 343 q 732 218 749 263 q 765 189 747 204 q 802 155 782 173 q 910 73 865 99 q 977 46 955 46 l 977 0 l 848 0 q 790 26 834 0 q 675 115 747 52 q 624 61 652 86 q 558 18 595 36 q 476 -12 521 -1 q 376 -22 431 -22 q 257 -7 315 -22 q 152 40 198 7 q 78 124 106 73 q 50 250 50 176 q 65 335 50 295 q 109 409 81 374 q 178 472 138 444 q 269 523 218 501 q 220 589 241 557 q 187 651 200 621 q 169 713 174 682 q 163 777 163 744 q 183 866 163 826 q 236 935 202 907 q 317 979 270 964 q 420 995 364 995 q 515 980 473 995 q 588 939 558 965 q 635 877 618 912 q 652 800 652 841 q 640 726 652 762 q 600 655 627 690 q 530 588 573 621 q 423 524 486 555 q 478 466 450 495 q 535 407 507 437 q 564 377 549 391 q 595 346 578 362 q 633 309 612 329 q 681 264 654 290 q 691 311 688 289 q 694 353 694 334 q 689 400 694 376 q 672 445 684 425 q 640 477 661 465 q 589 492 620 490 l 589 538 l 832 538 l 832 481 l 717 486 q 749 438 739 467 q 760 371 759 410 m 591 192 q 425 354 496 283 q 304 481 354 424 q 249 434 271 462 q 213 378 227 407 q 195 320 200 349 q 189 271 189 292 q 207 173 189 214 q 253 104 224 131 q 318 63 281 77 q 393 47 355 49 q 473 53 437 45 q 538 76 509 61 q 590 111 567 90 q 630 155 612 131 q 591 192 610 172 m 279 787 q 288 728 279 758 q 312 670 296 699 q 348 612 327 641 q 393 557 368 584 q 508 671 471 608 q 545 795 545 734 q 536 857 545 829 q 511 906 528 886 q 470 938 494 926 q 413 949 445 949 q 360 939 385 949 q 317 908 335 928 q 290 857 300 887 q 279 787 279 827 z "},"'":{"ha":289,"x_min":86,"x_max":203,"o":"m 99 682 l 86 995 l 203 995 l 191 682 l 99 682 z "},"(":{"ha":424,"x_min":50,"x_max":399,"o":"m 190 332 q 241 -33 190 136 q 399 -345 292 -202 l 365 -376 q 294 -301 330 -345 q 222 -205 257 -258 q 156 -91 187 -153 q 101 39 124 -29 q 63 181 77 107 q 50 332 50 254 q 63 484 50 409 q 101 628 77 558 q 156 762 124 699 q 222 880 187 825 q 294 979 257 935 q 365 1055 330 1024 l 399 1023 q 241 704 292 880 q 190 332 190 529 z "},")":{"ha":424,"x_min":25,"x_max":375,"o":"m 235 347 q 183 712 235 543 q 25 1023 132 881 l 60 1055 q 131 980 94 1023 q 202 884 168 937 q 269 770 237 831 q 324 640 300 708 q 361 498 347 572 q 375 347 375 425 q 361 195 375 270 q 324 51 347 121 q 269 -83 300 -20 q 202 -201 237 -146 q 131 -300 168 -256 q 60 -376 94 -345 l 25 -345 q 184 -25 133 -201 q 235 347 235 150 z "},"*":{"ha":722,"x_min":54,"x_max":664,"o":"m 379 706 q 460 751 416 729 q 547 793 504 772 q 579 806 562 801 q 613 810 597 810 q 642 801 629 809 q 661 776 655 793 q 664 757 664 766 q 660 740 664 749 q 645 721 656 731 q 616 705 633 711 q 582 695 599 699 q 535 686 559 691 q 486 678 511 682 q 438 671 462 674 q 393 667 414 668 q 461 606 427 640 q 529 536 496 571 q 551 508 542 523 q 564 481 560 493 q 568 460 568 469 q 564 439 568 450 q 547 420 559 429 q 517 410 532 409 q 491 419 503 411 q 467 442 478 428 q 447 470 456 456 q 424 513 436 490 q 400 557 412 535 q 378 602 389 580 q 361 644 368 624 q 342 602 353 624 q 321 557 332 580 q 297 513 309 535 q 275 470 286 490 q 256 442 267 456 q 232 419 245 428 q 204 410 219 411 q 174 420 190 409 q 158 439 162 430 q 155 460 155 448 q 158 480 155 468 q 171 509 161 493 q 191 536 180 524 q 258 606 224 571 q 328 667 293 642 q 282 671 306 668 q 233 678 258 674 q 184 686 208 682 q 137 695 159 691 q 104 705 121 699 q 75 721 87 711 q 58 740 62 730 q 54 758 54 750 q 58 776 54 766 q 77 802 64 794 q 105 810 90 810 q 139 806 121 810 q 172 793 156 801 q 259 752 214 774 q 340 706 304 730 q 320 797 328 747 q 308 894 313 847 q 307 928 306 910 q 313 961 307 946 q 330 985 319 976 q 361 995 341 995 q 391 985 380 995 q 407 961 402 976 q 413 928 412 946 q 411 894 413 910 q 398 797 406 847 q 379 706 391 747 z "},"+":{"ha":715,"x_min":49,"x_max":667,"o":"m 49 482 l 313 481 l 313 754 l 402 754 l 402 481 l 667 479 l 667 401 l 402 400 l 402 114 l 313 114 l 313 399 l 49 399 l 49 482 z "},",":{"ha":351,"x_min":92,"x_max":267,"o":"m 126 -220 q 151 -182 138 -206 q 173 -127 163 -157 q 189 -65 183 -98 q 190 0 194 -32 q 152 -7 170 -9 q 121 3 134 -6 q 99 26 107 12 q 92 60 92 41 q 114 119 92 98 q 168 140 136 140 q 210 131 192 140 q 241 104 229 121 q 260 64 254 87 q 267 14 267 41 q 259 -48 267 -12 q 238 -120 252 -83 q 205 -191 224 -157 q 163 -248 186 -225 l 126 -220 z "},"-":{"ha":679,"x_min":93,"x_max":586,"o":"m 93 493 l 586 493 l 586 401 l 93 396 l 93 493 z "},".":{"ha":342,"x_min":89,"x_max":251,"o":"m 251 66 q 244 32 251 48 q 226 3 237 16 q 200 -16 215 -9 q 170 -22 186 -22 q 139 -16 153 -22 q 113 3 124 -9 q 95 32 102 16 q 89 66 89 48 q 96 102 89 85 q 114 131 102 119 q 140 150 125 143 q 171 157 155 157 q 202 150 188 157 q 228 131 217 143 q 245 102 239 119 q 251 66 251 85 z "},"/":{"ha":958,"x_min":29,"x_max":930,"o":"m 930 999 l 110 -377 l 29 -326 l 841 1055 l 930 999 z "},":":{"ha":347,"x_min":93,"x_max":255,"o":"m 255 66 q 248 32 255 48 q 230 3 241 16 q 204 -16 219 -9 q 174 -22 190 -22 q 143 -16 157 -22 q 117 3 128 -9 q 99 32 106 16 q 93 66 93 48 q 100 102 93 85 q 118 131 106 119 q 144 150 129 143 q 175 157 159 157 q 207 150 192 157 q 232 131 221 143 q 249 102 243 119 q 255 66 255 85 m 255 626 q 248 591 255 608 q 230 563 241 575 q 204 544 219 551 q 174 537 190 537 q 143 544 157 537 q 117 563 128 551 q 99 591 106 575 q 93 626 93 608 q 100 662 93 645 q 118 690 106 678 q 144 710 129 703 q 175 717 159 717 q 207 710 192 717 q 232 690 221 703 q 249 662 243 678 q 255 626 255 645 z "},";":{"ha":366,"x_min":97,"x_max":272,"o":"m 132 -220 q 156 -182 143 -206 q 179 -127 169 -157 q 194 -65 189 -98 q 195 0 199 -32 q 158 -7 176 -9 q 126 3 140 -6 q 105 26 113 12 q 97 60 97 41 q 119 119 97 98 q 174 140 142 140 q 216 131 197 140 q 247 104 234 121 q 266 64 259 87 q 272 14 272 41 q 264 -48 272 -12 q 243 -120 257 -83 q 211 -191 230 -157 q 169 -248 192 -225 l 132 -220 m 259 626 q 252 591 259 608 q 234 563 245 575 q 209 544 223 551 q 178 537 194 537 q 147 544 161 537 q 121 563 132 551 q 103 591 110 575 q 97 626 97 608 q 104 662 97 645 q 122 690 111 678 q 148 710 133 703 q 179 717 163 717 q 211 710 196 717 q 236 690 225 703 q 253 662 247 678 q 259 626 259 645 z "},"<":{"ha":753,"x_min":47,"x_max":666,"o":"m 47 481 l 666 755 l 666 669 l 142 439 l 666 207 l 666 118 l 47 387 l 47 481 z "},"=":{"ha":822,"x_min":102,"x_max":720,"o":"m 102 346 l 720 343 l 720 262 l 102 260 l 102 346 m 102 607 l 720 604 l 720 524 l 102 521 l 102 607 z "},">":{"ha":751,"x_min":86,"x_max":705,"o":"m 705 393 l 86 118 l 86 204 l 610 435 l 86 667 l 86 755 l 705 486 l 705 393 z "},"?":{"ha":659,"x_min":46,"x_max":609,"o":"m 153 842 q 165 817 161 830 q 169 788 169 803 q 165 768 169 779 q 154 748 161 758 q 134 733 146 739 q 105 728 122 728 q 61 750 75 730 q 46 801 46 771 q 65 866 46 831 q 121 928 85 900 q 209 976 157 957 q 327 995 261 995 q 462 973 407 995 q 550 917 517 951 q 596 839 583 882 q 606 752 609 795 q 579 665 604 705 q 521 591 555 625 q 447 526 486 556 q 374 469 408 496 q 318 418 340 443 q 296 371 296 394 q 299 354 296 363 q 309 339 302 346 q 327 329 316 333 q 355 325 338 325 q 379 327 364 325 q 406 335 393 330 l 422 286 q 370 267 401 273 q 313 261 339 261 q 273 266 293 261 q 237 282 253 271 q 212 311 222 293 q 202 354 202 328 q 222 413 202 385 q 271 467 241 440 q 336 523 301 494 q 401 586 371 551 q 453 662 432 620 q 475 756 473 703 q 468 827 476 793 q 441 886 460 861 q 388 926 421 911 q 306 941 355 941 q 249 931 276 941 q 202 908 222 922 q 169 876 182 893 q 153 842 156 859 m 397 60 q 391 28 397 43 q 376 2 386 13 q 353 -16 366 -9 q 323 -22 339 -22 q 295 -17 309 -22 q 271 -1 281 -12 q 254 25 260 10 q 248 60 248 40 q 254 92 248 77 q 271 118 260 106 q 295 135 281 129 q 323 142 309 142 q 352 135 338 142 q 375 118 366 129 q 391 92 385 106 q 397 60 397 77 z "},"@":{"ha":1105,"x_min":69,"x_max":1047,"o":"m 682 615 q 595 628 649 628 q 510 598 547 628 q 449 520 473 568 q 413 415 425 473 q 401 302 401 357 q 420 191 401 233 q 475 150 439 150 q 525 171 500 150 q 572 228 549 192 q 615 310 595 263 q 649 408 635 357 q 672 513 664 460 q 682 615 681 566 m 1047 441 q 1032 313 1047 369 q 992 217 1017 258 q 936 151 968 177 q 866 107 905 125 q 779 90 827 90 q 729 98 757 90 q 682 127 702 106 q 657 174 663 149 q 651 225 651 199 q 654 272 651 247 q 665 338 657 298 l 662 338 q 609 211 636 258 q 553 138 581 163 q 499 105 526 113 q 451 97 473 97 q 395 108 422 97 q 348 143 368 119 q 316 203 328 166 q 304 290 304 239 q 325 435 304 366 q 387 556 346 504 q 490 638 429 608 q 630 669 551 669 q 665 668 646 669 q 704 665 684 667 q 744 660 724 663 q 780 652 763 656 q 768 556 774 604 q 756 461 762 507 q 746 373 751 415 q 739 304 741 332 q 736 250 736 277 q 742 197 736 222 q 757 160 747 173 q 780 142 767 146 q 804 137 793 137 q 852 151 829 137 q 897 196 875 165 q 933 280 918 227 q 949 397 949 333 q 919 603 949 522 q 839 732 888 684 q 724 804 789 781 q 574 827 660 827 q 487 817 539 827 q 377 772 435 806 q 273 676 319 739 q 201 533 226 614 q 176 366 176 453 q 192 229 176 290 q 234 119 207 168 q 300 36 262 71 q 382 -23 338 0 q 480 -59 427 -47 q 578 -72 533 -72 q 668 -68 640 -72 q 742 -52 696 -65 q 830 -13 788 -39 q 908 57 871 14 l 941 22 q 766 -98 861 -64 q 581 -132 672 -132 q 418 -116 484 -132 q 296 -67 353 -100 q 197 10 239 -35 q 126 110 154 55 q 83 228 98 165 q 69 357 69 290 q 82 475 69 415 q 121 593 95 536 q 186 701 146 650 q 280 791 226 751 q 394 852 334 830 q 502 879 455 873 q 581 884 549 884 q 711 871 650 884 q 827 826 772 857 q 923 752 882 795 q 992 659 964 709 q 1033 553 1019 608 q 1047 441 1047 497 z "},"A":{"ha":869,"x_min":-8,"x_max":886,"o":"m 178 151 q 168 122 172 135 q 160 98 164 109 q 152 77 156 87 q 143 56 148 67 l 252 61 l 252 0 l -8 0 l -8 46 q 43 59 23 46 q 76 94 62 71 q 101 149 90 117 q 126 220 112 181 l 412 999 l 446 999 l 755 208 q 768 174 762 194 q 780 133 774 154 q 789 92 786 112 q 791 56 792 71 l 886 61 l 886 0 l 568 0 l 568 46 q 625 60 607 47 q 648 94 644 74 q 648 136 653 113 q 636 178 644 158 l 587 308 l 226 300 q 199 221 211 257 q 178 151 188 186 m 346 639 q 290 481 314 549 q 247 359 266 413 l 568 359 l 469 625 l 407 796 l 404 796 l 346 639 z "},"B":{"ha":864,"x_min":77,"x_max":810,"o":"m 172 807 q 173 872 172 845 q 177 917 174 899 l 77 911 l 77 972 q 230 975 153 974 q 391 975 307 975 q 535 961 471 975 q 643 918 599 947 q 709 846 686 888 q 731 737 731 803 q 716 669 730 703 q 673 606 702 635 q 602 555 645 577 q 502 522 559 532 l 502 519 q 636 501 578 519 q 732 449 694 482 q 790 371 771 416 q 810 272 810 326 q 785 158 810 208 q 716 72 760 107 q 613 19 673 37 q 482 0 553 0 l 77 0 l 77 46 q 136 60 116 47 q 163 97 155 73 q 172 152 172 120 q 172 224 172 184 l 172 807 m 397 925 q 343 918 363 925 q 312 896 323 911 q 297 854 300 880 q 294 790 294 828 l 294 532 l 395 534 q 495 554 454 536 q 559 602 535 572 q 594 667 584 631 q 604 745 604 702 q 584 836 604 798 q 534 892 564 873 q 468 918 504 911 q 397 925 432 925 m 289 56 q 328 54 305 54 q 372 53 350 53 q 412 53 394 53 q 436 53 429 53 q 534 66 490 53 q 609 106 578 80 q 658 172 641 133 q 675 264 675 212 q 656 370 675 328 q 603 437 636 412 q 527 472 570 462 q 436 482 484 482 q 361 481 395 482 q 294 478 327 480 l 294 164 q 293 100 294 126 q 289 56 292 73 z "},"C":{"ha":971,"x_min":64,"x_max":929,"o":"m 555 938 q 417 906 481 938 q 304 817 352 875 q 228 676 256 759 q 200 492 200 593 q 213 368 200 426 q 251 261 227 310 q 309 173 275 212 q 385 106 343 134 q 473 65 426 79 q 572 50 521 50 q 663 60 618 50 q 750 91 708 71 q 828 141 791 111 q 893 210 865 171 l 929 180 q 833 79 884 119 q 730 17 782 40 q 628 -14 678 -5 q 536 -22 578 -22 q 345 16 431 -22 q 195 121 258 54 q 98 277 133 187 q 64 471 64 367 q 77 600 64 536 q 117 723 90 665 q 184 830 144 781 q 277 917 224 880 q 398 974 331 954 q 546 995 465 995 q 693 974 625 995 q 826 910 762 953 l 819 985 l 895 985 l 895 663 l 844 663 q 813 779 837 728 q 753 865 790 830 q 666 919 716 901 q 555 938 616 938 z "},"D":{"ha":1035,"x_min":77,"x_max":971,"o":"m 294 164 q 293 100 294 126 q 289 56 292 73 q 342 54 317 54 q 387 53 367 53 q 420 53 407 53 q 438 53 434 53 q 601 86 528 53 q 726 178 674 119 q 806 317 778 237 q 835 490 835 397 q 808 668 835 589 q 726 805 781 748 q 588 892 671 861 q 389 922 504 922 q 330 910 350 922 q 302 876 311 898 q 294 823 294 854 q 294 755 294 793 l 294 164 m 404 974 q 634 945 530 974 q 813 855 739 916 q 930 703 888 795 q 971 485 971 610 q 956 360 971 421 q 911 246 941 300 q 837 147 882 192 q 734 69 793 102 q 602 18 675 37 q 442 0 529 0 l 77 0 l 77 46 q 136 60 116 47 q 163 96 155 73 q 172 149 172 118 q 172 216 172 180 l 172 817 q 173 870 172 845 q 177 917 174 896 l 77 911 l 77 972 l 404 974 z "},"E":{"ha":864,"x_min":77,"x_max":802,"o":"m 294 160 q 293 95 294 121 q 289 52 292 69 l 555 56 q 637 67 600 56 q 700 102 673 77 q 740 168 726 127 q 754 271 754 209 l 802 271 l 793 0 l 77 0 l 77 46 q 129 57 110 47 q 158 83 149 66 q 170 124 168 100 q 172 176 172 147 l 172 216 l 172 817 q 173 870 172 845 q 177 917 174 896 l 77 911 l 77 972 l 745 972 l 751 729 l 706 729 q 692 827 706 789 q 654 886 678 865 q 597 916 630 908 q 527 924 565 924 l 399 922 q 339 909 360 920 q 307 879 317 899 q 295 829 297 859 q 294 755 294 798 l 294 532 l 554 532 l 544 652 l 606 652 l 606 359 l 560 359 q 553 424 560 400 q 531 461 546 448 q 492 479 515 475 q 435 483 469 483 q 416 483 426 483 q 294 478 406 483 l 294 160 z "},"F":{"ha":761,"x_min":77,"x_max":728,"o":"m 294 165 q 293 100 294 127 q 289 56 292 73 l 431 61 l 431 0 l 77 0 l 77 46 q 136 60 116 47 q 163 96 155 73 q 172 149 172 118 q 172 216 172 180 l 172 817 q 173 870 172 845 q 177 917 174 896 l 77 911 l 77 972 l 721 972 l 728 729 l 682 729 q 667 829 682 791 q 626 889 652 867 q 565 917 600 910 q 490 924 530 924 l 389 921 q 331 906 351 920 q 302 870 311 893 q 294 817 294 848 q 294 750 294 786 l 294 510 l 535 510 l 525 630 l 587 630 l 587 338 l 541 338 q 534 402 541 378 q 512 440 527 427 q 473 457 496 453 q 416 461 450 461 q 397 461 407 461 q 294 456 387 461 l 294 165 z "},"G":{"ha":1057,"x_min":65,"x_max":1027,"o":"m 928 50 l 890 50 q 829 42 867 50 q 740 14 791 34 q 692 -1 718 6 q 640 -12 667 -7 q 587 -20 613 -17 q 537 -22 560 -22 q 346 11 433 -22 q 197 107 259 45 q 100 261 134 170 q 65 465 65 351 q 78 595 65 530 q 118 719 92 660 q 185 828 145 777 q 279 916 225 878 q 400 974 333 953 q 549 995 468 995 q 625 989 586 995 q 701 974 663 984 q 772 950 738 964 q 836 918 807 936 l 830 985 l 907 985 l 907 667 l 857 667 q 827 783 852 732 q 763 868 803 833 q 671 921 724 903 q 558 939 618 939 q 419 906 484 939 q 306 815 354 873 q 230 675 258 756 q 201 497 201 594 q 229 316 201 399 q 305 173 256 233 q 422 79 354 113 q 573 45 491 45 q 631 49 601 45 q 693 61 662 53 q 754 82 724 69 q 811 114 784 96 l 811 418 l 713 412 l 713 473 l 1027 473 l 1027 428 q 984 418 1002 428 q 956 393 966 408 q 939 359 945 378 q 931 322 933 340 q 928 288 928 304 q 928 262 928 272 l 928 50 z "},"H":{"ha":1083,"x_min":77,"x_max":1007,"o":"m 791 470 l 294 464 l 294 165 q 293 100 294 127 q 289 56 292 73 l 389 61 l 389 0 l 77 0 l 77 46 q 136 60 116 47 q 163 96 155 73 q 172 149 172 118 q 172 216 172 180 l 172 817 q 173 870 172 845 q 177 917 174 896 l 77 911 l 77 972 l 389 972 l 389 926 q 330 912 350 925 q 302 876 311 899 q 294 823 294 854 q 294 755 294 793 l 294 525 l 791 525 l 791 817 q 795 917 791 875 l 694 911 l 694 972 l 1007 972 l 1007 926 q 948 912 968 925 q 920 876 928 899 q 912 823 912 854 q 911 755 911 793 l 911 165 q 907 56 911 91 l 1007 61 l 1007 0 l 694 0 l 694 46 q 754 60 734 47 q 782 96 774 73 q 790 149 790 118 q 791 216 791 180 l 791 470 z "},"I":{"ha":465,"x_min":77,"x_max":389,"o":"m 172 817 q 173 870 172 845 q 177 917 174 896 l 77 911 l 77 972 l 389 972 l 389 926 q 330 912 350 925 q 302 876 311 899 q 294 823 294 854 q 294 755 294 793 l 294 165 q 293 100 294 127 q 289 56 292 73 l 389 61 l 389 0 l 77 0 l 77 46 q 136 60 116 47 q 163 96 155 73 q 172 149 172 118 q 172 216 172 180 l 172 817 z "},"J":{"ha":518,"x_min":-3,"x_max":477,"o":"m 112 56 q 123 46 116 50 q 138 39 130 41 q 154 35 146 36 q 167 35 161 35 q 203 44 187 35 q 229 72 218 53 q 244 121 239 91 q 249 193 249 151 l 249 917 l 107 911 l 107 972 l 477 972 l 477 926 q 421 916 442 926 q 389 887 400 905 q 373 843 377 868 q 370 789 370 818 l 370 339 q 357 173 370 241 q 317 60 344 104 q 247 -3 290 17 q 144 -22 203 -22 q 88 -16 115 -22 q 41 4 62 -9 q 9 35 21 17 q -3 77 -3 54 q 1 103 -3 90 q 12 125 5 115 q 28 141 20 136 q 45 148 37 146 q 62 149 52 149 q 86 144 75 149 q 105 129 98 138 q 115 109 112 120 q 119 87 119 98 q 117 72 119 81 q 112 56 115 64 z "},"K":{"ha":925,"x_min":77,"x_max":942,"o":"m 172 817 q 173 870 172 845 q 177 917 174 896 l 77 911 l 77 972 l 389 972 l 389 926 q 330 912 350 925 q 302 876 311 899 q 294 823 294 854 q 294 755 294 793 l 294 528 l 397 528 l 571 802 q 591 831 580 815 q 615 862 602 846 q 642 892 627 878 q 670 918 656 907 l 585 916 l 585 972 l 884 972 l 884 926 q 804 915 840 923 q 735 886 768 906 q 670 831 703 866 q 603 739 638 796 l 467 522 q 503 496 487 510 q 532 467 518 482 q 557 436 545 452 q 583 404 570 420 l 738 197 q 806 114 777 144 q 857 69 834 84 q 900 50 880 54 q 942 46 920 46 l 942 0 l 772 0 q 747 11 762 0 q 712 41 731 22 q 673 85 694 60 q 632 136 652 110 l 466 361 q 413 427 439 395 q 361 473 387 458 l 294 472 l 294 165 q 293 100 294 127 q 289 56 292 73 l 389 61 l 389 0 l 77 0 l 77 46 q 136 60 116 47 q 163 96 155 73 q 172 149 172 118 q 172 216 172 180 l 172 817 z "},"L":{"ha":803,"x_min":77,"x_max":774,"o":"m 294 160 q 293 96 294 122 q 289 52 292 69 l 549 56 q 626 70 592 56 q 682 111 659 83 q 715 182 704 138 q 727 288 727 226 l 774 288 l 766 0 l 77 0 l 77 46 q 136 60 116 47 q 163 96 155 73 q 172 149 172 118 q 172 216 172 180 l 172 817 q 173 870 172 845 q 177 917 174 896 l 77 911 l 77 972 l 389 972 l 389 926 q 330 912 350 925 q 302 876 311 899 q 294 823 294 854 q 294 755 294 793 l 294 160 z "},"M":{"ha":1275,"x_min":61,"x_max":1227,"o":"m 87 972 l 300 972 q 392 762 348 863 q 477 563 435 661 q 561 368 519 465 q 647 170 603 271 l 650 170 q 667 212 658 189 q 686 259 676 235 q 704 307 695 283 q 721 349 713 330 q 847 654 781 500 q 978 972 913 808 l 1183 972 l 1183 926 q 1138 919 1157 927 q 1107 894 1119 911 q 1089 847 1095 876 q 1087 775 1084 818 l 1124 143 q 1126 97 1125 119 q 1126 56 1126 75 l 1227 61 l 1227 0 l 916 0 l 916 46 q 968 58 949 47 q 997 90 987 69 q 1008 141 1006 111 q 1008 211 1010 172 l 972 803 q 964 782 968 793 q 954 758 959 770 l 642 -14 l 600 -14 q 509 190 555 88 q 417 395 463 292 q 329 603 372 498 q 244 815 285 707 l 243 754 q 240 678 241 721 q 238 586 239 635 q 235 484 236 537 q 232 378 233 431 q 229 272 231 324 q 227 174 228 220 q 226 112 227 142 q 222 56 225 81 l 326 61 l 326 0 l 61 0 l 61 46 q 112 57 94 47 q 140 85 130 68 q 153 125 150 102 q 157 174 155 148 l 187 916 l 87 913 l 87 972 z "},"N":{"ha":1059,"x_min":79,"x_max":999,"o":"m 903 -22 l 836 -22 l 233 788 l 231 788 l 236 193 q 236 123 236 157 q 233 56 235 89 l 334 61 l 334 0 l 79 0 l 79 46 q 130 57 111 46 q 157 85 148 68 q 169 120 166 101 q 171 155 171 139 l 172 917 l 79 911 l 79 972 l 245 972 l 836 181 l 838 181 l 839 817 q 843 917 839 875 l 743 911 l 743 972 l 999 972 l 999 926 q 940 912 960 925 q 913 876 921 899 q 906 823 905 854 q 906 755 906 793 l 903 -22 z "},"O":{"ha":1103,"x_min":64,"x_max":1042,"o":"m 200 511 q 210 405 200 460 q 238 296 219 349 q 287 196 258 243 q 357 112 317 148 q 448 56 397 77 q 561 35 498 35 q 665 52 618 35 q 751 99 713 69 q 817 171 789 130 q 865 259 846 212 q 893 359 884 306 q 903 460 903 413 q 892 571 903 510 q 861 685 882 632 q 809 785 840 739 q 739 866 779 831 q 649 920 699 900 q 543 939 600 939 q 393 901 457 939 q 286 802 328 863 q 221 665 243 741 q 200 511 200 589 m 64 486 q 77 605 64 545 q 116 722 90 665 q 182 828 142 779 q 276 915 222 878 q 397 974 330 952 q 547 995 465 995 q 702 973 632 995 q 826 915 771 951 q 921 828 881 878 q 988 721 962 778 q 1028 604 1015 665 q 1042 486 1042 544 q 1028 369 1042 429 q 989 252 1015 309 q 923 145 963 195 q 829 58 883 96 q 708 -1 775 21 q 558 -22 640 -22 q 399 -1 470 -22 q 273 56 328 20 q 179 141 218 92 q 114 247 139 191 q 76 365 88 303 q 64 486 64 426 z "},"P":{"ha":841,"x_min":77,"x_max":806,"o":"m 343 366 q 322 366 336 366 q 294 366 307 366 l 294 165 q 293 100 294 127 q 289 56 292 73 l 417 62 l 417 0 l 77 0 l 77 46 q 136 60 116 47 q 163 96 155 73 q 172 149 172 118 q 172 216 172 180 l 172 817 q 173 870 172 845 q 177 917 174 896 l 77 911 l 77 972 q 227 974 150 974 q 387 975 304 975 q 694 907 589 975 q 806 690 806 833 q 800 626 806 661 q 774 553 793 591 q 720 481 754 515 q 634 421 686 447 q 510 381 582 396 q 343 366 438 366 m 294 424 q 339 420 319 420 q 384 419 358 419 q 495 437 443 419 q 587 488 548 454 q 649 570 626 522 q 671 679 671 618 q 650 791 671 745 q 591 866 629 837 q 500 907 553 895 q 384 920 448 920 q 328 908 347 920 q 301 875 309 897 q 294 823 294 853 q 294 755 294 793 l 294 424 z "},"Q":{"ha":1105,"x_min":64,"x_max":1091,"o":"m 64 486 q 77 605 64 545 q 116 722 90 665 q 182 828 142 779 q 276 915 222 878 q 397 974 330 952 q 547 995 465 995 q 702 973 632 995 q 826 915 771 951 q 921 828 881 878 q 988 721 962 778 q 1028 604 1015 665 q 1042 486 1042 544 q 1028 369 1042 429 q 989 252 1015 309 q 923 145 963 195 q 829 58 883 96 q 707 -1 775 21 q 671 -10 690 -6 q 677 -11 675 -11 q 724 -15 702 -12 q 768 -27 746 -18 q 815 -54 791 -37 q 869 -98 840 -71 q 951 -174 918 -143 q 1008 -223 984 -204 q 1052 -249 1033 -241 q 1091 -257 1071 -257 l 1091 -302 l 1047 -302 q 980 -301 1009 -302 q 924 -293 951 -300 q 871 -270 898 -286 q 812 -225 845 -254 q 731 -146 766 -183 q 667 -82 696 -109 q 610 -38 637 -54 q 549 -22 582 -22 q 399 -1 466 -21 q 273 56 328 20 q 179 141 218 92 q 114 247 139 191 q 76 365 88 303 q 64 486 64 426 m 200 511 q 210 405 200 460 q 238 296 219 349 q 287 196 258 243 q 357 112 317 148 q 448 56 397 77 q 561 35 498 35 q 665 52 618 35 q 751 99 713 69 q 817 171 789 130 q 865 259 846 212 q 893 359 884 306 q 903 460 903 413 q 892 571 903 510 q 861 685 882 632 q 809 785 840 739 q 739 866 779 831 q 649 920 699 900 q 543 939 600 939 q 393 901 457 939 q 286 802 328 863 q 221 665 243 741 q 200 511 200 589 z "},"R":{"ha":872,"x_min":77,"x_max":873,"o":"m 388 434 q 341 433 365 433 q 294 435 317 433 l 294 165 q 293 100 294 127 q 289 56 292 73 l 389 61 l 389 0 l 77 0 l 77 46 q 136 60 116 47 q 163 96 155 73 q 172 149 172 118 q 172 216 172 180 l 172 817 q 173 870 172 845 q 177 917 174 896 l 77 911 l 77 972 q 235 975 155 974 q 395 974 314 975 q 567 955 495 972 q 684 905 638 937 q 751 828 730 873 q 772 725 772 783 q 762 642 772 684 q 722 562 751 600 q 642 494 692 524 q 512 448 591 464 q 561 397 539 428 q 608 326 583 367 l 703 178 q 737 126 721 150 q 773 84 753 102 q 816 56 792 66 q 873 46 840 46 l 873 0 l 698 0 q 661 35 677 18 q 630 72 645 53 q 602 111 616 91 q 574 154 589 131 l 481 302 q 461 335 471 317 q 439 370 451 352 q 415 404 428 387 q 388 434 402 420 m 294 488 q 335 486 315 487 q 380 486 355 485 q 484 501 437 488 q 565 540 531 513 q 618 608 600 566 q 637 710 637 650 q 577 868 637 814 q 389 921 517 921 q 330 909 350 921 q 302 876 311 897 q 294 823 294 854 q 294 755 294 793 l 294 488 z "},"S":{"ha":787,"x_min":81,"x_max":726,"o":"m 161 -11 l 89 -11 l 81 285 l 134 285 q 161 177 138 223 q 219 99 183 130 q 304 52 256 68 q 407 36 352 36 q 484 47 448 36 q 548 80 520 58 q 591 135 575 102 q 607 210 607 168 q 585 297 607 260 q 525 362 562 334 q 441 413 488 390 q 345 458 394 435 q 249 506 296 481 q 165 565 202 532 q 106 644 128 599 q 83 750 83 688 q 89 801 83 774 q 107 855 94 828 q 140 908 119 882 q 192 952 161 933 q 266 983 223 972 q 365 995 309 995 q 422 991 392 995 q 485 980 453 988 q 547 958 516 972 q 607 923 578 944 l 602 983 l 672 983 l 672 678 l 622 678 q 603 775 618 728 q 556 859 587 823 q 481 917 526 895 q 375 939 436 939 q 298 926 332 939 q 243 890 265 913 q 209 839 220 868 q 197 777 197 809 q 220 694 197 729 q 280 632 243 659 q 365 583 317 605 q 462 537 412 560 q 559 489 511 515 q 644 428 606 463 q 704 349 681 394 q 726 241 726 303 q 705 135 726 184 q 642 52 683 87 q 539 -3 600 17 q 401 -22 479 -22 q 337 -18 370 -22 q 272 -5 304 -14 q 210 18 240 4 q 154 49 180 31 l 161 -11 z "},"T":{"ha":889,"x_min":31,"x_max":857,"o":"m 804 679 q 795 786 803 741 q 766 862 787 832 q 711 907 746 892 q 623 922 677 922 l 506 922 l 504 165 q 500 56 504 91 l 615 61 l 615 0 l 289 0 l 289 46 q 347 61 328 47 q 375 97 367 75 q 383 151 383 120 q 383 216 383 181 l 385 920 l 241 920 q 167 905 197 920 q 118 861 137 890 q 91 786 99 831 q 82 679 82 741 l 31 679 l 39 972 l 848 972 l 857 679 l 804 679 z "},"U":{"ha":1044,"x_min":43,"x_max":1002,"o":"m 903 433 q 883 260 903 342 q 820 115 864 178 q 705 15 777 52 q 530 -22 634 -22 q 343 7 418 -22 q 222 97 268 36 q 157 251 176 157 q 137 473 137 345 l 137 755 q 137 796 137 774 q 139 841 138 819 q 140 883 140 863 q 142 917 141 903 l 43 913 l 43 972 l 355 972 l 355 926 q 300 915 319 926 q 272 886 281 903 q 261 850 262 869 q 259 817 259 831 l 259 467 q 263 365 259 415 q 278 269 267 314 q 310 184 290 223 q 361 117 330 146 q 439 73 393 89 q 547 57 484 57 q 676 84 622 57 q 765 160 730 111 q 816 277 800 210 q 834 427 833 345 l 840 817 q 844 917 840 875 l 744 911 l 744 972 l 1002 972 l 1002 926 q 943 912 963 925 q 915 876 923 899 q 906 823 907 854 q 906 755 906 793 l 903 433 z "},"V":{"ha":907,"x_min":-5,"x_max":932,"o":"m -5 972 l 317 972 l 317 926 l 315 925 q 260 912 281 923 q 232 882 239 901 q 228 837 224 863 q 246 775 232 810 q 278 695 262 734 q 310 616 294 656 q 342 536 326 577 q 378 452 359 496 q 411 374 395 412 q 443 302 428 336 q 470 237 457 267 q 490 183 482 206 l 493 183 q 709 795 678 705 q 757 917 741 884 l 650 911 l 650 972 l 932 972 l 932 926 q 878 918 901 925 q 838 894 855 910 q 806 853 820 878 q 768 762 791 827 q 710 600 745 696 q 645 422 675 503 q 576 234 616 341 q 486 -14 537 126 l 448 -14 l 132 725 q 106 788 117 760 q 89 839 96 817 q 78 880 82 862 q 73 914 75 899 l -5 911 l -5 972 z "},"W":{"ha":1382,"x_min":9,"x_max":1402,"o":"m 9 972 l 347 972 l 347 926 q 282 916 306 924 q 250 890 259 908 q 242 845 240 873 q 256 775 245 817 q 354 478 295 648 q 422 280 412 309 q 443 218 433 251 l 446 218 q 460 268 452 241 q 476 319 469 294 q 523 465 484 345 q 580 642 562 585 q 615 750 599 699 q 687 975 632 801 l 732 975 q 817 709 800 761 q 900 463 835 658 q 985 201 966 267 l 989 201 q 1165 737 1133 637 q 1207 864 1197 837 q 1232 916 1218 892 l 1120 911 l 1120 972 l 1402 972 l 1402 926 q 1344 914 1367 922 q 1303 884 1321 905 q 1269 823 1285 862 q 1149 475 1252 785 q 980 -14 1046 166 l 939 -14 l 679 729 l 434 -14 l 394 -14 q 124 790 134 762 q 107 840 115 818 q 96 881 100 863 q 88 914 91 899 l 9 911 l 9 972 z "},"X":{"ha":901,"x_min":12,"x_max":911,"o":"m 12 972 l 372 972 l 372 926 l 311 924 q 259 911 273 922 q 245 885 245 901 q 256 850 245 869 q 279 811 267 830 q 376 668 328 735 q 452 563 425 600 q 653 851 637 830 q 683 890 669 873 q 708 917 697 907 l 591 911 l 591 972 l 865 972 l 865 926 q 802 903 831 922 q 745 857 772 884 q 693 797 718 829 q 490 511 669 764 l 734 187 l 830 58 l 911 61 l 911 0 l 570 0 l 570 46 q 629 53 610 44 q 652 78 648 62 q 649 112 656 93 q 629 147 641 130 l 425 417 q 235 135 262 175 q 174 54 208 94 l 290 61 l 290 0 l 16 0 l 16 46 q 75 67 50 53 q 121 101 100 81 q 163 150 143 122 q 208 212 184 178 l 387 471 q 253 660 327 556 q 159 792 178 764 q 126 842 140 821 q 105 879 113 863 q 90 914 97 895 l 12 911 l 12 972 z "},"Y":{"ha":880,"x_min":-8,"x_max":895,"o":"m 394 375 l 153 757 q 100 850 117 812 q 78 914 83 888 l -8 911 l -8 972 l 350 972 l 350 926 q 277 915 302 926 q 244 884 252 904 q 247 836 237 864 q 277 775 256 808 q 326 697 302 734 q 372 624 349 660 q 419 551 395 588 q 474 472 444 513 l 477 472 q 662 822 632 768 q 701 890 692 876 q 721 916 711 905 l 611 911 l 611 972 l 895 972 l 895 926 q 833 913 860 924 q 782 879 806 901 q 736 824 758 857 q 515 416 714 791 q 514 257 514 349 q 514 165 513 165 q 510 56 514 91 l 625 61 l 625 0 l 299 0 l 299 46 q 357 61 338 47 q 385 97 377 75 q 393 151 393 120 q 393 216 393 181 l 394 375 z "},"Z":{"ha":847,"x_min":60,"x_max":781,"o":"m 60 64 q 149 189 99 119 q 259 348 198 258 q 394 548 321 437 q 553 796 467 659 q 594 859 572 827 q 642 921 616 890 l 288 916 q 216 900 246 913 q 165 858 185 886 q 134 787 144 829 q 124 685 124 744 l 77 685 l 85 972 l 774 972 l 774 924 l 275 167 q 247 127 260 144 q 223 97 235 111 q 202 73 212 83 q 180 52 191 62 l 518 57 q 603 71 564 58 q 672 113 643 85 q 717 184 701 141 q 734 285 734 227 l 781 285 l 772 0 l 60 0 l 60 64 z "},"[":{"ha":498,"x_min":110,"x_max":482,"o":"m 111 1048 l 479 1048 l 479 965 l 215 961 l 209 -267 l 482 -271 l 482 -354 l 110 -354 l 111 1048 z "},"\\":{"ha":958,"x_min":29,"x_max":930,"o":"m 29 999 l 850 -377 l 930 -326 l 119 1055 l 29 999 z "},"]":{"ha":498,"x_min":17,"x_max":389,"o":"m 388 -354 l 20 -354 l 20 -271 l 284 -267 l 290 961 l 17 965 l 17 1048 l 389 1048 l 388 -354 z "},"^":{"ha":1143,"x_min":83,"x_max":1060,"o":"m 635 995 l 1060 606 l 937 606 l 568 945 l 197 613 l 83 613 l 511 995 l 635 995 z "},"_":{"ha":1013,"x_min":79,"x_max":933,"o":"m 79 -69 l 933 -75 l 933 -154 l 79 -154 l 79 -69 z "},"`":{"ha":350,"x_min":63,"x_max":288,"o":"m 93 953 q 69 987 75 971 q 65 998 67 991 q 63 1013 63 1005 q 65 1029 63 1021 q 75 1045 68 1036 q 92 1058 81 1054 q 114 1063 102 1063 q 140 1055 125 1063 q 171 1025 155 1047 l 288 838 l 249 806 l 93 953 z "},"a":{"ha":717,"x_min":47,"x_max":682,"o":"m 471 340 q 405 334 439 338 q 337 320 370 330 q 275 297 304 311 q 224 263 246 283 q 191 218 203 243 q 180 159 178 192 q 190 114 180 134 q 213 82 199 95 q 247 63 228 70 q 288 57 266 57 q 340 62 315 57 q 386 78 364 68 q 429 104 408 89 q 471 138 450 119 l 471 340 m 90 550 q 110 615 90 585 q 167 668 130 646 q 254 704 203 691 q 364 717 304 717 q 536 655 481 717 q 591 459 591 593 l 589 147 q 588 103 589 125 q 584 53 587 81 l 682 58 l 682 0 l 484 0 q 477 41 479 24 q 474 79 475 59 q 372 5 427 32 q 255 -22 317 -22 q 164 -10 203 -22 q 99 25 125 3 q 60 78 73 47 q 47 142 47 108 q 66 220 47 185 q 116 283 85 256 q 190 331 148 311 q 279 363 232 351 q 375 382 326 376 q 471 387 425 388 l 471 474 q 467 544 471 510 q 449 606 463 578 q 406 650 435 633 q 338 666 376 666 q 295 662 315 666 q 255 650 275 659 q 219 627 235 641 q 193 593 203 612 q 207 567 203 581 q 211 541 211 553 q 208 522 211 532 q 197 502 204 511 q 179 487 190 493 q 149 481 168 481 q 105 502 121 481 q 90 550 90 522 z "},"b":{"ha":808,"x_min":11,"x_max":749,"o":"m 105 868 q 105 910 105 890 q 109 958 106 930 l 11 953 l 11 1011 q 86 1014 56 1011 q 136 1023 117 1017 q 165 1035 155 1028 q 184 1048 176 1041 l 224 1048 l 224 634 q 316 695 263 673 q 435 717 370 717 q 559 692 502 717 q 659 622 616 667 q 725 510 701 576 q 749 363 749 445 q 719 203 749 275 q 639 82 689 132 q 524 5 589 32 q 389 -22 458 -22 q 338 -19 365 -22 q 285 -5 312 -15 q 232 21 258 5 q 184 62 206 37 l 151 0 l 102 0 l 105 868 m 393 648 q 302 627 347 648 q 224 570 257 606 l 224 218 q 238 127 224 163 q 275 71 252 92 q 327 42 298 50 q 389 35 357 35 q 479 56 439 35 q 548 116 519 77 q 591 210 576 155 q 606 330 606 264 q 593 458 606 399 q 553 559 580 517 q 487 625 527 601 q 393 648 447 648 z "},"c":{"ha":739,"x_min":57,"x_max":692,"o":"m 568 591 q 541 630 559 615 q 501 652 522 644 q 458 663 479 661 q 422 665 437 665 q 334 646 375 665 q 263 589 293 627 q 216 496 233 552 q 199 369 199 441 q 216 241 199 300 q 264 140 233 182 q 340 74 296 98 q 437 50 384 50 q 502 59 470 50 q 562 85 534 68 q 615 123 591 101 q 656 170 639 144 l 692 142 q 628 67 664 98 q 554 17 593 37 q 475 -13 515 -3 q 400 -22 435 -22 q 267 2 330 -22 q 158 72 205 26 q 84 184 111 117 q 57 335 57 250 q 69 430 57 383 q 103 519 81 477 q 157 598 125 562 q 230 661 189 634 q 318 702 270 687 q 419 717 366 717 q 524 703 477 717 q 606 665 572 688 q 658 610 640 641 q 676 545 676 579 q 660 494 676 515 q 612 472 643 473 q 581 478 593 471 q 562 494 569 484 q 551 514 554 503 q 547 534 547 526 q 552 563 547 548 q 568 591 556 578 z "},"d":{"ha":831,"x_min":58,"x_max":789,"o":"m 696 147 q 695 103 696 125 q 690 53 694 81 l 789 58 l 789 0 l 590 0 q 585 38 587 20 q 581 73 583 56 q 485 3 541 29 q 358 -22 428 -22 q 239 2 294 -22 q 144 72 184 26 q 81 182 104 117 q 58 328 58 247 q 85 484 58 412 q 159 607 112 555 q 272 688 207 659 q 415 717 338 717 q 461 713 438 717 q 506 705 484 710 q 545 692 527 699 q 577 678 564 686 l 578 868 q 578 910 578 890 q 582 958 578 930 l 484 953 l 484 1011 q 559 1014 529 1011 q 608 1023 589 1017 q 637 1035 627 1028 q 656 1048 648 1041 l 696 1048 l 696 147 m 408 46 q 455 53 431 46 q 501 72 479 60 q 542 101 523 84 q 577 137 562 117 q 576 173 576 154 q 576 214 576 192 l 577 614 q 505 651 544 640 q 424 662 465 662 q 330 639 372 662 q 258 573 288 616 q 215 477 229 531 q 201 340 201 422 q 217 226 201 284 q 258 129 232 168 q 322 68 284 90 q 408 46 359 46 z "},"e":{"ha":753,"x_min":58,"x_max":699,"o":"m 410 663 q 275 615 328 663 q 205 460 222 567 l 559 460 q 551 533 559 496 q 525 598 543 569 q 479 645 507 627 q 410 663 450 663 m 690 410 l 201 401 q 214 256 201 321 q 254 145 227 191 q 326 74 282 99 q 431 49 370 49 q 497 58 463 49 q 563 82 531 66 q 621 118 594 97 q 665 164 647 140 l 699 136 q 632 63 670 93 q 554 14 595 33 q 473 -14 514 -5 q 397 -22 433 -22 q 263 3 326 -22 q 156 77 201 29 q 84 193 111 125 q 58 346 58 261 q 83 486 58 419 q 155 604 109 553 q 265 686 201 656 q 408 717 330 717 q 517 698 466 717 q 607 641 568 679 q 668 545 646 603 q 690 410 690 487 z "},"f":{"ha":469,"x_min":35,"x_max":547,"o":"m 437 981 q 410 1000 427 995 q 378 1006 393 1006 q 324 991 345 1006 q 291 953 303 977 q 274 900 279 929 q 269 840 269 870 l 269 694 l 456 694 l 456 640 l 269 637 l 270 147 q 269 98 270 119 q 264 53 269 77 l 351 57 l 351 0 l 68 0 l 68 41 q 117 54 100 41 q 141 89 134 66 q 149 142 149 111 q 150 211 150 174 l 149 634 l 35 632 l 35 694 l 149 694 l 149 724 q 162 862 149 801 q 205 966 175 924 q 282 1032 235 1009 q 399 1055 330 1055 q 447 1049 421 1055 q 495 1031 473 1044 q 532 999 517 1019 q 547 953 547 980 q 531 907 547 925 q 490 890 515 890 q 461 896 472 890 q 443 910 450 901 q 433 929 436 919 q 430 947 430 939 q 432 964 430 956 q 437 981 433 972 z "},"g":{"ha":768,"x_min":49,"x_max":791,"o":"m 381 -45 q 307 -42 342 -44 q 238 -35 271 -40 q 179 -96 199 -60 q 158 -172 158 -132 q 175 -234 158 -207 q 222 -281 191 -262 q 297 -312 253 -301 q 394 -322 340 -322 q 501 -310 454 -322 q 581 -277 548 -298 q 630 -230 613 -257 q 647 -174 647 -203 q 627 -111 647 -135 q 571 -73 607 -87 q 487 -53 536 -59 q 381 -45 439 -47 m 369 668 q 302 653 332 668 q 253 612 273 638 q 223 549 233 585 q 212 472 212 513 q 223 381 212 422 q 255 310 234 340 q 307 264 276 280 q 376 248 337 248 q 443 262 414 248 q 491 301 472 276 q 520 362 511 327 q 530 437 530 397 q 520 525 530 483 q 490 598 510 567 q 439 649 469 630 q 369 668 409 668 m 673 722 q 642 711 655 720 q 618 690 628 703 q 601 662 608 677 q 591 631 595 646 q 646 556 626 599 q 666 465 666 513 q 642 357 666 406 q 577 272 618 308 q 483 217 536 237 q 372 197 430 197 q 326 201 346 197 q 279 204 306 204 q 232 197 253 204 q 196 179 210 191 q 176 156 181 167 q 172 136 172 144 q 174 119 172 128 q 196 93 179 103 q 241 77 214 83 q 308 68 269 71 q 394 64 346 66 q 537 48 474 60 q 645 13 601 37 q 712 -50 689 -12 q 736 -144 736 -88 q 706 -244 736 -201 q 627 -316 675 -287 q 518 -361 578 -346 q 395 -376 457 -376 q 236 -360 302 -376 q 128 -317 170 -344 q 68 -257 87 -290 q 49 -189 49 -223 q 61 -130 49 -157 q 92 -83 73 -104 q 133 -46 111 -62 q 177 -22 156 -31 q 106 17 132 -8 q 81 87 81 43 q 91 135 81 112 q 119 178 101 159 q 163 212 138 198 q 219 231 189 225 q 161 267 187 245 q 117 315 136 288 q 89 374 99 342 q 79 442 79 406 q 105 555 79 505 q 171 642 130 606 q 265 697 212 678 q 372 717 317 717 q 464 704 418 717 q 548 665 509 690 q 576 719 558 694 q 615 762 593 744 q 663 790 637 780 q 717 800 689 800 q 771 782 752 800 q 791 731 791 764 q 787 713 791 723 q 777 694 784 703 q 758 679 770 685 q 730 673 747 673 q 692 688 707 674 q 673 722 677 702 z "},"h":{"ha":832,"x_min":36,"x_max":790,"o":"m 130 868 q 131 910 130 890 q 134 958 131 930 l 36 953 l 36 1011 q 112 1014 81 1011 q 161 1023 142 1017 q 191 1035 180 1028 q 210 1048 201 1041 l 250 1048 l 250 625 q 300 661 273 644 q 356 690 327 678 q 417 710 386 703 q 477 717 448 717 q 581 698 538 717 q 652 641 625 680 q 693 544 680 603 q 707 406 706 486 l 708 147 q 707 98 708 119 q 703 53 707 77 l 790 57 l 790 0 l 507 0 l 507 41 q 555 54 538 41 q 579 89 572 66 q 588 142 587 111 q 589 211 589 174 l 589 405 q 551 584 589 525 q 430 644 513 644 q 380 637 406 644 q 330 618 353 630 q 286 591 307 607 q 250 557 265 576 l 250 147 q 248 98 250 119 q 243 53 247 77 l 330 57 l 330 0 l 47 0 l 47 41 q 96 54 79 41 q 120 89 113 66 q 129 142 128 111 q 130 211 130 174 l 130 868 z "},"i":{"ha":390,"x_min":50,"x_max":345,"o":"m 143 528 q 144 570 143 549 q 149 618 145 590 l 50 612 l 50 671 q 125 674 96 671 q 174 682 155 677 q 204 694 193 688 q 222 708 214 701 l 262 708 l 262 147 q 262 98 262 119 q 257 53 261 77 l 345 57 l 345 0 l 61 0 l 61 41 q 110 54 93 41 q 134 89 126 66 q 142 142 141 111 q 143 211 143 174 l 143 528 m 275 928 q 269 896 275 911 q 252 870 262 881 q 229 852 242 859 q 200 846 215 846 q 172 852 185 846 q 148 870 158 859 q 131 896 137 881 q 125 928 125 911 q 132 961 125 945 q 148 987 138 976 q 172 1005 159 999 q 201 1012 186 1012 q 230 1005 217 1012 q 254 987 243 999 q 270 961 264 976 q 275 928 275 945 z "},"j":{"ha":357,"x_min":-122,"x_max":259,"o":"m -122 -299 q -105 -253 -122 -273 q -62 -233 -89 -233 q -34 -239 -45 -233 q -15 -254 -22 -245 q -5 -273 -8 -262 q -2 -292 -2 -283 q -2 -298 -2 -295 q -3 -304 -2 -301 q 33 -313 17 -313 q 56 -309 41 -313 q 90 -289 71 -305 q 121 -223 113 -267 q 130 -120 130 -178 l 132 528 q 133 570 132 549 q 136 618 133 590 l 38 612 l 38 671 q 114 674 83 671 q 163 682 144 677 q 193 694 182 687 q 212 708 203 701 l 252 708 l 252 -5 q 232 -172 252 -102 q 176 -288 212 -242 q 92 -355 140 -333 q -12 -376 44 -376 q -62 -370 -41 -376 q -96 -353 -83 -363 q -116 -328 -109 -342 q -122 -299 -122 -314 m 259 928 q 253 896 259 911 q 236 870 246 881 q 212 852 226 859 q 184 846 199 846 q 155 852 169 846 q 131 870 142 859 q 115 896 121 881 q 109 928 109 911 q 115 961 109 945 q 132 987 121 976 q 156 1005 142 999 q 185 1012 170 1012 q 214 1005 201 1012 q 237 987 227 999 q 253 961 248 976 q 259 928 259 945 z "},"k":{"ha":746,"x_min":36,"x_max":736,"o":"m 460 694 l 713 694 l 713 653 q 646 633 678 649 q 586 595 614 617 q 534 550 557 574 q 491 507 510 526 l 383 393 q 430 361 410 380 q 469 318 450 342 l 568 192 q 582 173 572 186 q 605 143 591 159 q 634 108 618 126 q 668 75 650 90 q 702 51 685 60 q 736 41 720 41 l 736 0 l 610 0 q 572 11 591 0 q 536 41 554 22 q 500 82 518 59 q 463 131 482 106 q 370 260 408 205 q 305 340 332 315 l 248 338 l 248 147 q 248 98 248 119 q 243 53 247 77 l 332 57 l 332 0 l 48 0 l 48 41 q 97 54 80 41 q 120 89 113 66 q 129 142 127 111 q 130 868 130 174 q 131 910 130 890 q 134 958 131 930 l 36 953 l 36 1011 q 111 1014 81 1011 q 160 1023 141 1017 q 190 1035 179 1028 q 208 1048 200 1041 l 248 1048 l 248 392 l 304 392 l 473 570 q 516 612 496 593 q 555 643 536 631 l 460 639 l 460 694 z "},"l":{"ha":378,"x_min":35,"x_max":330,"o":"m 129 868 q 129 910 129 890 q 133 958 130 930 l 35 953 l 35 1011 q 110 1014 80 1011 q 159 1023 140 1017 q 189 1035 178 1028 q 208 1048 200 1041 l 248 1048 l 250 147 q 248 98 250 119 q 243 53 247 77 l 330 57 l 330 0 l 47 0 l 47 41 q 95 54 79 41 q 119 89 112 66 q 128 142 127 111 q 129 211 129 174 l 129 868 z "},"m":{"ha":1242,"x_min":50,"x_max":1198,"o":"m 143 528 q 144 572 143 549 q 149 618 144 594 l 50 612 l 50 671 q 124 674 96 671 q 170 682 153 677 q 197 694 187 688 q 214 708 206 701 l 254 708 q 257 677 256 694 q 260 634 258 659 q 305 667 281 652 q 356 693 330 682 q 409 711 382 705 q 464 717 437 717 q 581 691 534 717 q 654 623 628 666 q 705 660 677 643 q 763 690 733 677 q 824 710 793 703 q 885 717 855 717 q 990 699 945 717 q 1063 644 1034 682 q 1105 547 1092 606 q 1117 406 1118 488 l 1116 147 q 1115 98 1116 119 q 1110 53 1114 77 l 1198 57 l 1198 0 l 914 0 l 914 41 q 963 54 946 41 q 987 89 979 66 q 995 142 994 111 q 996 211 996 174 l 996 405 q 958 584 996 525 q 838 644 920 644 q 751 624 794 644 q 676 575 708 604 q 690 474 690 528 l 688 147 q 687 98 688 119 q 682 53 686 77 l 770 57 l 770 0 l 486 0 l 486 41 q 535 54 518 41 q 558 89 551 66 q 567 142 566 111 q 568 211 568 174 l 570 405 q 535 585 570 524 q 417 646 499 646 q 333 628 374 646 q 262 579 291 609 q 262 544 262 563 q 262 505 262 526 l 262 147 q 262 98 262 119 q 257 53 261 77 l 345 57 l 345 0 l 61 0 l 61 41 q 110 54 93 41 q 134 89 126 66 q 142 142 141 111 q 143 211 143 174 l 143 528 z "},"n":{"ha":843,"x_min":52,"x_max":802,"o":"m 144 528 q 145 572 144 549 q 150 618 146 594 l 52 612 l 52 671 q 125 674 97 671 q 171 682 154 677 q 198 694 189 688 q 216 708 208 701 l 256 708 q 259 672 257 692 q 262 624 260 652 q 311 661 284 644 q 367 690 338 677 q 427 710 396 703 q 488 717 458 717 q 664 641 608 717 q 720 406 720 566 l 720 147 q 719 98 720 119 q 714 53 718 77 l 802 57 l 802 0 l 518 0 l 518 41 q 567 54 550 41 q 591 89 583 66 q 599 142 598 111 q 600 211 600 174 l 600 405 q 561 586 599 525 q 440 646 523 646 q 390 639 415 646 q 342 620 365 631 q 298 591 319 608 q 263 556 278 575 q 264 530 264 544 q 264 502 264 516 l 262 147 q 262 98 262 119 q 257 53 261 77 l 345 57 l 345 0 l 61 0 l 61 41 q 110 54 93 41 q 133 89 126 66 q 141 142 140 111 q 143 211 142 174 l 144 528 z "},"o":{"ha":812,"x_min":57,"x_max":755,"o":"m 406 664 q 312 640 351 664 q 248 574 273 615 q 211 481 222 534 q 199 371 199 428 q 212 245 199 307 q 252 137 225 184 q 320 62 279 90 q 416 33 361 33 q 509 58 471 33 q 570 123 547 83 q 604 216 593 164 q 614 323 614 269 q 602 447 614 386 q 566 556 591 508 q 501 634 541 604 q 406 664 461 664 m 406 717 q 543 690 479 717 q 653 616 606 663 q 728 504 701 569 q 755 364 755 439 q 729 213 755 283 q 655 90 702 142 q 544 8 608 38 q 406 -22 479 -22 q 269 4 332 -22 q 158 77 205 30 q 84 188 111 123 q 57 330 57 253 q 84 483 57 412 q 157 606 111 554 q 268 687 204 658 q 406 717 332 717 z "},"p":{"ha":829,"x_min":40,"x_max":770,"o":"m 133 528 q 134 572 133 549 q 138 618 134 594 l 40 612 l 40 671 q 114 674 85 671 q 160 682 142 677 q 186 694 177 688 q 203 708 196 701 l 244 708 q 247 676 245 694 q 250 633 248 658 q 296 667 271 652 q 350 694 321 683 q 407 711 378 705 q 465 717 436 717 q 581 693 526 717 q 678 625 636 669 q 745 516 720 581 q 770 372 770 452 q 757 260 770 313 q 720 164 744 208 q 664 86 696 121 q 591 27 631 52 q 508 -9 552 3 q 416 -22 463 -22 q 250 23 320 -22 l 250 -207 q 249 -256 250 -235 q 244 -301 248 -277 l 332 -297 l 332 -354 l 48 -354 l 48 -313 q 97 -300 80 -313 q 120 -265 113 -288 q 129 -212 127 -243 q 130 -143 130 -180 l 133 528 m 416 649 q 368 643 391 649 q 324 626 345 636 q 284 601 303 615 q 252 571 266 587 q 252 558 252 566 q 252 534 252 551 q 252 487 252 517 q 252 404 252 456 q 251 275 252 352 q 251 87 251 197 q 327 47 286 62 q 414 33 368 33 q 503 57 463 33 q 570 123 542 81 q 612 223 597 165 q 627 351 627 281 q 615 460 627 407 q 578 556 604 514 q 513 624 553 598 q 416 649 473 649 z "},"q":{"ha":800,"x_min":58,"x_max":779,"o":"m 697 -207 q 696 -256 697 -235 q 692 -301 696 -277 l 779 -297 l 779 -354 l 496 -354 l 496 -313 q 544 -300 528 -313 q 568 -265 561 -288 q 577 -212 576 -243 q 578 -143 578 -180 l 578 65 q 489 1 541 24 q 370 -22 436 -22 q 248 3 304 -22 q 149 74 191 28 q 82 185 106 120 q 58 332 58 251 q 86 490 58 418 q 163 611 115 561 q 276 689 211 662 q 415 717 341 717 q 494 708 458 717 q 560 692 530 699 q 614 686 590 685 q 657 708 639 688 l 696 708 l 697 -207 m 419 46 q 507 70 465 46 q 578 134 549 94 l 578 498 q 570 572 578 541 q 543 624 562 604 q 493 655 524 645 q 418 666 463 666 q 327 644 368 666 q 259 583 287 623 q 216 488 231 543 q 201 366 201 433 q 216 240 201 298 q 259 139 231 182 q 327 71 287 96 q 419 46 368 46 z "},"r":{"ha":602,"x_min":50,"x_max":592,"o":"m 460 641 q 406 631 433 642 q 353 600 379 621 q 304 551 327 580 q 262 488 281 523 l 264 147 q 263 98 264 119 q 258 53 262 77 l 346 57 l 346 0 l 61 0 l 61 41 q 110 54 93 41 q 134 89 126 66 q 142 142 141 111 q 143 211 143 174 l 143 528 q 144 572 143 550 q 149 618 144 594 l 50 614 l 50 671 l 93 671 q 142 674 123 671 q 175 682 162 677 q 197 694 189 688 q 214 708 206 701 l 254 708 q 258 654 256 686 q 261 571 260 622 q 301 623 277 597 q 356 670 326 649 q 422 704 387 690 q 494 717 457 717 q 531 712 513 717 q 563 696 549 707 q 584 669 576 685 q 592 629 592 652 q 588 608 592 620 q 576 587 585 597 q 555 570 568 576 q 523 563 542 563 q 495 570 507 563 q 474 587 482 576 q 461 611 465 597 q 460 641 458 625 z "},"s":{"ha":643,"x_min":72,"x_max":587,"o":"m 321 32 q 375 38 348 32 q 424 58 401 45 q 459 93 446 72 q 473 142 473 113 q 456 198 473 175 q 411 240 439 222 q 346 272 382 258 q 272 301 310 286 q 199 334 235 316 q 135 376 163 352 q 89 435 106 401 q 72 515 72 469 q 83 579 72 545 q 121 645 94 614 q 194 696 148 675 q 309 717 239 717 q 350 714 328 717 q 393 704 371 711 q 438 686 416 697 q 482 657 460 674 l 479 710 l 537 710 l 537 467 l 494 467 q 480 538 491 503 q 447 601 469 573 q 393 647 426 629 q 316 665 361 665 q 258 656 283 665 q 216 633 233 648 q 190 600 199 618 q 181 559 181 581 q 198 501 181 526 q 244 458 216 477 q 309 424 273 439 q 384 392 346 408 q 458 358 422 376 q 524 316 495 340 q 569 259 552 292 q 587 182 587 227 q 566 91 587 130 q 510 27 545 52 q 433 -10 476 2 q 346 -22 390 -22 q 222 -4 275 -22 q 134 39 168 15 l 138 -9 l 80 -9 l 72 229 l 115 229 q 135 150 117 186 q 180 87 152 113 q 244 46 208 61 q 321 32 281 32 z "},"t":{"ha":538,"x_min":29,"x_max":532,"o":"m 29 694 q 96 714 66 695 q 148 763 125 734 q 186 825 171 791 q 211 889 202 859 l 258 889 q 258 785 258 833 q 258 694 258 737 l 492 694 l 492 640 l 258 637 q 257 484 257 547 q 257 377 257 420 q 256 310 256 334 q 256 272 256 285 q 256 255 256 259 q 256 251 256 252 q 261 167 256 203 q 278 106 266 131 q 310 69 290 81 q 361 56 330 56 q 432 78 397 56 q 494 140 467 100 l 532 109 q 471 37 501 63 q 414 -2 441 11 q 363 -19 387 -16 q 322 -22 340 -22 q 279 -19 301 -22 q 236 -6 257 -16 q 196 22 214 4 q 163 68 177 40 q 140 138 149 97 q 133 234 132 178 l 136 635 l 29 635 l 29 694 z "},"u":{"ha":829,"x_min":36,"x_max":789,"o":"m 576 512 q 578 570 576 546 q 583 618 579 594 l 484 614 l 484 671 l 526 671 q 577 674 556 671 q 613 682 598 677 q 638 694 628 688 q 656 708 648 701 l 696 708 l 694 183 q 694 156 694 172 q 693 121 694 139 q 691 85 692 103 q 689 53 690 67 l 789 58 l 789 0 l 590 0 q 584 44 587 24 q 581 83 582 64 q 532 42 559 62 q 476 9 506 23 q 416 -14 447 -5 q 354 -22 385 -22 q 254 -7 297 -22 q 183 43 212 8 q 140 137 155 79 q 126 281 126 195 l 126 528 q 127 572 126 549 q 132 618 127 594 l 36 614 l 36 671 l 79 671 q 130 674 109 671 q 165 682 151 677 q 190 694 180 688 q 208 708 200 701 l 248 708 l 248 285 q 256 180 248 224 q 282 106 264 136 q 329 63 300 77 q 399 49 357 49 q 451 58 425 49 q 499 81 476 66 q 542 115 522 96 q 576 156 562 134 l 576 214 l 576 512 z "},"v":{"ha":701,"x_min":8,"x_max":697,"o":"m 380 -4 l 325 -4 l 126 449 q 98 519 109 488 q 80 573 87 549 q 71 613 74 596 q 68 642 68 629 l 8 637 l 8 694 l 264 694 l 264 653 q 218 640 232 653 q 203 606 204 627 q 210 557 201 585 q 232 498 218 529 l 338 254 q 359 204 349 231 q 380 152 370 178 l 382 152 q 398 195 389 172 q 414 241 406 218 l 525 546 q 548 604 536 579 q 566 642 560 629 l 477 637 l 477 694 l 697 694 l 697 653 q 657 641 674 653 q 625 606 640 629 q 595 547 610 583 q 562 465 581 512 l 380 -4 z "},"w":{"ha":1112,"x_min":8,"x_max":1111,"o":"m 8 694 l 302 694 l 302 653 q 255 641 271 652 q 234 610 239 629 q 233 563 229 590 q 250 503 238 536 l 359 174 q 533 694 519 649 l 590 694 l 775 164 q 927 602 918 577 q 950 642 937 627 l 869 637 l 869 694 l 1111 694 l 1111 653 q 1052 643 1075 651 q 1014 620 1029 634 q 989 587 999 606 q 970 543 979 568 l 770 -4 l 715 -4 l 533 522 l 353 -4 l 300 -4 l 118 529 q 94 599 102 573 q 82 642 85 625 l 8 637 l 8 694 z "},"x":{"ha":736,"x_min":31,"x_max":721,"o":"m 31 694 l 317 694 l 317 653 q 268 645 286 652 q 246 624 250 638 q 254 585 243 609 q 290 526 264 562 l 371 416 q 559 643 545 629 l 464 637 l 464 694 l 692 694 l 692 653 q 642 633 663 645 q 601 604 621 621 q 406 376 582 587 l 597 138 q 628 98 613 118 q 658 53 642 79 l 721 57 l 721 0 l 452 0 l 452 41 q 482 45 469 41 q 501 57 495 49 q 504 79 507 66 q 486 110 500 92 l 340 290 q 192 88 198 96 q 178 72 185 80 q 160 53 170 64 l 267 57 l 267 0 l 33 0 l 33 41 q 71 56 54 47 q 101 78 87 64 q 304 335 116 92 q 118 592 133 563 q 96 641 103 621 l 31 637 l 31 694 z "},"y":{"ha":733,"x_min":5,"x_max":728,"o":"m 179 -304 q 195 -307 186 -307 q 226 -297 207 -307 q 265 -252 245 -286 q 308 -161 283 -222 q 363 -16 332 -100 q 115 519 127 488 q 93 572 102 549 q 80 612 85 595 q 73 641 75 629 l 5 637 l 5 694 l 293 694 l 293 653 l 287 652 q 242 640 258 650 q 224 609 227 629 q 228 556 220 589 q 418 140 235 524 q 572 583 563 562 q 590 621 581 605 q 606 643 598 637 l 510 637 l 510 694 l 728 694 l 728 653 q 683 627 702 643 q 650 588 665 611 q 624 536 636 566 q 425 -12 612 507 q 367 -168 393 -100 q 312 -282 340 -236 q 249 -352 283 -328 q 168 -376 214 -376 q 127 -371 146 -376 q 94 -356 109 -366 q 72 -329 80 -345 q 64 -292 64 -313 q 68 -267 64 -279 q 80 -245 72 -255 q 99 -230 87 -236 q 123 -224 110 -224 q 151 -231 140 -224 q 169 -246 162 -237 q 178 -266 176 -256 q 181 -285 181 -277 q 181 -294 181 -289 q 179 -304 180 -299 z "},"z":{"ha":710,"x_min":56,"x_max":649,"o":"m 56 0 l 56 57 q 487 610 476 598 q 506 632 497 623 q 522 646 515 642 l 261 642 q 197 625 222 641 q 157 583 172 610 q 134 521 142 557 q 119 446 125 486 l 77 446 l 93 694 l 637 694 l 637 650 l 246 135 q 230 114 237 123 q 214 95 222 104 q 196 77 205 86 q 174 57 186 68 l 441 53 q 514 68 485 52 q 562 111 543 83 q 592 174 581 138 q 608 253 602 211 l 649 253 l 632 0 l 56 0 z "},"{":{"ha":464,"x_min":9,"x_max":447,"o":"m 130 364 q 188 344 160 358 q 238 306 216 330 q 273 250 260 283 q 286 174 286 217 q 285 135 286 157 q 281 88 283 113 q 271 -32 273 -15 q 269 -61 270 -50 q 268 -81 269 -73 q 268 -98 268 -90 q 275 -202 268 -157 q 302 -277 283 -247 q 355 -322 321 -307 q 439 -338 388 -338 l 447 -338 l 447 -376 l 408 -376 q 289 -357 337 -376 q 213 -301 241 -338 q 173 -208 184 -264 q 161 -79 161 -153 q 163 -13 161 -49 q 168 58 165 22 q 173 128 170 94 q 175 189 175 162 q 169 251 175 224 q 147 295 162 277 q 106 321 132 312 q 41 330 80 330 l 9 330 l 9 401 l 41 401 q 106 409 80 401 q 147 433 132 417 q 169 475 162 450 q 175 536 175 500 q 168 649 175 591 q 161 769 161 707 q 173 896 161 842 q 213 985 184 950 q 289 1038 241 1021 q 408 1055 337 1055 l 447 1055 l 447 1008 l 431 1008 q 351 995 382 1008 q 301 955 319 982 q 275 887 282 928 q 268 789 268 846 q 269 763 268 777 q 271 734 269 749 l 279 640 q 285 585 283 607 q 286 551 287 564 q 273 476 286 508 q 238 421 260 444 q 188 386 216 399 q 130 367 160 372 l 130 364 l 130 364 z "},"|":{"ha":321,"x_min":110,"x_max":214,"o":"m 214 1055 l 208 -376 l 114 -376 l 110 1055 l 214 1055 z "},"}":{"ha":464,"x_min":17,"x_max":454,"o":"m 334 364 l 334 367 q 276 386 304 372 q 226 421 248 399 q 191 476 204 444 q 178 551 178 508 q 179 585 177 564 q 184 640 181 607 l 193 734 q 195 763 195 749 q 196 789 196 777 q 189 887 196 846 q 163 955 182 928 q 113 995 144 982 q 33 1008 81 1008 l 17 1008 l 17 1055 l 56 1055 q 175 1038 127 1055 q 251 985 222 1021 q 291 896 279 950 q 303 769 303 842 q 296 649 303 707 q 289 536 289 591 q 295 475 289 500 q 317 433 302 450 q 358 409 332 417 q 422 401 384 401 l 454 401 l 454 330 l 422 330 q 358 321 384 330 q 317 295 332 312 q 295 251 302 277 q 289 189 289 224 q 291 128 289 162 q 296 58 294 94 q 301 -13 298 22 q 303 -79 303 -49 q 291 -208 303 -153 q 251 -301 279 -264 q 175 -357 222 -338 q 56 -376 127 -376 l 17 -376 l 17 -338 l 25 -338 q 109 -322 76 -338 q 162 -277 142 -307 q 189 -202 181 -247 q 196 -98 196 -157 q 196 -81 196 -90 q 195 -61 195 -73 q 193 -32 194 -50 q 182 88 191 -15 q 179 135 180 113 q 178 174 178 157 q 191 250 178 217 q 226 306 204 283 q 276 344 248 330 q 334 364 304 358 z "},"~":{"ha":806,"x_min":94,"x_max":711,"o":"m 265 425 q 214 420 237 425 q 170 405 191 414 q 132 384 150 396 q 94 358 113 372 l 94 446 q 136 477 116 463 q 177 500 156 491 q 220 515 197 510 q 271 519 243 519 q 336 512 308 519 q 385 492 363 504 q 425 467 407 481 q 461 441 443 453 q 502 422 480 430 q 551 414 523 414 q 638 432 597 414 q 711 481 678 450 l 711 393 q 642 341 683 361 q 546 321 601 321 q 485 329 511 321 q 436 348 458 336 q 395 373 414 359 q 357 398 376 387 q 315 417 337 410 q 265 425 293 425 z "},"":{"ha":338,"x_min":87,"x_max":250,"o":"m 87 628 q 94 663 87 646 q 113 691 101 679 q 139 710 124 703 q 170 717 153 717 q 200 710 186 717 q 226 691 215 703 q 244 663 237 679 q 250 628 250 646 q 243 592 250 609 q 225 564 237 576 q 199 544 214 551 q 168 537 184 537 q 136 544 151 537 q 111 564 121 551 q 94 592 100 576 q 87 628 87 609 m 143 375 l 195 375 l 249 -198 q 246 -235 250 -216 q 231 -267 241 -253 q 205 -291 221 -282 q 168 -300 190 -300 q 130 -291 146 -300 q 105 -267 115 -282 q 91 -235 95 -253 q 89 -198 87 -216 l 143 375 z "},"":{"ha":737,"x_min":50,"x_max":685,"o":"m 562 592 q 534 631 552 616 q 494 654 515 646 q 452 664 473 662 q 416 667 431 667 q 327 647 368 667 q 256 590 286 628 q 209 496 227 552 q 192 369 192 441 q 209 241 192 300 q 258 139 227 182 q 333 72 289 96 q 431 48 377 48 q 495 58 463 48 q 555 83 527 67 q 608 122 584 100 q 649 169 632 144 l 685 141 q 630 74 661 103 q 565 25 599 45 q 496 -6 531 5 q 427 -22 460 -18 l 427 -186 l 346 -186 l 345 -22 q 229 13 283 -15 q 136 86 176 41 q 73 195 96 132 q 50 335 50 258 q 72 463 50 399 q 132 578 93 526 q 226 668 171 631 q 348 717 281 705 l 347 864 l 437 864 l 436 717 q 532 699 489 713 q 606 661 575 684 q 653 608 636 637 q 669 547 669 578 q 665 518 669 532 q 652 495 661 505 q 632 479 644 485 q 605 473 621 473 q 574 479 587 473 q 555 495 562 486 q 544 515 547 505 q 541 536 541 526 q 545 564 541 549 q 562 592 549 579 z "},"":{"ha":761,"x_min":65,"x_max":713,"o":"m 534 873 q 499 921 527 901 q 422 942 471 942 q 353 926 382 942 q 304 882 323 909 q 274 820 284 855 q 264 746 264 785 q 268 679 264 711 q 275 616 271 646 q 286 557 280 586 q 298 500 292 528 l 508 500 l 508 433 l 309 433 q 315 383 313 408 q 317 330 317 357 q 298 243 317 286 q 245 163 278 201 q 281 167 263 165 q 317 168 299 168 q 403 155 363 168 q 478 126 444 142 q 543 98 513 111 q 595 85 572 85 q 647 106 627 85 q 670 172 667 127 l 713 172 q 702 95 712 130 q 675 33 692 59 q 631 -8 657 7 q 572 -22 605 -22 q 515 -13 543 -22 q 461 12 488 -3 q 408 44 434 27 q 354 77 381 62 q 297 101 326 92 q 237 111 269 111 q 215 110 223 111 q 202 59 212 83 q 179 17 193 35 q 150 -12 166 -1 q 117 -22 134 -22 q 79 -6 92 -22 q 65 29 65 9 q 74 66 65 48 q 99 101 83 85 q 137 130 115 117 q 186 150 159 142 q 212 206 201 174 q 222 277 222 238 q 215 359 222 321 q 197 433 208 396 l 87 433 l 87 500 l 179 500 q 161 586 169 541 q 154 690 154 631 q 173 816 154 760 q 227 912 193 872 q 308 973 260 951 q 411 995 355 995 q 514 979 472 995 q 581 938 555 962 q 617 885 606 913 q 628 833 628 857 q 613 791 628 809 q 572 772 599 772 q 546 778 557 772 q 529 791 536 783 q 519 809 522 800 q 517 827 517 819 q 520 848 517 834 q 534 873 523 861 z "},"":{"ha":743,"x_min":85,"x_max":660,"o":"m 141 662 l 216 568 q 286 608 247 593 q 372 623 325 623 q 457 608 419 623 q 528 568 496 594 l 604 662 l 660 617 l 574 519 q 614 440 601 484 q 628 353 628 397 q 615 269 628 311 q 578 193 603 227 l 660 100 l 604 56 l 532 145 q 461 107 501 121 q 372 94 420 94 q 283 107 323 94 q 212 144 243 121 l 141 56 l 85 100 l 166 193 q 129 269 141 227 q 117 353 117 311 q 130 440 117 397 q 170 520 144 484 l 85 617 l 141 662 m 372 573 q 326 563 347 573 q 291 537 306 553 q 265 501 275 522 q 248 458 254 480 q 239 415 241 436 q 236 376 236 393 q 242 303 236 342 q 263 229 248 263 q 304 171 278 194 q 372 148 331 148 q 440 171 414 148 q 482 229 467 194 q 503 303 497 263 q 509 376 509 342 q 502 436 509 402 q 479 501 495 471 q 438 552 464 531 q 372 573 412 573 z "},"":{"ha":979,"x_min":39,"x_max":941,"o":"m 263 439 l 400 439 l 200 757 q 147 850 164 812 q 125 914 130 888 l 39 911 l 39 972 l 397 972 l 397 926 q 313 910 338 926 q 288 865 288 894 q 297 824 288 846 q 323 775 307 802 q 372 697 349 734 q 418 624 395 660 q 466 550 441 587 q 521 472 491 513 l 524 472 q 570 563 548 519 q 614 646 593 606 q 657 727 636 687 q 701 810 679 768 q 713 833 706 820 q 729 862 720 847 q 748 891 738 877 q 768 916 758 905 l 658 911 l 658 972 l 941 972 l 941 926 q 880 913 907 924 q 829 879 852 901 q 783 824 805 857 q 737 747 761 791 l 573 437 l 742 437 l 742 378 l 561 376 l 560 288 l 742 288 l 742 228 l 560 227 q 561 165 560 165 q 557 56 561 91 l 672 61 l 672 0 l 346 0 l 346 46 q 397 57 378 47 q 426 84 416 67 q 438 123 435 100 q 440 174 440 146 l 440 225 l 263 225 l 263 289 l 441 289 l 441 375 l 263 375 l 263 439 z "},"":{"ha":338,"x_min":117,"x_max":220,"o":"m 220 1055 l 215 535 l 121 535 l 117 1055 l 220 1055 m 220 140 l 215 -376 l 121 -376 l 117 140 l 220 140 z "},"":{"ha":741,"x_min":53,"x_max":689,"o":"m 160 473 q 178 385 160 423 q 227 317 197 347 q 297 262 258 287 q 378 214 336 237 q 461 166 420 191 q 536 112 502 142 q 572 182 559 142 q 584 261 584 222 q 565 349 584 311 q 516 416 547 387 q 446 471 486 446 q 365 519 407 496 q 282 567 323 543 q 208 621 241 591 q 172 551 184 590 q 160 473 160 512 m 115 -139 q 120 -113 115 -125 q 132 -90 124 -100 q 152 -74 140 -80 q 178 -68 163 -68 q 204 -74 193 -68 q 221 -88 214 -79 q 231 -108 228 -97 q 233 -130 233 -119 q 229 -151 233 -138 q 218 -173 225 -163 q 231 -207 219 -191 q 262 -235 243 -222 q 306 -256 281 -248 q 357 -263 330 -263 q 438 -249 405 -263 q 491 -213 471 -235 q 519 -165 511 -191 q 528 -117 528 -140 q 508 -46 528 -77 q 454 13 488 -14 q 378 65 420 40 q 291 116 335 90 q 203 172 246 142 q 127 238 161 201 q 73 319 94 274 q 53 422 53 364 q 61 482 53 451 q 85 542 69 513 q 124 600 101 572 q 176 652 146 628 q 133 723 149 683 q 117 808 117 764 q 123 860 117 832 q 140 915 128 888 q 173 967 153 942 q 222 1013 193 993 q 290 1044 251 1032 q 378 1055 328 1055 q 480 1040 434 1055 q 558 1000 526 1025 q 609 945 591 976 q 627 883 627 914 q 623 859 627 870 q 612 838 619 847 q 594 824 604 829 q 569 819 583 819 q 541 824 551 819 q 523 839 530 830 q 514 857 517 847 q 511 876 511 867 q 514 899 511 884 q 528 922 518 913 q 507 954 521 939 q 475 980 494 969 q 433 996 456 990 q 384 1002 410 1002 q 303 987 336 1002 q 251 950 271 972 q 222 901 231 927 q 213 851 213 874 q 233 780 213 812 q 287 722 254 749 q 363 669 321 694 q 451 618 406 644 q 538 563 496 592 q 615 497 581 533 q 669 415 648 460 q 689 313 689 370 q 681 252 689 283 q 657 191 673 221 q 618 133 641 161 q 566 81 595 105 q 608 13 592 50 q 624 -74 624 -25 q 618 -123 624 -96 q 600 -176 612 -149 q 567 -229 587 -203 q 518 -273 547 -254 q 451 -305 489 -293 q 363 -317 412 -317 q 255 -301 302 -317 q 178 -259 209 -285 q 131 -202 147 -234 q 115 -139 115 -171 z "},"":{"ha":538,"x_min":83,"x_max":454,"o":"m 222 928 q 216 897 222 911 q 201 870 210 882 q 179 853 191 859 q 153 846 166 846 q 126 853 138 846 q 104 870 113 859 q 89 897 94 882 q 83 928 83 911 q 89 961 83 945 q 104 988 95 977 q 127 1006 114 999 q 153 1013 140 1013 q 181 1006 168 1013 q 202 988 193 999 q 217 961 212 977 q 222 928 222 945 m 454 928 q 448 897 454 911 q 433 870 442 882 q 411 853 423 859 q 385 846 398 846 q 358 853 370 846 q 336 870 345 859 q 321 897 326 882 q 315 928 315 911 q 321 961 315 945 q 336 988 327 977 q 359 1006 346 999 q 385 1013 372 1013 q 413 1006 400 1013 q 434 988 425 999 q 449 961 444 977 q 454 928 454 945 z "},"":{"ha":1218,"x_min":61,"x_max":1160,"o":"m 61 484 q 80 631 61 560 q 133 765 98 703 q 216 878 167 827 q 327 965 265 928 q 459 1022 388 1002 q 611 1042 531 1042 q 764 1022 692 1042 q 897 965 836 1002 q 1006 878 958 928 q 1089 765 1055 827 q 1141 631 1123 703 q 1160 484 1160 560 q 1140 337 1160 408 q 1085 205 1120 267 q 999 93 1049 144 q 887 7 949 43 q 755 -49 826 -29 q 608 -69 685 -69 q 384 -28 485 -69 q 211 87 283 14 q 100 262 140 161 q 61 484 61 363 m 155 484 q 169 359 155 420 q 210 244 183 298 q 277 146 237 191 q 368 68 317 101 q 480 18 418 36 q 612 0 541 0 q 742 18 682 0 q 853 68 803 36 q 944 146 904 101 q 1011 244 984 191 q 1054 359 1039 298 q 1068 484 1068 420 q 1053 609 1068 548 q 1010 725 1038 671 q 942 825 982 779 q 850 904 901 871 q 738 956 799 937 q 608 974 677 974 q 480 956 541 974 q 370 904 420 937 q 279 825 319 871 q 212 725 239 779 q 169 609 184 671 q 155 484 155 548 m 627 757 q 548 740 587 757 q 479 691 509 724 q 430 610 448 659 q 411 497 411 561 q 429 390 411 439 q 479 306 447 341 q 557 250 512 270 q 657 229 602 229 q 707 236 680 229 q 761 257 734 243 q 812 289 787 270 q 857 332 838 308 l 899 283 q 831 214 868 241 q 756 171 794 186 q 683 148 719 155 q 617 142 646 142 q 483 168 545 142 q 377 240 422 194 q 306 348 332 286 q 281 481 281 410 q 291 564 281 522 q 319 645 300 606 q 367 718 338 684 q 433 778 395 752 q 518 818 471 803 q 621 832 566 832 q 719 817 672 832 q 802 775 766 801 l 798 825 l 867 825 l 867 591 l 811 591 q 790 668 806 637 q 749 720 774 700 q 694 748 725 739 q 627 757 663 757 z "},"":{"ha":568,"x_min":75,"x_max":511,"o":"m 347 747 q 284 741 315 747 q 229 723 254 735 q 189 692 204 711 q 174 647 174 673 q 184 611 174 625 q 206 593 194 598 q 228 587 218 587 q 237 587 237 587 q 293 601 266 587 q 345 638 321 614 l 347 747 m 98 867 q 111 913 98 890 q 149 955 125 937 q 206 984 173 972 q 278 995 239 995 q 393 955 353 995 q 433 829 433 915 l 432 674 q 442 611 431 631 q 471 591 452 591 q 496 602 480 591 l 511 576 q 495 560 505 568 q 473 546 486 552 q 448 535 461 539 q 422 531 435 531 q 391 536 404 531 q 369 550 378 541 q 356 569 361 558 q 348 590 351 579 q 289 545 322 562 q 212 528 255 528 q 110 557 144 528 q 75 631 75 587 q 101 704 75 673 q 166 753 126 734 q 254 782 205 772 q 347 791 302 791 l 347 838 q 345 879 347 859 q 334 915 343 899 q 308 939 326 930 q 259 948 290 948 q 233 944 246 948 q 208 933 220 941 q 188 917 197 926 q 176 895 180 907 q 187 861 187 882 q 185 847 187 854 q 177 833 182 840 q 163 822 172 827 q 142 818 155 818 q 110 832 121 818 q 98 867 98 847 z "},"":{"ha":736,"x_min":44,"x_max":659,"o":"m 44 366 l 44 372 l 425 762 l 467 718 l 194 366 l 194 364 l 465 34 l 420 -10 l 44 366 m 340 370 l 340 374 l 615 645 l 659 604 l 491 378 l 491 376 l 656 148 l 612 107 l 340 370 z "},"":{"ha":822,"x_min":102,"x_max":720,"o":"m 102 478 l 720 475 l 720 218 l 649 218 l 644 394 l 102 392 l 102 478 z "},"":{"ha":679,"x_min":93,"x_max":586,"o":"m 93 493 l 586 493 l 586 401 l 93 396 l 93 493 z "},"":{"ha":1219,"x_min":61,"x_max":1160,"o":"m 61 484 q 79 632 61 560 q 132 765 98 703 q 216 878 167 827 q 326 965 264 929 q 459 1022 387 1002 q 611 1042 531 1042 q 765 1022 692 1042 q 898 965 837 1002 q 1007 878 959 929 q 1090 765 1056 827 q 1142 632 1124 703 q 1160 484 1160 560 q 1140 336 1160 407 q 1085 204 1121 265 q 1000 92 1050 142 q 888 6 949 41 q 756 -50 827 -30 q 608 -69 686 -69 q 384 -28 484 -69 q 211 86 283 13 q 100 261 139 160 q 61 484 61 363 m 156 484 q 170 358 156 419 q 211 244 184 298 q 277 146 238 191 q 367 70 317 102 q 479 19 418 37 q 612 1 541 1 q 743 19 682 1 q 854 70 804 37 q 944 146 905 102 q 1011 244 984 191 q 1054 358 1039 298 q 1068 484 1068 419 q 1053 609 1068 548 q 1010 725 1038 671 q 942 826 983 780 q 850 904 901 871 q 739 956 800 937 q 608 974 677 974 q 480 956 540 974 q 370 904 420 937 q 280 826 319 871 q 213 725 240 780 q 171 609 185 671 q 156 484 156 548 m 518 313 q 517 272 518 289 q 515 241 517 254 l 585 244 l 585 189 l 349 189 l 349 236 q 388 245 374 237 q 408 268 401 253 q 415 302 414 282 q 416 347 416 323 l 416 710 q 416 746 416 728 q 418 777 416 763 l 349 770 l 349 828 q 398 830 370 829 q 455 832 425 831 q 514 833 484 833 q 570 834 543 834 q 702 821 646 834 q 793 783 758 807 q 846 724 829 758 q 863 650 863 690 q 854 600 863 627 q 827 546 846 572 q 775 498 807 520 q 694 463 743 476 l 694 461 q 720 443 705 456 q 753 404 735 429 q 818 311 792 345 q 862 259 844 277 q 895 236 881 241 q 924 231 909 231 l 924 183 l 803 183 q 758 217 782 189 q 699 294 733 245 q 642 377 668 337 q 594 448 615 418 q 565 446 584 446 q 538 447 551 446 q 518 449 526 448 l 518 313 m 518 507 l 519 507 q 543 505 531 506 q 568 505 555 505 q 603 507 583 505 q 643 515 623 509 q 684 532 664 522 q 720 557 704 542 q 745 595 735 573 q 754 646 754 616 q 741 701 754 677 q 707 741 728 725 q 658 766 686 758 q 601 774 630 774 q 551 766 568 774 q 527 742 534 758 q 519 705 519 727 q 518 657 518 684 l 518 507 z "},"":{"ha":493,"x_min":62,"x_max":431,"o":"m 62 972 l 431 972 l 431 895 l 62 889 l 62 972 z "},"":{"ha":562,"x_min":65,"x_max":497,"o":"m 153 779 q 162 724 153 750 q 188 677 171 697 q 229 645 205 656 q 281 633 252 633 q 334 645 310 633 q 374 677 357 656 q 400 724 391 697 q 410 779 410 750 q 400 833 410 807 q 374 881 391 860 q 333 913 357 901 q 280 926 309 926 q 228 913 252 926 q 188 881 205 901 q 162 833 171 860 q 153 779 153 807 m 65 779 q 82 863 65 824 q 130 932 100 903 q 199 978 159 961 q 283 995 239 995 q 371 978 332 995 q 439 932 411 961 q 482 863 467 903 q 497 779 497 824 q 479 694 497 733 q 432 625 462 654 q 362 578 402 595 q 279 562 323 562 q 191 578 230 562 q 123 625 151 595 q 80 694 95 654 q 65 779 65 733 z "},"":{"ha":800,"x_min":90,"x_max":709,"o":"m 90 500 l 354 498 l 354 717 l 444 717 l 444 498 l 709 497 l 709 419 l 444 418 l 444 187 l 354 187 l 354 417 l 90 416 l 90 500 m 709 4 l 90 4 l 90 76 l 709 82 l 709 4 z "},"":{"ha":534,"x_min":85,"x_max":440,"o":"m 162 889 q 175 857 175 878 q 173 844 175 851 q 166 831 171 837 q 153 821 161 825 q 134 817 145 817 q 105 829 116 817 q 94 861 94 842 q 105 905 94 882 q 138 948 117 928 q 192 982 160 968 q 267 995 224 995 q 329 986 299 995 q 382 959 359 977 q 419 913 406 941 q 433 846 433 885 q 428 804 433 826 q 405 756 422 782 q 356 700 388 730 q 271 630 323 669 q 161 503 178 562 l 278 500 q 306 499 292 500 q 331 499 319 499 q 364 501 349 499 q 389 509 379 503 q 405 527 399 515 q 411 556 411 538 l 440 556 l 440 425 l 85 425 q 98 504 85 469 q 134 571 111 540 q 185 630 156 602 q 248 684 215 657 q 294 730 277 707 q 321 773 311 753 q 333 812 330 794 q 336 845 336 831 q 314 917 336 890 q 249 945 292 945 q 217 940 232 945 q 191 928 203 935 q 172 910 180 920 q 162 889 165 900 z "},"":{"ha":514,"x_min":75,"x_max":441,"o":"m 75 548 q 87 584 75 570 q 121 599 99 599 q 139 595 132 599 q 152 584 147 591 q 159 570 157 578 q 161 554 161 562 q 158 538 161 547 q 151 524 155 530 q 161 500 153 510 q 181 484 169 490 q 208 474 193 477 q 239 471 223 471 q 286 481 266 471 q 320 508 307 492 q 340 546 333 525 q 347 588 347 566 q 342 626 347 605 q 327 665 338 646 q 290 696 315 684 q 233 708 266 708 q 194 707 215 708 l 194 751 l 210 751 q 273 762 250 751 q 308 790 296 774 q 322 823 319 806 q 326 852 326 840 q 321 886 326 869 q 307 917 317 903 q 280 940 296 931 q 239 949 263 949 q 182 931 203 949 q 157 893 161 913 q 170 863 170 881 q 168 849 170 857 q 160 836 165 842 q 148 826 155 830 q 128 822 140 822 q 100 836 110 822 q 90 867 90 850 q 100 908 90 886 q 131 950 111 930 q 182 982 151 969 q 254 995 213 995 q 319 985 290 995 q 369 958 349 976 q 401 916 390 941 q 413 860 413 890 q 406 824 413 842 q 384 788 398 805 q 347 758 369 771 q 296 736 325 744 l 296 735 q 359 719 332 732 q 404 686 386 706 q 432 641 422 667 q 441 588 441 616 q 428 524 441 554 q 390 472 414 494 q 329 437 365 450 q 247 424 292 424 q 173 435 205 424 q 119 464 141 446 q 86 504 98 481 q 75 548 75 526 z "},"":{"ha":350,"x_min":62,"x_max":287,"o":"m 101 806 l 62 838 l 179 1025 q 210 1055 195 1047 q 236 1063 225 1063 q 258 1058 248 1063 q 275 1045 269 1054 q 284 1029 282 1036 q 287 1013 287 1021 q 285 998 287 1005 q 281 987 283 991 q 257 953 275 971 l 101 806 z "},"":{"ha":852,"x_min":131,"x_max":817,"o":"m 682 694 l 681 196 q 685 135 681 160 q 698 95 690 111 q 718 73 706 80 q 743 66 729 66 q 769 72 756 66 q 802 90 783 77 l 817 69 q 794 43 808 57 q 762 18 780 29 q 722 -1 744 7 q 677 -8 701 -8 q 633 -1 651 -8 q 602 18 615 6 q 582 46 589 31 q 570 78 574 62 q 526 39 551 58 q 473 7 501 21 q 416 -15 446 -7 q 356 -22 386 -22 q 265 7 303 -22 q 199 90 227 37 q 214 -39 206 14 q 229 -128 222 -92 q 243 -187 237 -164 q 255 -227 250 -210 q 263 -256 260 -243 q 266 -286 266 -269 q 262 -313 266 -299 q 250 -337 258 -326 q 230 -354 242 -347 q 202 -361 218 -361 q 147 -329 163 -361 q 131 -241 131 -296 l 132 694 l 249 694 l 249 328 q 255 217 249 269 q 278 129 261 166 q 323 70 294 92 q 397 49 352 49 q 447 57 423 49 q 493 78 471 64 q 533 110 515 92 q 564 148 551 127 l 564 694 l 682 694 z "},"":{"ha":696,"x_min":46,"x_max":558,"o":"m 558 972 l 555 -354 l 458 -354 l 461 916 l 340 911 l 336 -354 l 239 -354 l 242 568 q 173 582 208 570 q 110 618 138 594 q 64 680 81 642 q 46 770 46 717 q 63 858 46 820 q 108 921 80 896 q 171 960 136 947 q 243 972 206 972 l 558 972 z "},"":{"ha":347,"x_min":93,"x_max":255,"o":"m 255 455 q 248 420 255 437 q 230 392 241 404 q 204 373 219 380 q 174 366 190 366 q 143 373 157 366 q 117 392 128 380 q 99 420 106 404 q 93 455 93 437 q 100 491 93 474 q 118 519 106 507 q 144 539 129 532 q 175 546 159 546 q 207 539 192 546 q 232 519 221 532 q 249 491 243 507 q 255 455 255 474 z "},"":{"ha":406,"x_min":62,"x_max":343,"o":"m 250 -79 q 318 -103 293 -79 q 343 -170 343 -127 q 330 -220 343 -198 q 294 -260 316 -243 q 242 -290 271 -277 q 183 -311 214 -302 q 124 -326 153 -320 q 71 -335 94 -332 l 62 -288 q 128 -272 98 -282 q 181 -249 159 -262 q 216 -219 203 -236 q 229 -182 229 -203 q 216 -151 229 -160 q 185 -141 203 -141 q 153 -146 170 -141 q 122 -161 136 -152 l 75 -138 l 115 11 l 193 11 l 155 -103 q 201 -85 175 -91 q 250 -79 227 -79 z "},"":{"ha":393,"x_min":62,"x_max":321,"o":"m 105 457 q 140 465 126 457 q 161 487 153 473 q 171 519 168 500 q 174 559 174 538 l 174 895 l 170 895 l 84 843 l 62 882 l 217 995 l 252 995 l 253 517 q 252 488 253 501 q 250 463 252 474 l 321 465 l 321 418 l 105 418 l 105 457 l 105 457 z "},"":{"ha":582,"x_min":66,"x_max":516,"o":"m 288 948 q 238 934 262 948 q 199 897 214 920 q 176 843 184 873 q 168 776 168 812 q 175 701 168 736 q 199 637 183 665 q 239 593 215 610 q 296 577 263 577 q 350 590 327 577 q 388 627 372 604 q 411 681 404 650 q 419 747 419 711 q 412 823 419 786 q 389 887 404 859 q 349 931 373 915 q 288 948 326 948 m 294 995 q 383 978 342 995 q 453 932 423 962 q 499 860 482 902 q 516 768 516 819 q 499 671 516 715 q 453 595 483 627 q 382 546 423 564 q 291 528 340 528 q 202 545 243 528 q 131 591 161 562 q 84 661 101 621 q 66 751 66 702 q 84 847 66 802 q 132 925 101 892 q 204 976 162 958 q 294 995 245 995 z "},"":{"ha":734,"x_min":77,"x_max":692,"o":"m 692 385 l 692 380 l 311 -10 l 269 34 l 542 385 l 542 388 l 271 718 l 315 762 l 692 385 m 396 381 l 396 377 l 121 106 l 77 148 l 245 373 l 245 376 l 79 604 l 124 645 l 396 381 z "},"":{"ha":1060,"x_min":63,"x_max":1011,"o":"m 867 951 l 210 -22 l 157 14 l 806 995 l 867 951 m 106 457 q 140 465 127 457 q 161 487 154 473 q 172 519 169 500 q 174 559 174 538 l 174 895 l 171 895 l 85 843 l 63 882 l 218 995 l 252 995 l 254 517 q 253 488 254 501 q 251 463 252 474 l 321 465 l 321 418 l 106 418 l 106 457 l 106 457 m 990 0 l 786 0 l 786 40 q 821 48 807 41 q 842 67 834 55 q 852 95 849 79 q 854 132 854 112 l 854 146 l 619 146 l 619 187 l 896 571 l 932 571 l 932 196 l 1011 196 l 1011 146 l 933 146 l 933 45 l 990 47 l 990 0 m 684 201 l 854 198 l 854 436 l 852 436 l 684 201 z "},"":{"ha":1114,"x_min":62,"x_max":1051,"o":"m 865 951 l 208 -22 l 156 14 l 804 995 l 865 951 m 104 457 q 139 465 125 457 q 160 487 153 473 q 170 519 168 500 q 173 559 173 538 l 173 895 l 170 895 l 83 843 l 62 882 l 216 995 l 251 995 l 252 517 q 252 488 252 501 q 250 463 251 474 l 320 465 l 320 418 l 104 418 l 104 457 l 104 457 m 773 464 q 786 432 786 452 q 784 419 786 426 q 777 406 782 412 q 764 395 772 399 q 745 391 756 391 q 716 404 727 391 q 705 436 705 417 q 716 480 705 456 q 749 523 728 503 q 803 556 771 543 q 878 570 836 570 q 940 561 910 570 q 993 534 970 552 q 1030 488 1017 515 q 1044 421 1044 460 q 1039 379 1044 401 q 1016 331 1034 357 q 967 274 999 305 q 882 205 935 243 q 772 78 789 137 l 889 75 q 917 74 903 75 q 942 74 930 74 q 975 76 960 74 q 1000 84 990 78 q 1016 101 1010 90 q 1022 131 1022 113 l 1051 131 l 1051 0 l 696 0 q 709 79 696 43 q 745 146 722 115 q 797 204 767 177 q 859 258 826 232 q 905 305 888 282 q 932 348 922 328 q 944 387 941 369 q 947 420 947 406 q 925 492 947 465 q 860 519 903 519 q 828 515 843 519 q 802 503 814 510 q 783 485 791 495 q 773 464 776 475 z "},"":{"ha":1118,"x_min":49,"x_max":1094,"o":"m 947 951 l 290 -22 l 237 14 l 886 995 l 947 951 m 49 548 q 61 584 49 570 q 94 599 73 599 q 113 595 105 599 q 126 584 121 591 q 133 570 131 578 q 135 554 135 562 q 132 538 135 547 q 124 524 129 530 q 134 500 126 510 q 155 484 142 490 q 182 474 167 477 q 212 471 197 471 q 260 481 239 471 q 293 508 280 492 q 313 546 307 525 q 320 588 320 566 q 316 626 320 605 q 300 665 312 646 q 264 696 288 684 q 206 708 239 708 q 168 707 189 708 l 168 751 l 184 751 q 247 762 224 751 q 281 790 270 774 q 296 823 293 806 q 299 852 299 840 q 295 886 299 869 q 280 917 290 903 q 253 940 270 931 q 212 949 237 949 q 156 931 176 949 q 131 893 135 913 q 143 863 143 881 q 141 849 143 857 q 134 836 139 842 q 121 826 129 830 q 102 822 113 822 q 73 836 83 822 q 63 867 63 850 q 74 908 63 886 q 104 950 84 930 q 156 982 125 969 q 227 995 186 995 q 293 985 263 995 q 343 958 322 976 q 375 916 363 941 q 387 860 387 890 q 379 824 387 842 q 357 788 372 805 q 320 758 342 771 q 269 736 298 744 l 269 735 q 332 719 305 732 q 378 686 359 706 q 405 641 396 667 q 414 588 414 616 q 401 524 414 554 q 363 472 388 494 q 302 437 338 450 q 220 424 266 424 q 146 435 178 424 q 93 464 115 446 q 60 504 71 481 q 49 548 49 526 m 1073 0 l 869 0 l 869 40 q 903 48 890 41 q 924 67 917 55 q 935 95 932 79 q 937 132 937 112 l 937 146 l 702 146 l 702 187 l 979 571 l 1015 571 l 1015 196 l 1094 196 l 1094 146 l 1016 146 l 1016 45 l 1073 47 l 1073 0 m 767 201 l 937 198 l 937 436 l 935 436 l 767 201 z "},"":{"ha":648,"x_min":44,"x_max":607,"o":"m 500 -148 q 488 -122 492 -136 q 484 -94 484 -108 q 488 -74 484 -85 q 499 -54 492 -63 q 519 -39 507 -45 q 548 -34 531 -33 q 592 -56 578 -35 q 607 -106 607 -77 q 588 -171 607 -137 q 532 -234 568 -205 q 444 -281 496 -262 q 326 -300 392 -300 q 191 -279 246 -300 q 103 -222 136 -257 q 57 -144 71 -188 q 47 -58 44 -101 q 74 29 50 -11 q 132 104 98 69 q 206 169 167 138 q 279 225 246 199 q 335 276 313 252 q 357 324 357 300 q 354 340 357 332 q 344 355 351 349 q 326 366 337 361 q 298 370 315 370 q 274 367 289 370 q 247 359 260 365 l 231 408 q 283 427 252 421 q 340 433 314 433 q 380 428 360 433 q 416 412 400 423 q 441 384 431 401 q 451 340 451 366 q 431 282 451 309 q 382 228 412 254 q 317 172 352 201 q 252 109 282 143 q 200 33 221 75 q 178 -62 180 -9 q 185 -133 177 -99 q 212 -192 193 -166 q 265 -232 232 -217 q 347 -246 298 -246 q 404 -237 377 -246 q 451 -213 431 -228 q 484 -181 471 -199 q 500 -148 497 -164 m 256 635 q 262 667 256 652 q 277 693 267 682 q 300 710 287 704 q 330 717 314 717 q 358 711 345 717 q 382 695 372 706 q 399 669 393 684 q 406 635 406 654 q 399 603 406 618 q 382 577 393 588 q 358 559 372 566 q 330 553 345 553 q 301 559 315 553 q 278 577 288 566 q 262 603 268 588 q 256 635 256 618 z "},"":{"ha":869,"x_min":-8,"x_max":886,"o":"m 178 151 q 168 122 172 135 q 160 98 164 109 q 152 77 156 87 q 143 56 148 67 l 252 61 l 252 0 l -8 0 l -8 46 q 43 59 23 46 q 76 94 62 71 q 101 149 90 117 q 126 220 112 181 l 412 999 l 446 999 l 755 208 q 768 174 762 194 q 780 133 774 154 q 789 92 786 112 q 791 56 792 71 l 886 61 l 886 0 l 568 0 l 568 46 q 625 60 607 47 q 648 94 644 74 q 648 136 653 113 q 636 178 644 158 l 587 308 l 226 300 q 199 221 211 257 q 178 151 188 186 m 346 639 q 290 481 314 549 q 247 359 266 413 l 568 359 l 469 625 l 407 796 l 404 796 l 346 639 m 228 1179 q 195 1208 204 1194 q 183 1234 185 1222 q 184 1256 181 1246 q 191 1270 188 1265 q 200 1278 193 1272 q 219 1286 208 1284 q 248 1284 231 1289 q 285 1263 264 1280 l 460 1096 l 429 1055 l 228 1179 z "},"":{"ha":869,"x_min":-8,"x_max":886,"o":"m 178 151 q 168 122 172 135 q 160 98 164 109 q 152 77 156 87 q 143 56 148 67 l 252 61 l 252 0 l -8 0 l -8 46 q 43 59 23 46 q 76 94 62 71 q 101 149 90 117 q 126 220 112 181 l 412 999 l 446 999 l 755 208 q 768 174 762 194 q 780 133 774 154 q 789 92 786 112 q 791 56 792 71 l 886 61 l 886 0 l 568 0 l 568 46 q 625 60 607 47 q 648 94 644 74 q 648 136 653 113 q 636 178 644 158 l 587 308 l 226 300 q 199 221 211 257 q 178 151 188 186 m 346 639 q 290 481 314 549 q 247 359 266 413 l 568 359 l 469 625 l 407 796 l 404 796 l 346 639 m 427 1055 l 397 1096 l 572 1263 q 609 1284 592 1280 q 637 1286 625 1289 q 656 1278 649 1284 q 665 1270 663 1272 q 672 1256 669 1265 q 673 1234 675 1246 q 662 1208 671 1222 q 629 1179 652 1194 l 427 1055 z "},"":{"ha":869,"x_min":-8,"x_max":886,"o":"m 178 151 q 168 122 172 135 q 160 98 164 109 q 152 77 156 87 q 143 56 148 67 l 252 61 l 252 0 l -8 0 l -8 46 q 43 59 23 46 q 76 94 62 71 q 101 149 90 117 q 126 220 112 181 l 412 999 l 446 999 l 755 208 q 768 174 762 194 q 780 133 774 154 q 789 92 786 112 q 791 56 792 71 l 886 61 l 886 0 l 568 0 l 568 46 q 625 60 607 47 q 648 94 644 74 q 648 136 653 113 q 636 178 644 158 l 587 308 l 226 300 q 199 221 211 257 q 178 151 188 186 m 346 639 q 290 481 314 549 q 247 359 266 413 l 568 359 l 469 625 l 407 796 l 404 796 l 346 639 m 430 1293 l 433 1293 l 688 1097 l 658 1050 l 427 1173 l 425 1173 l 189 1051 l 161 1096 l 430 1293 z "},"":{"ha":869,"x_min":-8,"x_max":886,"o":"m 178 151 q 168 122 172 135 q 160 98 164 109 q 152 77 156 87 q 143 56 148 67 l 252 61 l 252 0 l -8 0 l -8 46 q 43 59 23 46 q 76 94 62 71 q 101 149 90 117 q 126 220 112 181 l 412 999 l 446 999 l 755 208 q 768 174 762 194 q 780 133 774 154 q 789 92 786 112 q 791 56 792 71 l 886 61 l 886 0 l 568 0 l 568 46 q 625 60 607 47 q 648 94 644 74 q 648 136 653 113 q 636 178 644 158 l 587 308 l 226 300 q 199 221 211 257 q 178 151 188 186 m 346 639 q 290 481 314 549 q 247 359 266 413 l 568 359 l 469 625 l 407 796 l 404 796 l 346 639 m 304 1178 q 251 1156 274 1178 q 201 1095 227 1133 l 154 1121 q 184 1177 166 1152 q 223 1222 202 1203 q 266 1252 243 1241 q 311 1264 289 1263 q 360 1257 338 1264 q 401 1239 382 1250 q 435 1215 419 1228 q 467 1192 451 1202 q 498 1174 482 1181 q 533 1166 514 1166 q 568 1174 551 1166 q 598 1194 584 1181 q 624 1222 612 1206 q 646 1257 635 1238 l 690 1235 q 656 1162 675 1192 q 616 1114 637 1133 q 571 1087 594 1096 q 525 1079 548 1079 q 476 1086 498 1079 q 435 1105 454 1094 q 399 1128 416 1116 q 367 1152 382 1141 q 335 1171 351 1163 q 304 1178 320 1178 z "},"":{"ha":869,"x_min":-8,"x_max":886,"o":"m 178 151 q 168 122 172 135 q 160 98 164 109 q 152 77 156 87 q 143 56 148 67 l 252 61 l 252 0 l -8 0 l -8 46 q 43 59 23 46 q 76 94 62 71 q 101 149 90 117 q 126 220 112 181 l 412 999 l 446 999 l 755 208 q 768 174 762 194 q 780 133 774 154 q 789 92 786 112 q 791 56 792 71 l 886 61 l 886 0 l 568 0 l 568 46 q 625 60 607 47 q 648 94 644 74 q 648 136 653 113 q 636 178 644 158 l 587 308 l 226 300 q 199 221 211 257 q 178 151 188 186 m 346 639 q 290 481 314 549 q 247 359 266 413 l 568 359 l 469 625 l 407 796 l 404 796 l 346 639 m 632 1165 q 626 1131 632 1147 q 609 1103 620 1115 q 585 1084 599 1091 q 556 1078 571 1078 q 527 1084 541 1078 q 503 1103 513 1091 q 487 1131 493 1115 q 481 1165 481 1147 q 487 1200 481 1183 q 504 1228 493 1216 q 528 1247 515 1240 q 557 1255 542 1255 q 587 1247 573 1255 q 610 1228 600 1240 q 626 1200 621 1216 q 632 1165 632 1183 m 382 1165 q 376 1131 382 1147 q 360 1103 370 1115 q 335 1084 349 1091 q 307 1078 321 1078 q 277 1084 291 1078 q 254 1103 264 1091 q 237 1131 243 1115 q 231 1165 231 1147 q 237 1200 231 1183 q 254 1228 243 1216 q 279 1247 265 1240 q 308 1255 292 1255 q 337 1247 323 1255 q 361 1228 351 1240 q 377 1200 371 1216 q 382 1165 382 1183 z "},"":{"ha":872,"x_min":-7,"x_max":888,"o":"m 179 151 q 170 122 174 135 q 161 98 165 109 q 153 77 157 87 q 144 56 149 67 l 253 61 l 253 0 l -7 0 l -7 46 q 44 59 24 46 q 77 94 64 71 q 102 149 91 117 q 127 220 113 181 l 414 999 l 447 999 l 757 208 q 769 174 763 194 q 782 133 776 154 q 790 92 787 112 q 793 56 793 71 l 888 61 l 888 0 l 570 0 l 570 46 q 627 60 608 47 q 650 94 645 74 q 650 136 654 113 q 637 178 645 158 l 589 308 l 227 300 q 201 221 212 257 q 179 151 189 186 m 347 639 q 291 481 315 549 q 248 359 267 413 l 570 359 l 471 625 l 408 796 l 406 796 l 347 639 m 422 1253 q 370 1224 389 1251 q 350 1153 350 1198 q 372 1072 350 1103 q 431 1042 394 1042 q 459 1048 446 1042 q 483 1067 473 1055 q 499 1096 493 1079 q 505 1136 505 1114 q 483 1223 505 1194 q 427 1253 461 1253 l 422 1253 m 427 1300 q 482 1292 454 1300 q 533 1265 510 1283 q 570 1220 555 1247 q 586 1156 585 1193 q 573 1088 586 1118 q 537 1037 559 1058 q 487 1004 515 1015 q 429 993 459 993 q 371 1002 399 993 q 319 1029 342 1010 q 283 1076 297 1048 q 269 1144 269 1105 q 283 1208 269 1179 q 319 1257 297 1237 q 370 1289 342 1278 q 427 1300 398 1300 z "},"":{"ha":1318,"x_min":-29,"x_max":1256,"o":"m 1015 359 q 1005 430 1015 405 q 977 467 996 455 q 926 480 957 478 q 852 482 895 482 l 747 477 q 746 99 747 125 q 743 56 745 73 l 1017 52 q 1096 63 1061 52 q 1157 100 1132 75 q 1195 168 1181 126 q 1208 271 1208 210 l 1256 271 l 1248 0 l 531 0 l 531 50 l 542 50 q 586 61 569 52 q 611 86 602 70 q 624 125 621 102 q 627 180 627 149 l 627 307 l 288 300 l 125 56 l 231 61 l 231 0 l -29 0 l -29 46 q 21 58 -1 46 q 62 89 43 71 q 97 130 81 108 q 628 918 113 153 l 503 911 l 503 972 l 1200 972 l 1206 729 l 1160 729 q 1146 827 1160 789 q 1108 886 1133 865 q 1052 916 1084 908 q 981 924 1019 924 l 972 924 l 853 921 q 792 909 814 920 q 761 879 771 899 q 749 829 751 859 q 747 755 747 798 l 747 532 l 850 532 q 925 535 894 532 q 976 551 956 538 q 1005 590 996 564 q 1015 663 1015 616 l 1060 663 l 1060 359 l 1015 359 m 627 359 l 627 808 l 328 359 l 627 359 z "},"":{"ha":972,"x_min":65,"x_max":930,"o":"m 420 -308 q 486 -291 455 -302 q 540 -266 517 -280 q 576 -234 563 -252 q 589 -195 589 -216 q 576 -161 589 -172 q 545 -151 563 -151 q 513 -156 530 -151 q 484 -170 497 -161 l 434 -147 l 467 -18 q 302 38 376 -5 q 176 145 229 80 q 94 293 123 210 q 65 471 65 376 q 78 600 65 536 q 118 723 92 665 q 185 830 145 781 q 279 917 225 880 q 399 974 332 954 q 547 995 467 995 q 694 974 627 995 q 827 910 762 953 l 821 985 l 896 985 l 896 663 l 846 663 q 815 779 838 728 q 754 865 791 830 q 667 919 718 901 q 557 938 617 938 q 418 906 483 938 q 305 817 353 875 q 229 676 257 759 q 201 492 201 593 q 231 312 201 393 q 310 173 260 231 q 429 82 361 115 q 574 50 496 50 q 664 60 619 50 q 751 91 709 71 q 829 141 793 111 q 895 210 866 171 l 930 180 q 837 80 886 119 q 736 19 787 41 q 636 -13 685 -3 q 543 -22 587 -22 l 517 -106 q 539 -96 527 -100 q 564 -89 551 -92 q 588 -85 576 -87 q 608 -84 600 -84 q 654 -92 634 -84 q 687 -113 674 -100 q 707 -144 701 -126 q 714 -183 714 -162 q 700 -235 714 -212 q 661 -276 685 -258 q 607 -309 637 -295 q 545 -334 576 -323 q 482 -351 513 -344 q 428 -361 452 -357 l 420 -308 z "},"":{"ha":864,"x_min":77,"x_max":802,"o":"m 294 160 q 293 95 294 121 q 289 52 292 69 l 555 56 q 637 67 600 56 q 700 102 673 77 q 740 168 726 127 q 754 271 754 209 l 802 271 l 793 0 l 77 0 l 77 46 q 129 57 110 47 q 158 83 149 66 q 170 124 168 100 q 172 176 172 147 l 172 216 l 172 817 q 173 870 172 845 q 177 917 174 896 l 77 911 l 77 972 l 745 972 l 751 729 l 706 729 q 692 827 706 789 q 654 886 678 865 q 597 916 630 908 q 527 924 565 924 l 399 922 q 339 909 360 920 q 307 879 317 899 q 295 829 297 859 q 294 755 294 798 l 294 532 l 554 532 l 544 652 l 606 652 l 606 359 l 560 359 q 553 424 560 400 q 531 461 546 448 q 492 479 515 475 q 435 483 469 483 q 416 483 426 483 q 294 478 406 483 l 294 160 m 278 1179 q 245 1208 254 1194 q 233 1234 235 1222 q 235 1256 231 1246 q 241 1270 238 1265 q 251 1278 243 1272 q 270 1286 258 1284 q 298 1284 281 1289 q 335 1263 315 1280 l 510 1096 l 479 1055 l 278 1179 z "},"":{"ha":864,"x_min":77,"x_max":802,"o":"m 294 160 q 293 95 294 121 q 289 52 292 69 l 555 56 q 637 67 600 56 q 700 102 673 77 q 740 168 726 127 q 754 271 754 209 l 802 271 l 793 0 l 77 0 l 77 46 q 129 57 110 47 q 158 83 149 66 q 170 124 168 100 q 172 176 172 147 l 172 216 l 172 817 q 173 870 172 845 q 177 917 174 896 l 77 911 l 77 972 l 745 972 l 751 729 l 706 729 q 692 827 706 789 q 654 886 678 865 q 597 916 630 908 q 527 924 565 924 l 399 922 q 339 909 360 920 q 307 879 317 899 q 295 829 297 859 q 294 755 294 798 l 294 532 l 554 532 l 544 652 l 606 652 l 606 359 l 560 359 q 553 424 560 400 q 531 461 546 448 q 492 479 515 475 q 435 483 469 483 q 416 483 426 483 q 294 478 406 483 l 294 160 m 401 1055 l 371 1096 l 546 1263 q 583 1284 566 1280 q 611 1286 600 1289 q 630 1278 623 1284 q 640 1270 637 1272 q 646 1256 643 1265 q 648 1234 650 1246 q 636 1208 646 1222 q 603 1179 627 1194 l 401 1055 z "},"":{"ha":864,"x_min":77,"x_max":802,"o":"m 294 160 q 293 95 294 121 q 289 52 292 69 l 555 56 q 637 67 600 56 q 700 102 673 77 q 740 168 726 127 q 754 271 754 209 l 802 271 l 793 0 l 77 0 l 77 46 q 129 57 110 47 q 158 83 149 66 q 170 124 168 100 q 172 176 172 147 l 172 216 l 172 817 q 173 870 172 845 q 177 917 174 896 l 77 911 l 77 972 l 745 972 l 751 729 l 706 729 q 692 827 706 789 q 654 886 678 865 q 597 916 630 908 q 527 924 565 924 l 399 922 q 339 909 360 920 q 307 879 317 899 q 295 829 297 859 q 294 755 294 798 l 294 532 l 554 532 l 544 652 l 606 652 l 606 359 l 560 359 q 553 424 560 400 q 531 461 546 448 q 492 479 515 475 q 435 483 469 483 q 416 483 426 483 q 294 478 406 483 l 294 160 m 460 1293 l 463 1293 l 718 1097 l 688 1050 l 457 1173 l 454 1173 l 218 1051 l 191 1096 l 460 1293 z "},"":{"ha":864,"x_min":77,"x_max":802,"o":"m 294 160 q 293 95 294 121 q 289 52 292 69 l 555 56 q 637 67 600 56 q 700 102 673 77 q 740 168 726 127 q 754 271 754 209 l 802 271 l 793 0 l 77 0 l 77 46 q 129 57 110 47 q 158 83 149 66 q 170 124 168 100 q 172 176 172 147 l 172 216 l 172 817 q 173 870 172 845 q 177 917 174 896 l 77 911 l 77 972 l 745 972 l 751 729 l 706 729 q 692 827 706 789 q 654 886 678 865 q 597 916 630 908 q 527 924 565 924 l 399 922 q 339 909 360 920 q 307 879 317 899 q 295 829 297 859 q 294 755 294 798 l 294 532 l 554 532 l 544 652 l 606 652 l 606 359 l 560 359 q 553 424 560 400 q 531 461 546 448 q 492 479 515 475 q 435 483 469 483 q 416 483 426 483 q 294 478 406 483 l 294 160 m 655 1165 q 649 1131 655 1147 q 632 1103 643 1115 q 608 1084 622 1091 q 579 1078 594 1078 q 550 1084 564 1078 q 526 1103 536 1091 q 510 1131 516 1115 q 504 1165 504 1147 q 510 1200 504 1183 q 527 1228 516 1216 q 551 1247 538 1240 q 581 1255 565 1255 q 610 1247 596 1255 q 633 1228 623 1240 q 649 1200 644 1216 q 655 1165 655 1183 m 406 1165 q 399 1131 406 1147 q 383 1103 393 1115 q 358 1084 372 1091 q 330 1078 345 1078 q 300 1084 314 1078 q 277 1103 287 1091 q 260 1131 267 1115 q 254 1165 254 1147 q 260 1200 254 1183 q 277 1228 267 1216 q 302 1247 288 1240 q 331 1255 315 1255 q 360 1247 347 1255 q 384 1228 374 1240 q 400 1200 394 1216 q 406 1165 406 1183 z "},"":{"ha":464,"x_min":22,"x_max":389,"o":"m 172 817 q 173 870 172 845 q 176 917 174 896 l 76 911 l 76 972 l 389 972 l 389 926 q 330 912 349 925 q 302 876 310 899 q 293 823 294 854 q 293 755 293 793 l 293 165 q 292 100 293 127 q 288 56 291 73 l 389 61 l 389 0 l 76 0 l 76 46 q 135 60 115 47 q 163 96 155 73 q 171 149 171 118 q 172 216 172 180 l 172 817 m 69 1179 q 36 1208 45 1194 q 24 1234 26 1222 q 26 1256 22 1246 q 33 1270 29 1265 q 42 1278 35 1272 q 61 1286 49 1284 q 89 1284 73 1289 q 126 1263 106 1280 l 301 1096 l 271 1055 l 69 1179 z "},"":{"ha":464,"x_min":77,"x_max":415,"o":"m 172 817 q 173 870 172 845 q 177 917 174 896 l 77 911 l 77 972 l 389 972 l 389 926 q 330 912 350 925 q 302 876 311 899 q 294 823 294 854 q 294 755 294 793 l 294 165 q 293 100 294 127 q 289 56 292 73 l 389 61 l 389 0 l 77 0 l 77 46 q 136 60 116 47 q 163 96 155 73 q 172 149 172 118 q 172 216 172 180 l 172 817 m 167 1055 l 136 1096 l 311 1263 q 348 1284 332 1280 q 377 1286 365 1289 q 396 1278 389 1284 q 405 1270 403 1272 q 412 1256 408 1265 q 413 1234 415 1246 q 401 1208 411 1222 q 368 1179 392 1194 l 167 1055 z "},"":{"ha":465,"x_min":-12,"x_max":488,"o":"m 243 1293 l 246 1293 l 488 1097 l 457 1050 l 241 1173 l 238 1173 l 16 1051 l -12 1096 l 243 1293 m 172 817 q 173 870 172 845 q 176 917 174 896 l 76 911 l 76 972 l 389 972 l 389 926 q 330 912 349 925 q 302 876 310 899 q 293 823 294 854 q 293 755 293 793 l 293 165 q 292 100 293 127 q 288 56 291 73 l 389 61 l 389 0 l 76 0 l 76 46 q 135 60 115 47 q 163 96 155 73 q 171 149 171 118 q 172 216 172 180 l 172 817 z "},"":{"ha":464,"x_min":58,"x_max":431,"o":"m 172 817 q 173 870 172 845 q 176 917 174 896 l 76 911 l 76 972 l 389 972 l 389 926 q 330 912 349 925 q 302 876 310 899 q 293 823 294 854 q 293 755 293 793 l 293 165 q 292 100 293 127 q 288 56 291 73 l 389 61 l 389 0 l 76 0 l 76 46 q 135 60 115 47 q 163 96 155 73 q 171 149 171 118 q 172 216 172 180 l 172 817 m 431 1162 q 424 1129 431 1145 q 407 1101 418 1113 q 383 1082 397 1088 q 355 1076 370 1076 q 326 1082 340 1076 q 302 1101 312 1088 q 286 1129 292 1113 q 279 1162 279 1145 q 286 1198 279 1181 q 302 1226 292 1214 q 327 1245 313 1238 q 356 1252 340 1252 q 385 1245 372 1252 q 409 1226 399 1238 q 425 1198 419 1214 q 431 1162 431 1181 m 210 1162 q 203 1129 210 1145 q 186 1101 197 1113 q 162 1082 176 1088 q 134 1076 149 1076 q 105 1082 119 1076 q 81 1101 91 1088 q 64 1129 71 1113 q 58 1162 58 1145 q 65 1198 58 1181 q 81 1226 71 1214 q 105 1245 92 1238 q 135 1252 119 1252 q 164 1245 151 1252 q 188 1226 178 1238 q 204 1198 198 1214 q 210 1162 210 1181 z "},"":{"ha":1036,"x_min":26,"x_max":972,"o":"m 26 524 l 174 524 l 174 817 q 175 870 174 845 q 178 917 176 896 l 78 911 l 78 972 l 406 974 q 636 945 532 974 q 815 855 740 916 q 931 703 890 795 q 972 485 972 610 q 958 360 972 421 q 913 246 943 300 q 839 147 883 192 q 735 69 794 102 q 604 18 677 37 q 444 0 530 0 l 78 0 l 78 46 q 131 57 111 47 q 159 83 150 66 q 171 124 169 100 q 174 176 174 147 l 174 453 l 26 452 l 26 524 m 464 524 l 464 457 l 295 454 l 295 164 q 294 99 295 125 q 290 56 293 73 q 347 54 321 54 q 393 53 374 53 l 439 53 q 602 86 529 53 q 727 178 675 119 q 808 317 779 237 q 836 490 836 397 q 809 668 836 589 q 728 805 783 748 q 589 892 673 861 q 391 922 505 922 q 338 913 357 922 q 309 888 319 905 q 297 848 300 871 q 295 796 295 825 l 295 524 l 464 524 z "},"":{"ha":1060,"x_min":79,"x_max":999,"o":"m 903 -22 l 836 -22 l 233 788 l 231 788 l 236 193 q 236 123 236 157 q 233 56 235 89 l 334 61 l 334 0 l 79 0 l 79 46 q 130 57 111 46 q 157 85 148 68 q 169 120 166 101 q 171 155 171 139 l 172 917 l 79 911 l 79 972 l 245 972 l 836 181 l 838 181 l 839 817 q 843 917 839 875 l 743 911 l 743 972 l 999 972 l 999 926 q 940 912 960 925 q 913 876 921 899 q 906 823 905 854 q 906 755 906 793 l 903 -22 m 420 1178 q 367 1156 390 1178 q 317 1095 343 1133 l 270 1121 q 300 1177 282 1152 q 339 1222 318 1203 q 382 1252 359 1241 q 427 1264 405 1263 q 476 1257 454 1264 q 517 1239 498 1250 q 551 1215 535 1228 q 583 1192 567 1202 q 614 1174 598 1181 q 649 1166 630 1166 q 684 1174 667 1166 q 714 1194 700 1181 q 740 1222 728 1206 q 762 1257 751 1238 l 806 1235 q 772 1162 791 1192 q 732 1114 753 1133 q 687 1087 710 1096 q 641 1079 664 1079 q 592 1086 614 1079 q 551 1105 570 1094 q 515 1128 532 1116 q 483 1152 498 1141 q 451 1171 467 1163 q 420 1178 436 1178 z "},"":{"ha":1103,"x_min":64,"x_max":1042,"o":"m 200 511 q 210 405 200 460 q 238 296 219 349 q 287 196 258 243 q 357 112 317 148 q 448 56 397 77 q 561 35 498 35 q 665 52 618 35 q 751 99 713 69 q 817 171 789 130 q 865 259 846 212 q 893 359 884 306 q 903 460 903 413 q 892 571 903 510 q 861 685 882 632 q 809 785 840 739 q 739 866 779 831 q 649 920 699 900 q 543 939 600 939 q 393 901 457 939 q 286 802 328 863 q 221 665 243 741 q 200 511 200 589 m 64 486 q 77 605 64 545 q 116 722 90 665 q 182 828 142 779 q 276 915 222 878 q 397 974 330 952 q 547 995 465 995 q 702 973 632 995 q 826 915 771 951 q 921 828 881 878 q 988 721 962 778 q 1028 604 1015 665 q 1042 486 1042 544 q 1028 369 1042 429 q 989 252 1015 309 q 923 145 963 195 q 829 58 883 96 q 708 -1 775 21 q 558 -22 640 -22 q 399 -1 470 -22 q 273 56 328 20 q 179 141 218 92 q 114 247 139 191 q 76 365 88 303 q 64 486 64 426 m 411 1179 q 378 1208 387 1194 q 366 1234 368 1222 q 368 1256 364 1246 q 374 1270 371 1265 q 384 1278 376 1272 q 402 1286 391 1284 q 431 1284 414 1289 q 468 1263 448 1280 l 643 1096 l 612 1055 l 411 1179 z "},"":{"ha":1103,"x_min":64,"x_max":1042,"o":"m 200 511 q 210 405 200 460 q 238 296 219 349 q 287 196 258 243 q 357 112 317 148 q 448 56 397 77 q 561 35 498 35 q 665 52 618 35 q 751 99 713 69 q 817 171 789 130 q 865 259 846 212 q 893 359 884 306 q 903 460 903 413 q 892 571 903 510 q 861 685 882 632 q 809 785 840 739 q 739 866 779 831 q 649 920 699 900 q 543 939 600 939 q 393 901 457 939 q 286 802 328 863 q 221 665 243 741 q 200 511 200 589 m 64 486 q 77 605 64 545 q 116 722 90 665 q 182 828 142 779 q 276 915 222 878 q 397 974 330 952 q 547 995 465 995 q 702 973 632 995 q 826 915 771 951 q 921 828 881 878 q 988 721 962 778 q 1028 604 1015 665 q 1042 486 1042 544 q 1028 369 1042 429 q 989 252 1015 309 q 923 145 963 195 q 829 58 883 96 q 708 -1 775 21 q 558 -22 640 -22 q 399 -1 470 -22 q 273 56 328 20 q 179 141 218 92 q 114 247 139 191 q 76 365 88 303 q 64 486 64 426 m 466 1055 l 435 1096 l 610 1263 q 647 1284 631 1280 q 676 1286 664 1289 q 695 1278 688 1284 q 704 1270 702 1272 q 711 1256 707 1265 q 712 1234 714 1246 q 701 1208 710 1222 q 667 1179 691 1194 l 466 1055 z "},"":{"ha":1103,"x_min":64,"x_max":1042,"o":"m 200 511 q 210 405 200 460 q 238 296 219 349 q 287 196 258 243 q 357 112 317 148 q 448 56 397 77 q 561 35 498 35 q 665 52 618 35 q 751 99 713 69 q 817 171 789 130 q 865 259 846 212 q 893 359 884 306 q 903 460 903 413 q 892 571 903 510 q 861 685 882 632 q 809 785 840 739 q 739 866 779 831 q 649 920 699 900 q 543 939 600 939 q 393 901 457 939 q 286 802 328 863 q 221 665 243 741 q 200 511 200 589 m 64 486 q 77 605 64 545 q 116 722 90 665 q 182 828 142 779 q 276 915 222 878 q 397 974 330 952 q 547 995 465 995 q 702 973 632 995 q 826 915 771 951 q 921 828 881 878 q 988 721 962 778 q 1028 604 1015 665 q 1042 486 1042 544 q 1028 369 1042 429 q 989 252 1015 309 q 923 145 963 195 q 829 58 883 96 q 708 -1 775 21 q 558 -22 640 -22 q 399 -1 470 -22 q 273 56 328 20 q 179 141 218 92 q 114 247 139 191 q 76 365 88 303 q 64 486 64 426 m 562 1293 l 566 1293 l 821 1097 l 790 1050 l 559 1173 l 557 1173 l 321 1051 l 293 1096 l 562 1293 z "},"":{"ha":1103,"x_min":64,"x_max":1042,"o":"m 200 511 q 210 405 200 460 q 238 296 219 349 q 287 196 258 243 q 357 112 317 148 q 448 56 397 77 q 561 35 498 35 q 665 52 618 35 q 751 99 713 69 q 817 171 789 130 q 865 259 846 212 q 893 359 884 306 q 903 460 903 413 q 892 571 903 510 q 861 685 882 632 q 809 785 840 739 q 739 866 779 831 q 649 920 699 900 q 543 939 600 939 q 393 901 457 939 q 286 802 328 863 q 221 665 243 741 q 200 511 200 589 m 64 486 q 77 605 64 545 q 116 722 90 665 q 182 828 142 779 q 276 915 222 878 q 397 974 330 952 q 547 995 465 995 q 702 973 632 995 q 826 915 771 951 q 921 828 881 878 q 988 721 962 778 q 1028 604 1015 665 q 1042 486 1042 544 q 1028 369 1042 429 q 989 252 1015 309 q 923 145 963 195 q 829 58 883 96 q 708 -1 775 21 q 558 -22 640 -22 q 399 -1 470 -22 q 273 56 328 20 q 179 141 218 92 q 114 247 139 191 q 76 365 88 303 q 64 486 64 426 m 443 1178 q 390 1156 413 1178 q 340 1095 366 1133 l 293 1121 q 323 1177 305 1152 q 362 1222 341 1203 q 405 1252 382 1241 q 450 1264 428 1263 q 499 1257 477 1264 q 540 1239 522 1250 q 574 1215 558 1228 q 606 1192 590 1202 q 637 1174 621 1181 q 672 1166 653 1166 q 707 1174 690 1166 q 737 1194 723 1181 q 763 1222 751 1206 q 785 1257 774 1238 l 829 1235 q 795 1162 814 1192 q 755 1114 777 1133 q 710 1087 733 1096 q 664 1079 687 1079 q 615 1086 637 1079 q 574 1105 593 1094 q 538 1128 555 1116 q 506 1152 522 1141 q 474 1171 490 1163 q 443 1178 459 1178 z "},"":{"ha":1103,"x_min":64,"x_max":1042,"o":"m 200 511 q 210 405 200 460 q 238 296 219 349 q 287 196 258 243 q 357 112 317 148 q 448 56 397 77 q 561 35 498 35 q 665 52 618 35 q 751 99 713 69 q 817 171 789 130 q 865 259 846 212 q 893 359 884 306 q 903 460 903 413 q 892 571 903 510 q 861 685 882 632 q 809 785 840 739 q 739 866 779 831 q 649 920 699 900 q 543 939 600 939 q 393 901 457 939 q 286 802 328 863 q 221 665 243 741 q 200 511 200 589 m 64 486 q 77 605 64 545 q 116 722 90 665 q 182 828 142 779 q 276 915 222 878 q 397 974 330 952 q 547 995 465 995 q 702 973 632 995 q 826 915 771 951 q 921 828 881 878 q 988 721 962 778 q 1028 604 1015 665 q 1042 486 1042 544 q 1028 369 1042 429 q 989 252 1015 309 q 923 145 963 195 q 829 58 883 96 q 708 -1 775 21 q 558 -22 640 -22 q 399 -1 470 -22 q 273 56 328 20 q 179 141 218 92 q 114 247 139 191 q 76 365 88 303 q 64 486 64 426 m 751 1165 q 745 1131 751 1147 q 729 1103 739 1115 q 704 1084 718 1091 q 675 1078 690 1078 q 646 1084 660 1078 q 623 1103 633 1091 q 606 1131 612 1115 q 600 1165 600 1147 q 606 1200 600 1183 q 623 1228 612 1216 q 648 1247 634 1240 q 677 1255 661 1255 q 706 1247 692 1255 q 730 1228 720 1240 q 746 1200 740 1216 q 751 1165 751 1183 m 502 1165 q 496 1131 502 1147 q 479 1103 490 1115 q 455 1084 469 1091 q 426 1078 441 1078 q 397 1084 410 1078 q 373 1103 383 1091 q 357 1131 363 1115 q 351 1165 351 1147 q 357 1200 351 1183 q 374 1228 363 1216 q 398 1247 385 1240 q 427 1255 412 1255 q 456 1247 443 1255 q 480 1228 470 1240 q 496 1200 490 1216 q 502 1165 502 1183 z "},"":{"ha":766,"x_min":75,"x_max":694,"o":"m 75 189 l 321 431 l 78 672 l 142 734 l 385 493 l 638 742 l 694 682 l 444 435 l 694 186 l 631 123 l 380 372 l 135 129 l 75 189 z "},"":{"ha":1103,"x_min":62,"x_max":1040,"o":"m 62 486 q 75 605 62 545 q 115 722 88 665 q 181 828 141 779 q 275 915 221 878 q 396 974 328 952 q 546 995 464 995 q 700 973 631 995 q 785 938 745 959 l 848 1048 l 924 1002 l 858 890 q 920 827 892 862 q 987 721 960 778 q 1027 604 1014 665 q 1040 486 1040 544 q 1027 369 1040 429 q 988 252 1014 309 q 922 145 962 195 q 828 58 882 96 q 706 -1 774 21 q 557 -22 639 -22 q 397 -1 469 -22 q 344 18 370 7 l 268 -111 l 201 -69 l 273 55 q 272 56 273 56 q 177 141 217 92 q 112 247 138 191 q 75 365 87 304 q 62 486 62 426 m 199 511 q 208 405 199 460 q 237 296 218 349 q 286 195 256 243 q 324 143 303 167 l 741 862 l 735 867 q 646 920 695 901 q 541 939 597 939 q 391 901 456 939 q 284 802 327 863 q 220 665 241 741 q 199 511 199 589 m 806 787 q 802 794 804 791 l 385 88 q 446 56 414 69 q 559 35 497 35 q 664 52 616 35 q 749 99 711 69 q 816 171 787 130 q 864 259 844 212 q 892 357 883 306 q 902 460 902 409 q 891 576 902 518 q 859 688 880 635 q 806 787 838 741 z "},"":{"ha":1044,"x_min":43,"x_max":1002,"o":"m 903 433 q 883 260 903 342 q 820 115 864 178 q 705 15 777 52 q 530 -22 634 -22 q 343 7 418 -22 q 222 97 268 36 q 157 251 176 157 q 137 473 137 345 l 137 755 q 137 796 137 774 q 139 841 138 819 q 140 883 140 863 q 142 917 141 903 l 43 913 l 43 972 l 355 972 l 355 926 q 300 915 319 926 q 272 886 281 903 q 261 850 262 869 q 259 817 259 831 l 259 467 q 263 365 259 415 q 278 269 267 314 q 310 184 290 223 q 361 117 330 146 q 439 73 393 89 q 547 57 484 57 q 676 84 622 57 q 765 160 730 111 q 816 277 800 210 q 834 427 833 345 l 840 817 q 844 917 840 875 l 744 911 l 744 972 l 1002 972 l 1002 926 q 943 912 963 925 q 915 876 923 899 q 906 823 907 854 q 906 755 906 793 l 903 433 m 389 1179 q 356 1208 366 1194 q 345 1234 347 1222 q 346 1256 342 1246 q 353 1270 349 1265 q 362 1278 355 1272 q 381 1286 369 1284 q 409 1284 393 1289 q 446 1263 426 1280 l 621 1096 l 591 1055 l 389 1179 z "},"":{"ha":1044,"x_min":43,"x_max":1002,"o":"m 903 433 q 883 260 903 342 q 820 115 864 178 q 705 15 777 52 q 530 -22 634 -22 q 343 7 418 -22 q 222 97 268 36 q 157 251 176 157 q 137 473 137 345 l 137 755 q 137 796 137 774 q 139 841 138 819 q 140 883 140 863 q 142 917 141 903 l 43 913 l 43 972 l 355 972 l 355 926 q 300 915 319 926 q 272 886 281 903 q 261 850 262 869 q 259 817 259 831 l 259 467 q 263 365 259 415 q 278 269 267 314 q 310 184 290 223 q 361 117 330 146 q 439 73 393 89 q 547 57 484 57 q 676 84 622 57 q 765 160 730 111 q 816 277 800 210 q 834 427 833 345 l 840 817 q 844 917 840 875 l 744 911 l 744 972 l 1002 972 l 1002 926 q 943 912 963 925 q 915 876 923 899 q 906 823 907 854 q 906 755 906 793 l 903 433 m 507 1055 l 476 1096 l 651 1263 q 688 1284 671 1280 q 716 1286 705 1289 q 735 1278 728 1284 q 745 1270 743 1272 q 751 1256 748 1265 q 753 1234 755 1246 q 741 1208 751 1222 q 708 1179 732 1194 l 507 1055 z "},"":{"ha":1044,"x_min":43,"x_max":1002,"o":"m 903 433 q 883 260 903 342 q 820 115 864 178 q 705 15 777 52 q 530 -22 634 -22 q 343 7 418 -22 q 222 97 268 36 q 157 251 176 157 q 137 473 137 345 l 137 755 q 137 796 137 774 q 139 841 138 819 q 140 883 140 863 q 142 917 141 903 l 43 913 l 43 972 l 355 972 l 355 926 q 300 915 319 926 q 272 886 281 903 q 261 850 262 869 q 259 817 259 831 l 259 467 q 263 365 259 415 q 278 269 267 314 q 310 184 290 223 q 361 117 330 146 q 439 73 393 89 q 547 57 484 57 q 676 84 622 57 q 765 160 730 111 q 816 277 800 210 q 834 427 833 345 l 840 817 q 844 917 840 875 l 744 911 l 744 972 l 1002 972 l 1002 926 q 943 912 963 925 q 915 876 923 899 q 906 823 907 854 q 906 755 906 793 l 903 433 m 547 1293 l 551 1293 l 806 1097 l 775 1050 l 545 1173 l 542 1173 l 306 1051 l 278 1096 l 547 1293 z "},"":{"ha":1044,"x_min":43,"x_max":1002,"o":"m 903 433 q 883 260 903 342 q 820 115 864 178 q 705 15 777 52 q 530 -22 634 -22 q 343 7 418 -22 q 222 97 268 36 q 157 251 176 157 q 137 473 137 345 l 137 755 q 137 796 137 774 q 139 841 138 819 q 140 883 140 863 q 142 917 141 903 l 43 913 l 43 972 l 355 972 l 355 926 q 300 915 319 926 q 272 886 281 903 q 261 850 262 869 q 259 817 259 831 l 259 467 q 263 365 259 415 q 278 269 267 314 q 310 184 290 223 q 361 117 330 146 q 439 73 393 89 q 547 57 484 57 q 676 84 622 57 q 765 160 730 111 q 816 277 800 210 q 834 427 833 345 l 840 817 q 844 917 840 875 l 744 911 l 744 972 l 1002 972 l 1002 926 q 943 912 963 925 q 915 876 923 899 q 906 823 907 854 q 906 755 906 793 l 903 433 m 748 1165 q 742 1131 748 1147 q 725 1103 736 1115 q 701 1084 715 1091 q 672 1078 687 1078 q 643 1084 656 1078 q 619 1103 629 1091 q 603 1131 609 1115 q 597 1165 597 1147 q 603 1200 597 1183 q 620 1228 609 1216 q 644 1247 631 1240 q 673 1255 658 1255 q 703 1247 689 1255 q 726 1228 716 1240 q 742 1200 736 1216 q 748 1165 748 1183 m 498 1165 q 492 1131 498 1147 q 476 1103 486 1115 q 451 1084 465 1091 q 422 1078 437 1078 q 393 1084 407 1078 q 370 1103 380 1091 q 353 1131 359 1115 q 347 1165 347 1147 q 353 1200 347 1183 q 370 1228 359 1216 q 395 1247 381 1240 q 424 1255 408 1255 q 453 1247 439 1255 q 477 1228 467 1240 q 493 1200 487 1216 q 498 1165 498 1183 z "},"":{"ha":880,"x_min":-8,"x_max":895,"o":"m 394 375 l 153 757 q 100 850 117 812 q 78 914 83 888 l -8 911 l -8 972 l 350 972 l 350 926 q 277 915 302 926 q 244 884 252 904 q 247 836 237 864 q 277 775 256 808 q 326 697 302 734 q 372 624 349 660 q 419 551 395 588 q 474 472 444 513 l 477 472 q 662 822 632 768 q 701 890 692 876 q 721 916 711 905 l 611 911 l 611 972 l 895 972 l 895 926 q 833 913 860 924 q 782 879 806 901 q 736 824 758 857 q 515 416 714 791 q 514 257 514 349 q 514 165 513 165 q 510 56 514 91 l 625 61 l 625 0 l 299 0 l 299 46 q 357 61 338 47 q 385 97 377 75 q 393 151 393 120 q 393 216 393 181 l 394 375 m 445 1055 l 414 1096 l 589 1263 q 626 1284 610 1280 q 655 1286 643 1289 q 674 1278 667 1284 q 683 1270 681 1272 q 690 1256 686 1265 q 691 1234 693 1246 q 680 1208 689 1222 q 646 1179 670 1194 l 445 1055 z "},"":{"ha":828,"x_min":77,"x_max":793,"o":"m 172 817 q 173 870 172 845 q 177 917 174 896 l 77 911 l 77 972 l 389 972 l 389 926 q 336 916 355 925 q 308 889 317 906 q 296 848 298 871 q 294 803 294 827 l 368 804 q 683 736 574 804 q 793 527 793 669 q 784 454 793 490 q 753 383 774 417 q 695 320 731 349 q 607 270 659 292 q 488 236 555 248 q 313 224 422 224 l 294 224 l 294 165 q 293 100 294 127 q 289 56 292 73 l 389 61 l 389 0 l 77 0 l 77 46 q 129 57 110 47 q 158 83 149 66 q 170 124 168 100 q 172 176 172 147 l 172 817 m 330 751 q 294 749 312 750 l 294 281 q 321 278 309 279 q 351 277 336 277 q 487 294 429 277 q 582 343 545 311 q 638 421 620 376 q 657 524 657 467 q 587 693 657 635 q 376 751 517 751 q 330 751 351 751 z "},"":{"ha":946,"x_min":35,"x_max":907,"o":"m 270 147 q 269 98 270 119 q 264 53 269 77 l 351 57 l 351 0 l 68 0 l 68 41 q 117 54 100 41 q 141 89 134 66 q 149 142 148 111 q 150 211 150 174 l 149 635 l 35 632 l 35 694 l 149 694 l 149 696 q 170 839 149 773 q 233 953 191 905 q 337 1028 275 1001 q 483 1055 400 1055 q 543 1050 509 1055 q 612 1033 576 1046 q 683 997 648 1020 q 744 938 717 975 q 788 849 771 901 q 804 726 804 797 q 804 698 804 712 q 800 664 803 684 q 762 666 783 665 q 718 667 741 667 q 656 663 687 667 q 599 648 625 659 q 558 615 574 636 q 542 559 542 594 q 557 504 542 528 q 599 460 573 480 q 657 424 625 441 q 725 389 690 406 q 792 352 759 372 q 850 308 825 332 q 892 254 876 284 q 907 183 907 223 q 890 92 907 130 q 842 27 873 53 q 768 -10 811 2 q 671 -22 724 -22 q 636 -20 656 -22 q 594 -12 616 -17 q 551 2 572 -6 q 511 22 530 11 l 515 -11 l 449 -11 l 449 228 l 492 228 q 507 149 494 184 q 543 86 520 113 q 596 46 565 60 q 669 32 628 32 q 714 39 692 32 q 753 60 736 46 q 781 96 770 75 q 791 144 791 117 q 775 198 791 175 q 735 240 760 221 q 677 274 709 258 q 611 306 645 290 q 546 341 578 322 q 488 385 513 360 q 447 441 463 409 q 432 515 432 473 q 448 598 432 561 q 494 662 464 635 q 570 703 525 688 q 674 717 615 717 l 684 717 l 684 732 q 674 840 684 795 q 646 913 663 884 q 607 959 629 943 q 563 984 585 976 q 522 994 540 992 q 478 996 505 996 q 378 969 422 996 q 311 897 334 943 q 278 786 288 852 q 269 636 269 720 l 270 147 z "},"":{"ha":717,"x_min":47,"x_max":682,"o":"m 471 340 q 405 334 439 338 q 337 320 370 330 q 275 297 304 311 q 224 263 246 283 q 191 218 203 243 q 180 159 178 192 q 190 114 180 134 q 213 82 199 95 q 247 63 228 70 q 288 57 266 57 q 340 62 315 57 q 386 78 364 68 q 429 104 408 89 q 471 138 450 119 l 471 340 m 90 550 q 110 615 90 585 q 167 668 130 646 q 254 704 203 691 q 364 717 304 717 q 536 655 481 717 q 591 459 591 593 l 589 147 q 588 103 589 125 q 584 53 587 81 l 682 58 l 682 0 l 484 0 q 477 41 479 24 q 474 79 475 59 q 372 5 427 32 q 255 -22 317 -22 q 164 -10 203 -22 q 99 25 125 3 q 60 78 73 47 q 47 142 47 108 q 66 220 47 185 q 116 283 85 256 q 190 331 148 311 q 279 363 232 351 q 375 382 326 376 q 471 387 425 388 l 471 474 q 467 544 471 510 q 449 606 463 578 q 406 650 435 633 q 338 666 376 666 q 295 662 315 666 q 255 650 275 659 q 219 627 235 641 q 193 593 203 612 q 207 567 203 581 q 211 541 211 553 q 208 522 211 532 q 197 502 204 511 q 179 487 190 493 q 149 481 168 481 q 105 502 121 481 q 90 550 90 522 m 222 953 q 199 987 205 971 q 195 998 197 991 q 193 1013 193 1005 q 195 1029 193 1021 q 204 1045 197 1036 q 221 1058 211 1054 q 243 1063 232 1063 q 270 1055 254 1063 q 300 1025 285 1047 l 417 838 l 378 806 l 222 953 z "},"":{"ha":717,"x_min":47,"x_max":682,"o":"m 471 340 q 405 334 439 338 q 337 320 370 330 q 275 297 304 311 q 224 263 246 283 q 191 218 203 243 q 180 159 178 192 q 190 114 180 134 q 213 82 199 95 q 247 63 228 70 q 288 57 266 57 q 340 62 315 57 q 386 78 364 68 q 429 104 408 89 q 471 138 450 119 l 471 340 m 90 550 q 110 615 90 585 q 167 668 130 646 q 254 704 203 691 q 364 717 304 717 q 536 655 481 717 q 591 459 591 593 l 589 147 q 588 103 589 125 q 584 53 587 81 l 682 58 l 682 0 l 484 0 q 477 41 479 24 q 474 79 475 59 q 372 5 427 32 q 255 -22 317 -22 q 164 -10 203 -22 q 99 25 125 3 q 60 78 73 47 q 47 142 47 108 q 66 220 47 185 q 116 283 85 256 q 190 331 148 311 q 279 363 232 351 q 375 382 326 376 q 471 387 425 388 l 471 474 q 467 544 471 510 q 449 606 463 578 q 406 650 435 633 q 338 666 376 666 q 295 662 315 666 q 255 650 275 659 q 219 627 235 641 q 193 593 203 612 q 207 567 203 581 q 211 541 211 553 q 208 522 211 532 q 197 502 204 511 q 179 487 190 493 q 149 481 168 481 q 105 502 121 481 q 90 550 90 522 m 307 806 l 269 838 l 385 1025 q 416 1055 401 1047 q 443 1063 431 1063 q 464 1058 454 1063 q 481 1045 475 1054 q 491 1029 488 1036 q 493 1013 493 1021 q 491 998 493 1005 q 487 987 489 991 q 463 953 481 971 l 307 806 z "},"":{"ha":717,"x_min":47,"x_max":682,"o":"m 471 340 q 405 334 439 338 q 337 320 370 330 q 275 297 304 311 q 224 263 246 283 q 191 218 203 243 q 180 159 178 192 q 190 114 180 134 q 213 82 199 95 q 247 63 228 70 q 288 57 266 57 q 340 62 315 57 q 386 78 364 68 q 429 104 408 89 q 471 138 450 119 l 471 340 m 90 550 q 110 615 90 585 q 167 668 130 646 q 254 704 203 691 q 364 717 304 717 q 536 655 481 717 q 591 459 591 593 l 589 147 q 588 103 589 125 q 584 53 587 81 l 682 58 l 682 0 l 484 0 q 477 41 479 24 q 474 79 475 59 q 372 5 427 32 q 255 -22 317 -22 q 164 -10 203 -22 q 99 25 125 3 q 60 78 73 47 q 47 142 47 108 q 66 220 47 185 q 116 283 85 256 q 190 331 148 311 q 279 363 232 351 q 375 382 326 376 q 471 387 425 388 l 471 474 q 467 544 471 510 q 449 606 463 578 q 406 650 435 633 q 338 666 376 666 q 295 662 315 666 q 255 650 275 659 q 219 627 235 641 q 193 593 203 612 q 207 567 203 581 q 211 541 211 553 q 208 522 211 532 q 197 502 204 511 q 179 487 190 493 q 149 481 168 481 q 105 502 121 481 q 90 550 90 522 m 348 1080 l 351 1080 l 557 854 l 520 810 l 344 961 l 341 961 l 161 819 l 127 860 l 348 1080 z "},"":{"ha":717,"x_min":47,"x_max":682,"o":"m 471 340 q 405 334 439 338 q 337 320 370 330 q 275 297 304 311 q 224 263 246 283 q 191 218 203 243 q 180 159 178 192 q 190 114 180 134 q 213 82 199 95 q 247 63 228 70 q 288 57 266 57 q 340 62 315 57 q 386 78 364 68 q 429 104 408 89 q 471 138 450 119 l 471 340 m 90 550 q 110 615 90 585 q 167 668 130 646 q 254 704 203 691 q 364 717 304 717 q 536 655 481 717 q 591 459 591 593 l 589 147 q 588 103 589 125 q 584 53 587 81 l 682 58 l 682 0 l 484 0 q 477 41 479 24 q 474 79 475 59 q 372 5 427 32 q 255 -22 317 -22 q 164 -10 203 -22 q 99 25 125 3 q 60 78 73 47 q 47 142 47 108 q 66 220 47 185 q 116 283 85 256 q 190 331 148 311 q 279 363 232 351 q 375 382 326 376 q 471 387 425 388 l 471 474 q 467 544 471 510 q 449 606 463 578 q 406 650 435 633 q 338 666 376 666 q 295 662 315 666 q 255 650 275 659 q 219 627 235 641 q 193 593 203 612 q 207 567 203 581 q 211 541 211 553 q 208 522 211 532 q 197 502 204 511 q 179 487 190 493 q 149 481 168 481 q 105 502 121 481 q 90 550 90 522 m 246 925 q 192 911 220 925 q 144 867 164 897 l 103 890 q 128 936 112 915 q 163 974 144 958 q 204 1000 183 990 q 245 1010 225 1009 q 302 998 277 1010 q 347 973 326 987 q 386 947 367 959 q 428 936 405 936 q 486 954 458 936 q 529 1003 513 972 l 570 982 q 542 923 558 947 q 506 882 525 898 q 466 858 486 865 q 428 850 446 850 q 370 862 395 850 q 324 887 345 873 q 284 913 302 901 q 246 925 265 925 z "},"":{"ha":717,"x_min":47,"x_max":682,"o":"m 471 340 q 405 334 439 338 q 337 320 370 330 q 275 297 304 311 q 224 263 246 283 q 191 218 203 243 q 180 159 178 192 q 190 114 180 134 q 213 82 199 95 q 247 63 228 70 q 288 57 266 57 q 340 62 315 57 q 386 78 364 68 q 429 104 408 89 q 471 138 450 119 l 471 340 m 90 550 q 110 615 90 585 q 167 668 130 646 q 254 704 203 691 q 364 717 304 717 q 536 655 481 717 q 591 459 591 593 l 589 147 q 588 103 589 125 q 584 53 587 81 l 682 58 l 682 0 l 484 0 q 477 41 479 24 q 474 79 475 59 q 372 5 427 32 q 255 -22 317 -22 q 164 -10 203 -22 q 99 25 125 3 q 60 78 73 47 q 47 142 47 108 q 66 220 47 185 q 116 283 85 256 q 190 331 148 311 q 279 363 232 351 q 375 382 326 376 q 471 387 425 388 l 471 474 q 467 544 471 510 q 449 606 463 578 q 406 650 435 633 q 338 666 376 666 q 295 662 315 666 q 255 650 275 659 q 219 627 235 641 q 193 593 203 612 q 207 567 203 581 q 211 541 211 553 q 208 522 211 532 q 197 502 204 511 q 179 487 190 493 q 149 481 168 481 q 105 502 121 481 q 90 550 90 522 m 292 928 q 286 897 292 911 q 271 870 280 882 q 249 853 261 859 q 222 846 236 846 q 196 853 208 846 q 174 870 183 859 q 159 897 164 882 q 153 928 153 911 q 159 961 153 945 q 174 988 165 977 q 197 1006 184 999 q 223 1013 210 1013 q 251 1006 238 1013 q 272 988 263 999 q 287 961 281 977 q 292 928 292 945 m 524 928 q 518 897 524 911 q 503 870 512 882 q 480 853 493 859 q 454 846 468 846 q 428 853 440 846 q 406 870 415 859 q 391 897 396 882 q 385 928 385 911 q 391 961 385 945 q 406 988 397 977 q 429 1006 416 999 q 455 1013 441 1013 q 483 1006 470 1013 q 504 988 495 999 q 518 961 513 977 q 524 928 524 945 z "},"":{"ha":717,"x_min":47,"x_max":682,"o":"m 471 340 q 405 334 439 338 q 337 320 370 330 q 275 297 304 311 q 224 263 246 283 q 191 218 203 243 q 180 159 178 192 q 190 114 180 134 q 213 82 199 95 q 247 63 228 70 q 288 57 266 57 q 340 62 315 57 q 386 78 364 68 q 429 104 408 89 q 471 138 450 119 l 471 340 m 90 550 q 110 615 90 585 q 167 668 130 646 q 254 704 203 691 q 364 717 304 717 q 536 655 481 717 q 591 459 591 593 l 589 147 q 588 103 589 125 q 584 53 587 81 l 682 58 l 682 0 l 484 0 q 477 41 479 24 q 474 79 475 59 q 372 5 427 32 q 255 -22 317 -22 q 164 -10 203 -22 q 99 25 125 3 q 60 78 73 47 q 47 142 47 108 q 66 220 47 185 q 116 283 85 256 q 190 331 148 311 q 279 363 232 351 q 375 382 326 376 q 471 387 425 388 l 471 474 q 467 544 471 510 q 449 606 463 578 q 406 650 435 633 q 338 666 376 666 q 295 662 315 666 q 255 650 275 659 q 219 627 235 641 q 193 593 203 612 q 207 567 203 581 q 211 541 211 553 q 208 522 211 532 q 197 502 204 511 q 179 487 190 493 q 149 481 168 481 q 105 502 121 481 q 90 550 90 522 m 349 1014 q 307 992 326 1014 q 288 930 288 971 q 292 893 288 911 q 305 863 296 876 q 326 842 313 850 q 353 835 338 835 q 396 857 379 835 q 413 917 413 879 q 396 988 413 962 q 349 1014 380 1014 m 349 1057 q 398 1050 374 1057 q 441 1027 422 1042 q 473 986 460 1011 q 486 932 486 960 q 475 872 486 897 q 445 829 464 848 q 402 801 426 811 q 352 791 378 791 q 301 799 326 791 q 257 823 277 807 q 226 864 238 840 q 214 924 214 889 q 226 978 214 954 q 257 1020 238 1002 q 300 1047 276 1038 q 349 1057 324 1057 z "},"":{"ha":1079,"x_min":47,"x_max":1023,"o":"m 479 149 q 475 186 477 163 q 471 236 473 210 q 468 288 469 262 q 465 334 466 314 q 368 323 418 332 q 276 293 318 313 q 207 241 234 273 q 180 162 180 209 q 191 110 180 130 q 218 78 201 90 q 255 61 235 66 q 293 56 275 56 q 396 81 351 56 q 479 149 441 105 m 763 663 q 693 646 722 663 q 646 602 665 630 q 616 538 627 574 q 600 460 605 501 l 889 460 q 885 533 889 496 q 867 598 880 569 q 828 645 853 627 q 763 663 804 663 m 92 545 q 110 607 92 576 q 161 663 127 638 q 242 702 195 687 q 350 717 290 717 q 468 685 420 717 q 542 597 517 654 q 637 683 581 650 q 768 717 694 717 q 866 700 821 717 q 944 646 911 683 q 995 551 977 609 q 1015 410 1014 492 l 591 401 q 589 351 589 375 q 604 221 589 278 q 648 126 620 165 q 713 68 675 88 q 796 49 751 49 q 856 58 829 49 q 907 82 884 66 q 950 118 930 97 q 988 164 970 140 l 1023 136 q 963 63 994 93 q 900 14 932 33 q 832 -14 867 -5 q 763 -22 798 -22 q 617 9 681 -22 q 515 109 553 40 l 513 109 q 456 48 487 73 q 393 7 426 23 q 323 -15 359 -8 q 250 -22 288 -22 q 165 -10 203 -22 q 101 23 127 2 q 61 75 75 45 q 47 139 47 104 q 66 217 47 182 q 115 279 84 252 q 188 325 146 306 q 276 357 229 345 q 372 376 323 370 q 467 382 421 382 l 467 467 q 464 539 467 504 q 446 603 460 575 q 404 649 431 631 q 330 666 376 666 q 285 660 307 666 q 245 644 263 654 q 213 617 227 633 q 191 583 199 602 q 205 560 201 574 q 210 538 210 546 q 207 519 210 530 q 196 500 203 509 q 178 485 189 491 q 150 479 166 479 q 108 497 124 479 q 92 545 92 515 z "},"":{"ha":742,"x_min":58,"x_max":693,"o":"m 449 -79 q 517 -103 492 -79 q 542 -170 542 -127 q 528 -220 542 -198 q 492 -260 515 -243 q 441 -290 470 -277 q 382 -311 412 -302 q 322 -326 352 -320 q 269 -335 293 -332 l 261 -288 q 327 -272 296 -282 q 380 -249 357 -262 q 415 -219 402 -236 q 428 -182 428 -203 q 415 -151 428 -160 q 384 -141 402 -141 q 351 -146 368 -141 q 321 -161 334 -152 l 274 -138 l 308 -11 q 269 1 288 -5 q 159 72 206 26 q 85 184 113 117 q 58 335 58 250 q 70 430 58 383 q 104 519 82 477 q 159 598 127 562 q 231 661 191 634 q 319 702 271 687 q 420 717 367 717 q 526 703 478 717 q 607 665 573 688 q 659 610 641 641 q 677 545 677 578 q 673 517 677 530 q 661 494 669 504 q 641 478 652 484 q 613 472 629 472 q 583 478 595 472 q 563 494 570 484 q 552 514 555 503 q 549 534 549 525 q 553 563 549 548 q 570 591 557 578 q 542 630 560 615 q 502 652 524 644 q 460 663 481 661 q 424 665 439 665 q 335 646 376 665 q 264 589 294 627 q 217 496 235 552 q 200 369 200 441 q 217 241 200 300 q 266 140 235 182 q 341 74 297 98 q 439 50 385 50 q 503 59 471 50 q 564 85 535 68 q 616 123 592 101 q 657 170 640 144 l 693 142 q 630 67 665 98 q 555 17 594 37 q 476 -13 516 -3 q 401 -22 437 -22 q 381 -22 391 -22 l 354 -103 q 399 -85 374 -91 q 449 -79 425 -79 z "},"":{"ha":753,"x_min":58,"x_max":699,"o":"m 410 663 q 275 615 328 663 q 205 460 222 567 l 559 460 q 551 533 559 496 q 525 598 543 569 q 479 645 507 627 q 410 663 450 663 m 690 410 l 201 401 q 214 256 201 321 q 254 145 227 191 q 326 74 282 99 q 431 49 370 49 q 497 58 463 49 q 563 82 531 66 q 621 118 594 97 q 665 164 647 140 l 699 136 q 632 63 670 93 q 554 14 595 33 q 473 -14 514 -5 q 397 -22 433 -22 q 263 3 326 -22 q 156 77 201 29 q 84 193 111 125 q 58 346 58 261 q 83 486 58 419 q 155 604 109 553 q 265 686 201 656 q 408 717 330 717 q 517 698 466 717 q 607 641 568 679 q 668 545 646 603 q 690 410 690 487 m 252 953 q 228 987 234 971 q 224 998 226 991 q 222 1013 222 1005 q 224 1029 222 1021 q 233 1045 227 1036 q 251 1058 240 1054 q 272 1063 261 1063 q 299 1055 283 1063 q 330 1025 314 1047 l 446 838 l 408 806 l 252 953 z "},"":{"ha":753,"x_min":58,"x_max":699,"o":"m 410 663 q 275 615 328 663 q 205 460 222 567 l 559 460 q 551 533 559 496 q 525 598 543 569 q 479 645 507 627 q 410 663 450 663 m 690 410 l 201 401 q 214 256 201 321 q 254 145 227 191 q 326 74 282 99 q 431 49 370 49 q 497 58 463 49 q 563 82 531 66 q 621 118 594 97 q 665 164 647 140 l 699 136 q 632 63 670 93 q 554 14 595 33 q 473 -14 514 -5 q 397 -22 433 -22 q 263 3 326 -22 q 156 77 201 29 q 84 193 111 125 q 58 346 58 261 q 83 486 58 419 q 155 604 109 553 q 265 686 201 656 q 408 717 330 717 q 517 698 466 717 q 607 641 568 679 q 668 545 646 603 q 690 410 690 487 m 366 806 l 328 838 l 444 1025 q 475 1055 460 1047 q 502 1063 490 1063 q 523 1058 513 1063 q 541 1045 534 1054 q 550 1029 547 1036 q 552 1013 552 1021 q 550 998 552 1005 q 546 987 548 991 q 522 953 540 971 l 366 806 z "},"":{"ha":753,"x_min":58,"x_max":699,"o":"m 410 663 q 275 615 328 663 q 205 460 222 567 l 559 460 q 551 533 559 496 q 525 598 543 569 q 479 645 507 627 q 410 663 450 663 m 690 410 l 201 401 q 214 256 201 321 q 254 145 227 191 q 326 74 282 99 q 431 49 370 49 q 497 58 463 49 q 563 82 531 66 q 621 118 594 97 q 665 164 647 140 l 699 136 q 632 63 670 93 q 554 14 595 33 q 473 -14 514 -5 q 397 -22 433 -22 q 263 3 326 -22 q 156 77 201 29 q 84 193 111 125 q 58 346 58 261 q 83 486 58 419 q 155 604 109 553 q 265 686 201 656 q 408 717 330 717 q 517 698 466 717 q 607 641 568 679 q 668 545 646 603 q 690 410 690 487 m 408 1080 l 410 1080 l 617 854 l 580 810 l 404 961 l 401 961 l 221 819 l 186 860 l 408 1080 z "},"":{"ha":753,"x_min":58,"x_max":699,"o":"m 410 663 q 275 615 328 663 q 205 460 222 567 l 559 460 q 551 533 559 496 q 525 598 543 569 q 479 645 507 627 q 410 663 450 663 m 690 410 l 201 401 q 214 256 201 321 q 254 145 227 191 q 326 74 282 99 q 431 49 370 49 q 497 58 463 49 q 563 82 531 66 q 621 118 594 97 q 665 164 647 140 l 699 136 q 632 63 670 93 q 554 14 595 33 q 473 -14 514 -5 q 397 -22 433 -22 q 263 3 326 -22 q 156 77 201 29 q 84 193 111 125 q 58 346 58 261 q 83 486 58 419 q 155 604 109 553 q 265 686 201 656 q 408 717 330 717 q 517 698 466 717 q 607 641 568 679 q 668 545 646 603 q 690 410 690 487 m 347 928 q 341 897 347 911 q 326 870 336 882 q 304 853 317 859 q 278 846 292 846 q 251 853 264 846 q 229 870 239 859 q 214 897 220 882 q 209 928 209 911 q 215 961 209 945 q 230 988 220 977 q 252 1006 239 999 q 279 1013 265 1013 q 306 1006 294 1013 q 328 988 319 999 q 342 961 337 977 q 347 928 347 945 m 579 928 q 573 897 579 911 q 558 870 568 882 q 536 853 549 859 q 510 846 524 846 q 483 853 496 846 q 461 870 471 859 q 446 897 452 882 q 441 928 441 911 q 447 961 441 945 q 462 988 452 977 q 484 1006 471 999 q 511 1013 497 1013 q 538 1006 526 1013 q 560 988 551 999 q 574 961 569 977 q 579 928 579 945 z "},"":{"ha":390,"x_min":6,"x_max":344,"o":"m 142 528 q 143 570 142 549 q 148 618 144 590 l 50 612 l 50 671 q 125 674 95 671 q 174 682 155 677 q 203 694 193 688 q 222 708 214 701 l 262 708 l 262 147 q 261 98 262 119 q 256 53 260 77 l 344 57 l 344 0 l 60 0 l 60 41 q 109 54 92 41 q 133 89 125 66 q 141 142 140 111 q 142 211 142 174 l 142 528 m 36 953 q 12 987 18 971 q 8 998 10 991 q 6 1013 6 1005 q 8 1029 6 1021 q 18 1045 11 1036 q 35 1058 24 1054 q 57 1063 45 1063 q 83 1055 68 1063 q 114 1025 98 1047 l 231 838 l 192 806 l 36 953 z "},"":{"ha":392,"x_min":51,"x_max":364,"o":"m 144 528 q 145 570 144 549 q 149 618 146 590 l 51 612 l 51 671 q 126 674 96 671 q 175 682 156 677 q 204 694 194 688 q 223 708 215 701 l 263 708 l 263 147 q 262 98 263 119 q 258 53 262 77 l 345 57 l 345 0 l 62 0 l 62 41 q 110 54 93 41 q 134 89 127 66 q 143 142 142 111 q 144 211 144 174 l 144 528 m 178 806 l 140 838 l 256 1025 q 287 1055 272 1047 q 314 1063 302 1063 q 335 1058 325 1063 q 353 1045 346 1054 q 362 1029 359 1036 q 364 1013 364 1021 q 362 998 364 1005 q 358 987 360 991 q 334 953 352 971 l 178 806 z "},"":{"ha":390,"x_min":0,"x_max":389,"o":"m 200 1080 l 203 1080 l 389 854 l 351 810 l 196 954 l 193 954 l 35 819 l 0 860 l 200 1080 m 144 528 q 145 570 144 549 q 149 618 146 590 l 51 612 l 51 671 q 126 674 96 671 q 175 682 156 677 q 204 694 194 688 q 223 708 215 701 l 263 708 l 263 147 q 262 98 263 119 q 258 53 262 77 l 345 57 l 345 0 l 62 0 l 62 41 q 110 54 93 41 q 134 89 127 66 q 143 142 142 111 q 144 211 144 174 l 144 528 z "},"":{"ha":390,"x_min":26,"x_max":359,"o":"m 144 528 q 145 570 144 549 q 149 618 146 590 l 51 612 l 51 671 q 126 674 96 671 q 175 682 156 677 q 204 694 194 688 q 223 708 215 701 l 263 708 l 263 147 q 262 98 263 119 q 258 53 262 77 l 345 57 l 345 0 l 62 0 l 62 41 q 110 54 93 41 q 134 89 127 66 q 143 142 142 111 q 144 211 144 174 l 144 528 m 165 928 q 159 896 165 911 q 144 870 153 881 q 122 852 134 859 q 96 846 109 846 q 69 852 81 846 q 47 870 56 859 q 32 896 37 881 q 26 928 26 911 q 32 961 26 945 q 47 987 38 976 q 70 1005 57 999 q 96 1012 83 1012 q 124 1005 111 1012 q 145 987 136 999 q 160 961 155 976 q 165 928 165 945 m 359 928 q 354 896 359 911 q 338 870 348 881 q 316 852 329 859 q 290 846 304 846 q 263 852 276 846 q 241 870 251 859 q 227 896 232 881 q 221 928 221 911 q 227 961 221 945 q 242 987 233 976 q 264 1005 252 999 q 291 1012 277 1012 q 318 1005 306 1012 q 340 987 331 999 q 354 961 349 976 q 359 928 359 945 z "},"":{"ha":777,"x_min":60,"x_max":697,"o":"m 203 864 l 283 960 q 216 984 251 974 q 143 997 182 994 l 149 1055 q 243 1042 199 1053 q 329 1013 288 1031 l 404 1101 l 444 1064 l 383 987 q 516 881 458 945 q 614 737 574 817 q 676 565 654 658 q 697 378 697 473 q 678 222 697 295 q 617 95 659 150 q 512 9 576 41 q 359 -22 448 -22 q 242 0 297 -22 q 147 66 188 23 q 83 170 106 109 q 60 309 60 231 q 81 451 60 382 q 141 573 102 520 q 237 657 180 626 q 366 689 294 689 q 418 684 391 689 q 472 669 446 680 q 521 641 498 659 q 559 597 544 623 l 562 597 q 533 684 552 639 q 486 774 514 730 q 421 859 458 819 q 338 929 385 899 l 253 822 l 203 864 m 574 318 q 570 387 574 351 q 558 457 566 422 q 535 524 549 492 q 500 579 521 555 q 451 618 479 604 q 386 632 422 632 q 306 608 340 632 q 247 544 271 585 q 211 450 223 503 q 199 338 199 397 q 213 207 199 263 q 251 111 227 150 q 309 53 275 73 q 382 33 342 33 q 454 51 420 33 q 515 105 489 69 q 557 194 541 140 q 574 318 574 247 z "},"":{"ha":842,"x_min":52,"x_max":802,"o":"m 144 528 q 145 572 144 549 q 150 618 146 594 l 52 612 l 52 671 q 125 674 97 671 q 171 682 154 677 q 198 694 189 688 q 216 708 208 701 l 256 708 q 259 672 257 692 q 262 624 260 652 q 311 661 284 644 q 367 690 338 677 q 427 710 396 703 q 488 717 458 717 q 664 641 608 717 q 720 406 720 566 l 720 147 q 719 98 720 119 q 714 53 718 77 l 802 57 l 802 0 l 518 0 l 518 41 q 567 54 550 41 q 591 89 583 66 q 599 142 598 111 q 600 211 600 174 l 600 405 q 561 586 599 525 q 440 646 523 646 q 390 639 415 646 q 342 620 365 631 q 298 591 319 608 q 263 556 278 575 q 264 530 264 544 q 264 502 264 516 l 262 147 q 262 98 262 119 q 257 53 261 77 l 345 57 l 345 0 l 61 0 l 61 41 q 110 54 93 41 q 133 89 126 66 q 141 142 140 111 q 143 211 142 174 l 144 528 m 332 925 q 278 911 307 925 q 231 867 250 897 l 189 890 q 214 936 198 915 q 250 974 230 958 q 290 1000 269 990 q 331 1010 311 1009 q 388 998 363 1010 q 433 973 412 987 q 472 947 453 959 q 514 936 491 936 q 572 954 545 936 q 615 1003 599 972 l 656 982 q 628 923 644 947 q 592 882 611 898 q 552 858 572 865 q 514 850 532 850 q 456 862 481 850 q 410 887 431 873 q 370 913 389 901 q 332 925 351 925 z "},"":{"ha":812,"x_min":57,"x_max":755,"o":"m 406 664 q 312 640 351 664 q 248 574 273 615 q 211 481 222 534 q 199 371 199 428 q 212 245 199 307 q 252 137 225 184 q 320 62 279 90 q 416 33 361 33 q 509 58 471 33 q 570 123 547 83 q 604 216 593 164 q 614 323 614 269 q 602 447 614 386 q 566 556 591 508 q 501 634 541 604 q 406 664 461 664 m 406 717 q 543 690 479 717 q 653 616 606 663 q 728 504 701 569 q 755 364 755 439 q 729 213 755 283 q 655 90 702 142 q 544 8 608 38 q 406 -22 479 -22 q 269 4 332 -22 q 158 77 205 30 q 84 188 111 123 q 57 330 57 253 q 84 483 57 412 q 157 606 111 554 q 268 687 204 658 q 406 717 332 717 m 277 953 q 254 987 260 971 q 250 998 252 991 q 248 1013 248 1005 q 250 1029 248 1021 q 259 1045 252 1036 q 276 1058 266 1054 q 298 1063 287 1063 q 325 1055 309 1063 q 355 1025 340 1047 l 472 838 l 433 806 l 277 953 z "},"":{"ha":812,"x_min":57,"x_max":755,"o":"m 406 664 q 312 640 351 664 q 248 574 273 615 q 211 481 222 534 q 199 371 199 428 q 212 245 199 307 q 252 137 225 184 q 320 62 279 90 q 416 33 361 33 q 509 58 471 33 q 570 123 547 83 q 604 216 593 164 q 614 323 614 269 q 602 447 614 386 q 566 556 591 508 q 501 634 541 604 q 406 664 461 664 m 406 717 q 543 690 479 717 q 653 616 606 663 q 728 504 701 569 q 755 364 755 439 q 729 213 755 283 q 655 90 702 142 q 544 8 608 38 q 406 -22 479 -22 q 269 4 332 -22 q 158 77 205 30 q 84 188 111 123 q 57 330 57 253 q 84 483 57 412 q 157 606 111 554 q 268 687 204 658 q 406 717 332 717 m 366 806 l 328 838 l 444 1025 q 475 1055 460 1047 q 502 1063 490 1063 q 523 1058 513 1063 q 541 1045 534 1054 q 550 1029 547 1036 q 552 1013 552 1021 q 550 998 552 1005 q 546 987 548 991 q 522 953 540 971 l 366 806 z "},"":{"ha":812,"x_min":57,"x_max":755,"o":"m 406 664 q 312 640 351 664 q 248 574 273 615 q 211 481 222 534 q 199 371 199 428 q 212 245 199 307 q 252 137 225 184 q 320 62 279 90 q 416 33 361 33 q 509 58 471 33 q 570 123 547 83 q 604 216 593 164 q 614 323 614 269 q 602 447 614 386 q 566 556 591 508 q 501 634 541 604 q 406 664 461 664 m 406 717 q 543 690 479 717 q 653 616 606 663 q 728 504 701 569 q 755 364 755 439 q 729 213 755 283 q 655 90 702 142 q 544 8 608 38 q 406 -22 479 -22 q 269 4 332 -22 q 158 77 205 30 q 84 188 111 123 q 57 330 57 253 q 84 483 57 412 q 157 606 111 554 q 268 687 204 658 q 406 717 332 717 m 411 1080 l 414 1080 l 621 854 l 583 810 l 407 961 l 404 961 l 224 819 l 190 860 l 411 1080 z "},"":{"ha":812,"x_min":57,"x_max":755,"o":"m 406 664 q 312 640 351 664 q 248 574 273 615 q 211 481 222 534 q 199 371 199 428 q 212 245 199 307 q 252 137 225 184 q 320 62 279 90 q 416 33 361 33 q 509 58 471 33 q 570 123 547 83 q 604 216 593 164 q 614 323 614 269 q 602 447 614 386 q 566 556 591 508 q 501 634 541 604 q 406 664 461 664 m 406 717 q 543 690 479 717 q 653 616 606 663 q 728 504 701 569 q 755 364 755 439 q 729 213 755 283 q 655 90 702 142 q 544 8 608 38 q 406 -22 479 -22 q 269 4 332 -22 q 158 77 205 30 q 84 188 111 123 q 57 330 57 253 q 84 483 57 412 q 157 606 111 554 q 268 687 204 658 q 406 717 332 717 m 315 925 q 261 911 290 925 q 214 867 233 897 l 172 890 q 197 936 181 915 q 233 974 213 958 q 273 1000 252 990 q 314 1010 294 1009 q 371 998 347 1010 q 416 973 395 987 q 455 947 436 959 q 497 936 474 936 q 555 954 528 936 q 598 1003 582 972 l 639 982 q 611 923 627 947 q 575 882 594 898 q 535 858 555 865 q 497 850 515 850 q 439 862 465 850 q 393 887 414 873 q 353 913 372 901 q 315 925 334 925 z "},"":{"ha":812,"x_min":57,"x_max":755,"o":"m 406 664 q 312 640 351 664 q 248 574 273 615 q 211 481 222 534 q 199 371 199 428 q 212 245 199 307 q 252 137 225 184 q 320 62 279 90 q 416 33 361 33 q 509 58 471 33 q 570 123 547 83 q 604 216 593 164 q 614 323 614 269 q 602 447 614 386 q 566 556 591 508 q 501 634 541 604 q 406 664 461 664 m 406 717 q 543 690 479 717 q 653 616 606 663 q 728 504 701 569 q 755 364 755 439 q 729 213 755 283 q 655 90 702 142 q 544 8 608 38 q 406 -22 479 -22 q 269 4 332 -22 q 158 77 205 30 q 84 188 111 123 q 57 330 57 253 q 84 483 57 412 q 157 606 111 554 q 268 687 204 658 q 406 717 332 717 m 355 928 q 349 897 355 911 q 334 870 343 882 q 312 853 324 859 q 286 846 299 846 q 259 853 271 846 q 237 870 246 859 q 222 897 227 882 q 216 928 216 911 q 222 961 216 945 q 237 988 228 977 q 260 1006 247 999 q 286 1013 273 1013 q 314 1006 301 1013 q 335 988 326 999 q 350 961 345 977 q 355 928 355 945 m 587 928 q 581 897 587 911 q 566 870 575 882 q 544 853 556 859 q 517 846 531 846 q 491 853 503 846 q 469 870 478 859 q 454 897 459 882 q 448 928 448 911 q 454 961 448 945 q 469 988 460 977 q 492 1006 479 999 q 518 1013 505 1013 q 546 1006 533 1013 q 567 988 558 999 q 582 961 576 977 q 587 928 587 945 z "},"":{"ha":367,"x_min":103,"x_max":265,"o":"m 265 150 q 258 115 265 132 q 240 87 252 99 q 215 68 229 75 q 184 61 200 61 q 153 68 168 61 q 127 87 138 75 q 110 115 116 99 q 103 150 103 132 q 110 185 103 169 q 128 214 117 202 q 154 234 139 227 q 185 241 169 241 q 217 234 202 241 q 242 214 231 227 q 259 185 253 202 q 265 150 265 169 m 265 626 q 258 591 265 608 q 240 563 252 575 q 215 544 229 551 q 184 537 200 537 q 153 544 168 537 q 127 563 138 551 q 110 591 116 575 q 103 626 103 608 q 110 662 103 645 q 128 690 117 678 q 154 710 139 703 q 185 717 169 717 q 217 710 202 717 q 242 690 231 703 q 259 662 253 678 q 265 626 265 645 z "},"":{"ha":812,"x_min":57,"x_max":755,"o":"m 406 717 q 576 673 498 717 l 647 785 l 713 742 l 640 629 l 653 616 q 728 505 701 569 q 755 364 755 440 q 729 213 755 283 q 655 90 702 142 q 544 8 608 38 q 406 -22 479 -22 q 319 -13 361 -22 q 241 16 278 -3 l 163 -104 l 111 -66 l 186 52 q 92 170 126 99 q 57 330 57 241 q 84 483 57 412 q 157 606 111 554 q 268 687 204 658 q 406 717 332 717 m 406 664 q 312 640 351 664 q 248 574 273 615 q 211 481 222 534 q 199 371 199 428 q 211 253 199 311 q 246 148 222 195 l 533 604 q 477 648 507 633 q 406 664 446 664 m 416 33 q 509 58 471 33 q 570 123 547 83 q 604 216 593 164 q 614 323 614 269 q 611 386 614 355 q 602 447 608 416 q 591 491 597 470 q 576 532 585 513 l 288 88 q 347 47 315 61 q 416 33 378 33 z "},"":{"ha":829,"x_min":36,"x_max":789,"o":"m 576 512 q 578 570 576 546 q 583 618 579 594 l 484 614 l 484 671 l 526 671 q 577 674 556 671 q 613 682 598 677 q 638 694 628 688 q 656 708 648 701 l 696 708 l 694 183 q 694 156 694 172 q 693 121 694 139 q 691 85 692 103 q 689 53 690 67 l 789 58 l 789 0 l 590 0 q 584 44 587 24 q 581 83 582 64 q 532 42 559 62 q 476 9 506 23 q 416 -14 447 -5 q 354 -22 385 -22 q 254 -7 297 -22 q 183 43 212 8 q 140 137 155 79 q 126 281 126 195 l 126 528 q 127 572 126 549 q 132 618 127 594 l 36 614 l 36 671 l 79 671 q 130 674 109 671 q 165 682 151 677 q 190 694 180 688 q 208 708 200 701 l 248 708 l 248 285 q 256 180 248 224 q 282 106 264 136 q 329 63 300 77 q 399 49 357 49 q 451 58 425 49 q 499 81 476 66 q 542 115 522 96 q 576 156 562 134 l 576 214 l 576 512 m 283 953 q 259 987 265 971 q 255 998 257 991 q 253 1013 253 1005 q 255 1029 253 1021 q 264 1045 258 1036 q 282 1058 271 1054 q 303 1063 292 1063 q 330 1055 315 1063 q 361 1025 345 1047 l 477 838 l 439 806 l 283 953 z "},"":{"ha":829,"x_min":36,"x_max":789,"o":"m 576 512 q 578 570 576 546 q 583 618 579 594 l 484 614 l 484 671 l 526 671 q 577 674 556 671 q 613 682 598 677 q 638 694 628 688 q 656 708 648 701 l 696 708 l 694 183 q 694 156 694 172 q 693 121 694 139 q 691 85 692 103 q 689 53 690 67 l 789 58 l 789 0 l 590 0 q 584 44 587 24 q 581 83 582 64 q 532 42 559 62 q 476 9 506 23 q 416 -14 447 -5 q 354 -22 385 -22 q 254 -7 297 -22 q 183 43 212 8 q 140 137 155 79 q 126 281 126 195 l 126 528 q 127 572 126 549 q 132 618 127 594 l 36 614 l 36 671 l 79 671 q 130 674 109 671 q 165 682 151 677 q 190 694 180 688 q 208 708 200 701 l 248 708 l 248 285 q 256 180 248 224 q 282 106 264 136 q 329 63 300 77 q 399 49 357 49 q 451 58 425 49 q 499 81 476 66 q 542 115 522 96 q 576 156 562 134 l 576 214 l 576 512 m 395 806 l 356 838 l 473 1025 q 504 1055 488 1047 q 530 1063 519 1063 q 552 1058 541 1063 q 569 1045 562 1054 q 578 1029 576 1036 q 581 1013 581 1021 q 578 998 581 1005 q 574 987 576 991 q 551 953 568 971 l 395 806 z "},"":{"ha":829,"x_min":36,"x_max":789,"o":"m 576 512 q 578 570 576 546 q 583 618 579 594 l 484 614 l 484 671 l 526 671 q 577 674 556 671 q 613 682 598 677 q 638 694 628 688 q 656 708 648 701 l 696 708 l 694 183 q 694 156 694 172 q 693 121 694 139 q 691 85 692 103 q 689 53 690 67 l 789 58 l 789 0 l 590 0 q 584 44 587 24 q 581 83 582 64 q 532 42 559 62 q 476 9 506 23 q 416 -14 447 -5 q 354 -22 385 -22 q 254 -7 297 -22 q 183 43 212 8 q 140 137 155 79 q 126 281 126 195 l 126 528 q 127 572 126 549 q 132 618 127 594 l 36 614 l 36 671 l 79 671 q 130 674 109 671 q 165 682 151 677 q 190 694 180 688 q 208 708 200 701 l 248 708 l 248 285 q 256 180 248 224 q 282 106 264 136 q 329 63 300 77 q 399 49 357 49 q 451 58 425 49 q 499 81 476 66 q 542 115 522 96 q 576 156 562 134 l 576 214 l 576 512 m 422 1080 l 425 1080 l 631 854 l 594 810 l 418 961 l 415 961 l 235 819 l 201 860 l 422 1080 z "},"":{"ha":829,"x_min":36,"x_max":789,"o":"m 576 512 q 578 570 576 546 q 583 618 579 594 l 484 614 l 484 671 l 526 671 q 577 674 556 671 q 613 682 598 677 q 638 694 628 688 q 656 708 648 701 l 696 708 l 694 183 q 694 156 694 172 q 693 121 694 139 q 691 85 692 103 q 689 53 690 67 l 789 58 l 789 0 l 590 0 q 584 44 587 24 q 581 83 582 64 q 532 42 559 62 q 476 9 506 23 q 416 -14 447 -5 q 354 -22 385 -22 q 254 -7 297 -22 q 183 43 212 8 q 140 137 155 79 q 126 281 126 195 l 126 528 q 127 572 126 549 q 132 618 127 594 l 36 614 l 36 671 l 79 671 q 130 674 109 671 q 165 682 151 677 q 190 694 180 688 q 208 708 200 701 l 248 708 l 248 285 q 256 180 248 224 q 282 106 264 136 q 329 63 300 77 q 399 49 357 49 q 451 58 425 49 q 499 81 476 66 q 542 115 522 96 q 576 156 562 134 l 576 214 l 576 512 m 377 928 q 371 897 377 911 q 356 870 366 882 q 334 853 347 859 q 308 846 321 846 q 281 853 294 846 q 259 870 269 859 q 244 897 250 882 q 239 928 239 911 q 244 961 239 945 q 260 988 250 977 q 282 1006 269 999 q 309 1013 295 1013 q 336 1006 323 1013 q 358 988 349 999 q 372 961 367 977 q 377 928 377 945 m 609 928 q 603 897 609 911 q 588 870 597 882 q 566 853 578 859 q 540 846 553 846 q 513 853 526 846 q 491 870 500 859 q 476 897 481 882 q 471 928 471 911 q 476 961 471 945 q 492 988 482 977 q 514 1006 501 999 q 541 1013 527 1013 q 568 1006 555 1013 q 590 988 581 999 q 604 961 599 977 q 609 928 609 945 z "},"":{"ha":733,"x_min":5,"x_max":728,"o":"m 179 -304 q 195 -307 186 -307 q 226 -297 207 -307 q 265 -252 245 -286 q 308 -161 283 -222 q 363 -16 332 -100 q 115 519 127 488 q 93 572 102 549 q 80 612 85 595 q 73 641 75 629 l 5 637 l 5 694 l 293 694 l 293 653 l 287 652 q 242 640 258 650 q 224 609 227 629 q 228 556 220 589 q 418 140 235 524 q 572 583 563 562 q 590 621 581 605 q 606 643 598 637 l 510 637 l 510 694 l 728 694 l 728 653 q 683 627 702 643 q 650 588 665 611 q 624 536 636 566 q 425 -12 612 507 q 367 -168 393 -100 q 312 -282 340 -236 q 249 -352 283 -328 q 168 -376 214 -376 q 127 -371 146 -376 q 94 -356 109 -366 q 72 -329 80 -345 q 64 -292 64 -313 q 68 -267 64 -279 q 80 -245 72 -255 q 99 -230 87 -236 q 123 -224 110 -224 q 151 -231 140 -224 q 169 -246 162 -237 q 178 -266 176 -256 q 181 -285 181 -277 q 181 -294 181 -289 q 179 -304 180 -299 m 397 806 l 358 838 l 475 1025 q 506 1055 490 1047 q 532 1063 521 1063 q 554 1058 543 1063 q 571 1045 564 1054 q 580 1029 578 1036 q 583 1013 583 1021 q 581 998 583 1005 q 576 987 578 991 q 553 953 570 971 l 397 806 z "},"":{"ha":802,"x_min":12,"x_max":741,"o":"m 105 868 q 106 912 105 890 q 111 958 106 935 l 12 953 l 12 1011 q 87 1014 58 1011 q 135 1023 117 1017 q 164 1035 154 1028 q 183 1048 175 1041 l 223 1048 l 222 642 q 319 697 265 677 q 431 717 374 717 q 551 692 494 717 q 649 623 607 668 q 716 512 692 577 q 741 367 741 448 q 713 206 741 278 q 637 83 685 134 q 524 5 589 33 q 387 -22 460 -22 q 297 -12 338 -22 q 222 21 256 -1 l 222 -207 q 221 -256 222 -235 q 216 -301 220 -277 l 304 -297 l 304 -354 l 20 -354 l 20 -313 q 69 -300 52 -313 q 93 -265 85 -288 q 101 -212 100 -243 q 102 -143 102 -180 l 105 868 m 385 649 q 294 630 336 649 q 222 578 253 610 l 222 86 q 385 33 292 33 q 473 56 434 33 q 541 121 513 79 q 583 219 568 162 q 598 346 598 277 q 586 456 598 401 q 548 553 574 511 q 482 623 522 596 q 385 649 441 649 z "},"":{"ha":733,"x_min":5,"x_max":728,"o":"m 179 -304 q 195 -307 186 -307 q 226 -297 207 -307 q 265 -252 245 -286 q 308 -161 283 -222 q 363 -16 332 -100 q 115 519 127 488 q 93 572 102 549 q 80 612 85 595 q 73 641 75 629 l 5 637 l 5 694 l 293 694 l 293 653 l 287 652 q 242 640 258 650 q 224 609 227 629 q 228 556 220 589 q 418 140 235 524 q 572 583 563 562 q 590 621 581 605 q 606 643 598 637 l 510 637 l 510 694 l 728 694 l 728 653 q 683 627 702 643 q 650 588 665 611 q 624 536 636 566 q 425 -12 612 507 q 367 -168 393 -100 q 312 -282 340 -236 q 249 -352 283 -328 q 168 -376 214 -376 q 127 -371 146 -376 q 94 -356 109 -366 q 72 -329 80 -345 q 64 -292 64 -313 q 68 -267 64 -279 q 80 -245 72 -255 q 99 -230 87 -236 q 123 -224 110 -224 q 151 -231 140 -224 q 169 -246 162 -237 q 178 -266 176 -256 q 181 -285 181 -277 q 181 -294 181 -289 q 179 -304 180 -299 m 355 928 q 350 897 355 911 q 334 870 344 882 q 312 853 325 859 q 286 846 300 846 q 259 853 272 846 q 237 870 247 859 q 222 897 228 882 q 217 928 217 911 q 223 961 217 945 q 238 988 229 977 q 260 1006 248 999 q 287 1013 273 1013 q 314 1006 302 1013 q 336 988 327 999 q 350 961 345 977 q 355 928 355 945 m 587 928 q 582 897 587 911 q 566 870 576 882 q 544 853 557 859 q 518 846 532 846 q 491 853 504 846 q 469 870 479 859 q 454 897 460 882 q 449 928 449 911 q 455 961 449 945 q 470 988 460 977 q 492 1006 479 999 q 519 1013 505 1013 q 546 1006 534 1013 q 568 988 559 999 q 582 961 577 977 q 587 928 587 945 z "},"":{"ha":390,"x_min":50,"x_max":345,"o":"m 143 528 q 144 570 143 549 q 149 618 145 590 l 50 612 l 50 671 q 125 674 96 671 q 174 682 155 677 q 204 694 193 688 q 222 708 214 701 l 262 708 l 262 147 q 262 98 262 119 q 257 53 261 77 l 345 57 l 345 0 l 61 0 l 61 41 q 109 54 92 41 q 134 89 126 66 q 142 142 141 111 q 143 211 143 174 l 143 528 z "},"":{"ha":803,"x_min":66,"x_max":773,"o":"m 293 563 l 434 668 l 434 593 l 293 487 l 293 160 q 292 95 293 121 q 288 52 291 69 l 548 56 q 625 70 591 56 q 681 111 659 83 q 715 182 703 138 q 726 288 726 226 l 773 288 l 765 0 l 76 0 l 76 46 q 129 57 109 47 q 157 83 148 66 q 169 124 167 100 q 172 176 172 147 l 172 216 l 172 395 l 66 317 l 66 395 l 172 473 l 172 817 q 173 870 172 845 q 176 917 174 896 l 76 911 l 76 972 l 389 972 l 389 926 q 336 916 355 925 q 307 889 317 906 q 295 848 298 871 q 293 796 293 825 l 293 755 l 293 563 z "},"":{"ha":407,"x_min":37,"x_max":384,"o":"m 37 396 l 156 481 l 156 868 q 156 910 156 890 q 160 958 157 930 l 62 953 l 62 1011 q 137 1014 107 1011 q 186 1023 168 1017 q 216 1035 205 1028 q 235 1048 227 1041 l 275 1048 l 276 568 l 384 646 l 384 567 l 276 488 l 277 147 q 275 98 277 119 q 270 53 274 77 l 357 57 l 357 0 l 74 0 l 74 41 q 122 54 106 41 q 146 89 139 66 q 155 142 154 111 q 156 211 156 174 l 156 401 l 37 314 l 37 396 z "},"":{"ha":1419,"x_min":64,"x_max":1358,"o":"m 954 921 q 893 909 915 920 q 862 879 872 899 q 850 829 852 859 q 848 755 848 798 l 848 532 l 951 532 q 1026 535 995 532 q 1077 551 1057 538 q 1106 590 1097 564 q 1115 663 1115 616 l 1161 663 l 1161 359 l 1115 359 q 1106 430 1115 405 q 1077 467 1097 455 q 1026 480 1057 478 q 951 482 995 482 q 900 481 928 482 q 848 476 871 479 l 848 168 q 847 103 848 130 q 844 60 846 77 l 1111 52 l 1121 52 q 1199 63 1164 52 q 1258 101 1234 75 q 1296 169 1283 127 q 1310 271 1310 210 l 1358 271 l 1348 0 l 728 0 q 624 -17 672 -12 q 534 -22 575 -22 q 337 14 425 -22 q 189 114 250 50 q 96 266 128 178 q 64 457 64 353 q 77 587 64 522 q 116 711 90 652 q 182 821 142 770 q 276 910 222 872 q 399 970 330 948 q 552 995 468 993 q 593 993 571 995 q 638 988 616 991 q 684 981 661 985 q 728 972 707 977 l 1300 972 l 1307 729 l 1261 729 q 1247 827 1261 789 q 1209 886 1233 865 q 1153 916 1185 908 q 1082 924 1120 924 l 1074 924 l 954 921 m 728 904 q 642 929 687 922 q 555 937 596 937 q 418 906 482 937 q 305 817 353 875 q 228 675 256 759 q 200 487 200 592 q 227 304 200 386 q 304 165 254 223 q 422 76 353 107 q 575 45 492 45 q 649 50 614 45 q 728 66 685 55 l 728 904 z "},"":{"ha":1225,"x_min":58,"x_max":1173,"o":"m 1158 408 l 705 400 q 717 255 705 320 q 754 145 728 191 q 821 74 780 99 q 921 49 862 49 q 985 58 954 49 q 1045 82 1017 66 q 1098 118 1074 97 q 1139 164 1122 140 l 1173 136 q 1110 63 1145 93 q 1037 14 1075 33 q 961 -14 1000 -5 q 888 -22 923 -22 q 809 -13 847 -22 q 737 14 770 -4 q 677 58 704 31 q 631 119 650 85 l 629 119 q 527 16 589 54 q 386 -22 466 -22 q 253 4 313 -22 q 149 77 193 30 q 82 188 106 123 q 58 330 58 253 q 82 483 58 412 q 148 606 105 554 q 252 687 191 658 q 386 717 312 717 q 533 679 471 717 q 640 570 595 642 l 641 570 q 686 628 660 601 q 745 674 712 654 q 815 705 777 694 q 895 717 852 717 q 1001 698 952 717 q 1084 640 1049 679 q 1139 544 1119 602 q 1158 408 1158 486 m 387 664 q 299 640 335 664 q 242 574 264 615 q 210 481 220 534 q 200 371 200 428 q 211 245 200 307 q 244 137 221 184 q 305 62 268 90 q 395 33 342 33 q 488 61 452 33 q 543 134 524 90 q 570 234 563 179 q 576 345 576 290 q 564 460 576 395 q 528 569 551 526 q 471 638 505 612 q 387 664 436 664 m 888 663 q 768 612 812 663 q 709 458 725 562 l 1027 458 q 1020 534 1027 498 q 996 599 1013 571 q 953 645 980 627 q 888 663 926 663 z "},"":{"ha":787,"x_min":81,"x_max":726,"o":"m 161 -11 l 89 -11 l 81 285 l 134 285 q 161 177 138 223 q 219 99 183 130 q 304 52 256 68 q 407 36 352 36 q 484 47 448 36 q 548 80 520 58 q 591 135 575 102 q 607 210 607 168 q 585 297 607 260 q 525 362 562 334 q 441 413 488 390 q 345 458 394 435 q 249 506 296 481 q 165 565 202 532 q 106 644 128 599 q 83 750 83 688 q 89 801 83 774 q 107 855 94 828 q 140 908 119 882 q 192 952 161 933 q 266 983 223 972 q 365 995 309 995 q 422 991 392 995 q 485 980 453 988 q 547 958 516 972 q 607 923 578 944 l 602 983 l 672 983 l 672 678 l 622 678 q 603 775 618 728 q 556 859 587 823 q 481 917 526 895 q 375 939 436 939 q 298 926 332 939 q 243 890 265 913 q 209 839 220 868 q 197 777 197 809 q 220 694 197 729 q 280 632 243 659 q 365 583 317 605 q 462 537 412 560 q 559 489 511 515 q 644 428 606 463 q 704 349 681 394 q 726 241 726 303 q 705 135 726 184 q 642 52 683 87 q 539 -3 600 17 q 401 -22 479 -22 q 337 -18 370 -22 q 272 -5 304 -14 q 210 18 240 4 q 154 49 180 31 l 161 -11 m 383 1036 l 380 1036 l 125 1232 l 155 1279 l 386 1157 l 389 1157 l 625 1282 l 652 1238 l 383 1036 z "},"":{"ha":643,"x_min":72,"x_max":587,"o":"m 321 32 q 375 38 348 32 q 424 58 401 45 q 459 93 446 72 q 473 142 473 113 q 456 198 473 175 q 411 240 439 222 q 346 272 382 258 q 272 301 310 286 q 199 334 235 316 q 135 376 163 352 q 89 435 106 401 q 72 515 72 469 q 83 579 72 545 q 121 645 94 614 q 194 696 148 675 q 309 717 239 717 q 350 714 328 717 q 393 704 371 711 q 438 686 416 697 q 482 657 460 674 l 479 710 l 537 710 l 537 467 l 494 467 q 480 538 491 503 q 447 601 469 573 q 393 647 426 629 q 316 665 361 665 q 258 656 283 665 q 216 633 233 648 q 190 600 199 618 q 181 559 181 581 q 198 501 181 526 q 244 458 216 477 q 309 424 273 439 q 384 392 346 408 q 458 358 422 376 q 524 316 495 340 q 569 259 552 292 q 587 182 587 227 q 566 91 587 130 q 510 27 545 52 q 433 -10 476 2 q 346 -22 390 -22 q 222 -4 275 -22 q 134 39 168 15 l 138 -9 l 80 -9 l 72 229 l 115 229 q 135 150 117 186 q 180 87 152 113 q 244 46 208 61 q 321 32 281 32 m 317 796 l 314 796 l 107 1022 l 144 1067 l 321 916 l 324 916 l 503 1069 l 538 1029 l 317 796 z "},"":{"ha":880,"x_min":-8,"x_max":895,"o":"m 394 375 l 153 757 q 100 850 117 812 q 78 914 83 888 l -8 911 l -8 972 l 350 972 l 350 926 q 277 915 302 926 q 244 884 252 904 q 247 836 237 864 q 277 775 256 808 q 326 697 302 734 q 372 624 349 660 q 419 551 395 588 q 474 472 444 513 l 477 472 q 662 822 632 768 q 701 890 692 876 q 721 916 711 905 l 611 911 l 611 972 l 895 972 l 895 926 q 833 913 860 924 q 782 879 806 901 q 736 824 758 857 q 515 416 714 791 q 514 257 514 349 q 514 165 513 165 q 510 56 514 91 l 625 61 l 625 0 l 299 0 l 299 46 q 357 61 338 47 q 385 97 377 75 q 393 151 393 120 q 393 216 393 181 l 394 375 m 644 1165 q 637 1131 644 1147 q 621 1103 631 1115 q 596 1084 610 1091 q 568 1078 583 1078 q 538 1084 552 1078 q 515 1103 525 1091 q 498 1131 505 1115 q 492 1165 492 1147 q 498 1200 492 1183 q 515 1228 505 1216 q 540 1247 526 1240 q 569 1255 553 1255 q 598 1247 585 1255 q 622 1228 612 1240 q 638 1200 632 1216 q 644 1165 644 1183 m 394 1165 q 388 1131 394 1147 q 371 1103 382 1115 q 347 1084 361 1091 q 318 1078 333 1078 q 289 1084 302 1078 q 265 1103 275 1091 q 249 1131 255 1115 q 243 1165 243 1147 q 249 1200 243 1183 q 266 1228 255 1216 q 290 1247 277 1240 q 319 1255 304 1255 q 349 1247 335 1255 q 372 1228 362 1240 q 388 1200 382 1216 q 394 1165 394 1183 z "},"":{"ha":847,"x_min":60,"x_max":781,"o":"m 60 64 q 149 189 99 119 q 259 348 198 258 q 394 548 321 437 q 553 796 467 659 q 594 859 572 827 q 642 921 616 890 l 288 916 q 216 900 246 913 q 165 858 185 886 q 134 787 144 829 q 124 685 124 744 l 77 685 l 85 972 l 774 972 l 774 924 l 275 167 q 247 127 260 144 q 223 97 235 111 q 202 73 212 83 q 180 52 191 62 l 518 57 q 603 71 564 58 q 672 113 643 85 q 717 184 701 141 q 734 285 734 227 l 781 285 l 772 0 l 60 0 l 60 64 m 414 1036 l 411 1036 l 155 1232 l 186 1279 l 416 1157 l 419 1157 l 655 1282 l 683 1238 l 414 1036 z "},"":{"ha":710,"x_min":56,"x_max":649,"o":"m 56 0 l 56 57 q 487 610 476 598 q 506 632 497 623 q 522 646 515 642 l 261 642 q 197 625 222 641 q 157 583 172 610 q 134 521 142 557 q 119 446 125 486 l 77 446 l 93 694 l 637 694 l 637 650 l 246 135 q 230 114 237 123 q 214 95 222 104 q 196 77 205 86 q 174 57 186 68 l 441 53 q 514 68 485 52 q 562 111 543 83 q 592 174 581 138 q 608 253 602 211 l 649 253 l 632 0 l 56 0 m 340 796 l 337 796 l 130 1022 l 168 1067 l 345 916 l 347 916 l 526 1069 l 561 1029 l 340 796 z "},"":{"ha":476,"x_min":-168,"x_max":551,"o":"m 468 642 l 269 639 q 260 488 263 567 q 250 328 257 410 q 238 158 243 243 q 221 -5 232 73 q 192 -151 211 -83 q 141 -269 174 -218 q 59 -348 109 -319 q -61 -376 10 -376 q -103 -371 -83 -376 q -137 -357 -123 -366 q -160 -334 -152 -347 q -168 -304 -168 -321 q -154 -258 -168 -275 q -109 -240 -139 -240 q -68 -258 -83 -240 q -53 -301 -53 -275 q -54 -312 -53 -309 q -33 -320 -45 -319 q -14 -322 -22 -322 q 40 -297 18 -322 q 77 -226 62 -271 q 100 -118 91 -180 q 114 18 109 -56 q 125 173 120 92 q 136 340 130 255 q 147 490 142 415 q 160 637 152 566 l 39 636 l 46 696 l 168 696 q 198 837 178 772 q 250 951 217 903 q 331 1027 282 1000 q 448 1055 379 1055 q 483 1051 465 1055 q 516 1038 501 1047 q 542 1016 532 1029 q 551 982 551 1002 q 538 941 551 959 q 496 924 524 924 q 454 940 470 924 q 439 982 439 956 q 439 989 439 985 q 440 996 439 992 q 410 1002 429 1002 q 350 980 374 1002 q 311 917 326 958 q 286 820 295 876 q 273 696 277 764 l 472 696 l 468 642 z "},"":{"ha":555,"x_min":62,"x_max":493,"o":"m 283 1080 l 286 1080 l 493 854 l 456 810 l 279 961 l 277 961 l 97 819 l 62 860 l 283 1080 z "},"":{"ha":555,"x_min":62,"x_max":493,"o":"m 272 796 l 269 796 l 62 1022 l 100 1067 l 277 916 l 279 916 l 458 1069 l 493 1029 l 272 796 z "},"":{"ha":504,"x_min":62,"x_max":441,"o":"m 250 839 q 195 849 223 839 q 142 879 168 859 q 96 929 117 899 q 62 1000 75 959 l 103 1021 q 129 984 113 1002 q 165 953 145 966 q 208 932 185 940 q 254 924 231 924 q 301 932 278 924 q 343 955 323 941 q 378 986 363 968 q 404 1023 394 1004 l 441 1007 q 376 892 415 934 q 250 839 324 839 z "},"":{"ha":275,"x_min":63,"x_max":213,"o":"m 213 928 q 207 896 213 911 q 190 870 201 881 q 167 852 180 859 q 138 846 153 846 q 110 852 123 846 q 86 870 96 859 q 70 896 76 881 q 64 928 64 911 q 70 961 64 946 q 87 987 76 976 q 111 1005 97 999 q 139 1012 124 1012 q 169 1005 155 1012 q 192 987 182 999 q 208 961 202 976 q 213 928 213 946 z "},"":{"ha":441,"x_min":85,"x_max":357,"o":"m 220 1014 q 177 992 196 1014 q 158 930 158 971 q 162 893 158 911 q 175 863 167 876 q 196 842 184 850 q 224 835 208 835 q 267 857 250 835 q 283 917 283 879 q 267 988 283 962 q 220 1014 250 1014 m 220 1057 q 268 1050 244 1057 q 312 1027 292 1042 q 344 986 331 1011 q 357 932 357 960 q 346 872 357 897 q 315 829 334 848 q 272 801 296 811 q 222 791 248 791 q 172 799 197 791 q 128 823 147 807 q 97 864 109 840 q 85 924 85 889 q 97 978 85 954 q 127 1020 109 1002 q 171 1047 146 1038 q 220 1057 195 1057 z "},"":{"ha":437,"x_min":62,"x_max":375,"o":"m 358 34 q 288 -3 321 18 q 230 -53 255 -25 q 190 -116 205 -81 q 175 -191 175 -150 q 182 -230 175 -212 q 201 -260 189 -248 q 228 -279 212 -272 q 261 -286 243 -286 q 309 -275 286 -286 q 351 -248 332 -264 l 375 -273 q 343 -304 361 -289 q 304 -333 326 -320 q 259 -353 283 -345 q 210 -360 235 -360 q 149 -350 176 -360 q 103 -320 122 -339 q 73 -276 83 -302 q 62 -218 62 -250 q 89 -122 62 -168 q 157 -40 115 -77 q 252 25 199 -3 q 358 71 305 53 l 358 34 z "},"":{"ha":564,"x_min":49,"x_max":515,"o":"m 192 925 q 138 911 166 925 q 90 867 110 897 l 49 890 q 74 936 58 915 q 109 974 90 958 q 150 1000 129 990 q 191 1010 171 1009 q 248 998 223 1010 q 292 973 272 987 q 332 947 313 959 q 374 936 351 936 q 431 954 404 936 q 475 1003 458 972 l 515 982 q 487 923 504 947 q 451 882 471 898 q 412 858 432 865 q 374 850 392 850 q 316 862 341 850 q 270 887 291 873 q 230 913 248 901 q 192 925 211 925 z "},"":{"ha":541,"x_min":41,"x_max":505,"o":"m 77 811 l 41 844 l 167 1019 q 200 1049 184 1041 q 228 1057 216 1057 q 249 1052 239 1057 q 264 1037 258 1048 q 271 1016 271 1027 q 263 986 271 1003 q 233 949 255 970 l 77 811 m 278 823 l 252 859 l 396 1019 q 431 1047 414 1040 q 460 1055 447 1055 q 480 1051 471 1055 q 496 1039 490 1046 q 503 1025 501 1031 q 505 1011 505 1018 q 495 980 505 996 q 458 946 484 964 l 278 823 z "},"":{"ha":970,"x_min":39,"x_max":932,"o":"m 529 995 l 932 0 l 39 0 l 418 995 l 529 995 m 153 84 l 778 80 l 456 905 l 153 84 z "},"":{"ha":1084,"x_min":79,"x_max":1002,"o":"m 617 104 q 706 150 663 117 q 785 236 750 184 q 840 355 819 288 q 861 503 861 422 q 852 612 861 558 q 825 714 843 666 q 780 804 807 763 q 717 875 753 845 q 637 922 682 905 q 541 939 593 939 q 443 923 488 939 q 362 877 399 906 q 299 809 326 848 q 253 723 271 769 q 225 626 235 676 q 216 524 216 575 q 240 351 216 427 q 302 222 264 275 q 386 140 340 170 q 478 104 433 110 l 478 0 l 113 0 l 106 187 l 148 187 q 158 138 148 157 q 189 109 168 119 q 242 94 210 98 q 319 90 275 90 l 417 90 l 417 92 q 286 152 348 111 q 179 250 224 193 q 106 377 133 307 q 79 526 79 448 q 92 637 79 581 q 130 745 104 693 q 193 843 155 798 q 283 922 231 888 q 399 976 334 956 q 542 995 463 995 q 689 975 623 995 q 806 922 755 956 q 894 842 857 888 q 955 745 931 797 q 990 636 979 692 q 1002 526 1002 581 q 971 379 1002 448 q 893 253 941 310 q 785 155 845 197 q 666 92 726 114 l 666 90 l 781 90 q 858 94 825 90 q 911 109 890 98 q 942 138 932 119 q 952 187 952 157 l 994 187 l 985 0 l 617 0 l 617 104 z "},"":{"ha":804,"x_min":35,"x_max":765,"o":"m 92 98 q 144 77 121 98 q 180 116 165 84 q 204 196 195 149 q 218 302 214 244 q 225 418 223 360 q 227 528 227 475 q 227 617 227 580 q 180 615 201 617 q 143 610 160 614 q 110 601 125 607 q 76 587 94 595 l 54 617 q 87 652 68 635 q 129 682 106 669 q 180 703 152 695 q 240 711 208 711 q 346 707 294 711 q 444 698 397 703 q 531 689 491 693 q 600 685 570 685 q 634 686 618 685 q 665 691 650 688 q 698 701 681 695 q 734 717 715 707 l 758 688 q 740 665 751 677 q 714 641 728 653 q 681 618 699 629 q 643 600 663 607 l 642 182 q 645 121 642 146 q 656 81 648 96 q 675 59 664 66 q 701 52 686 52 q 723 56 711 52 q 748 69 736 60 l 765 47 q 742 22 756 35 q 710 0 728 10 q 673 -16 693 -9 q 634 -22 654 -22 q 575 -7 597 -22 q 541 31 553 8 q 524 78 528 53 q 520 122 520 102 q 520 153 520 125 q 521 224 521 181 q 522 320 521 267 q 522 424 522 372 q 523 519 522 475 q 523 592 523 564 q 398 604 456 595 q 284 615 340 612 q 284 532 284 577 q 283 438 284 486 q 280 341 282 390 q 275 248 279 292 q 264 164 271 203 q 250 100 258 126 q 223 47 239 70 q 188 9 208 24 q 146 -15 169 -7 q 101 -22 124 -22 q 55 -7 75 -22 q 35 39 35 8 q 41 67 35 56 q 55 85 47 79 q 74 95 64 92 q 92 98 84 98 z "},"":{"ha":819,"x_min":92,"x_max":724,"o":"m 92 493 l 724 493 l 724 401 l 92 396 l 92 493 z "},"":{"ha":972,"x_min":92,"x_max":876,"o":"m 92 493 l 876 493 l 876 401 l 92 396 l 92 493 z "},"":{"ha":311,"x_min":64,"x_max":239,"o":"m 204 1027 q 180 988 193 1012 q 157 934 167 964 q 142 871 147 904 q 140 806 136 838 q 178 814 160 815 q 210 804 196 812 q 231 780 223 795 q 239 747 239 765 q 216 687 239 708 q 162 666 194 666 q 120 676 138 666 q 89 703 102 686 q 70 743 77 720 q 64 792 64 766 q 71 854 64 819 q 92 926 79 890 q 125 997 106 963 q 167 1055 144 1031 l 204 1027 z "},"":{"ha":241,"x_min":35,"x_max":210,"o":"m 69 695 q 94 734 81 709 q 116 788 106 758 q 132 851 126 818 q 133 916 137 884 q 95 908 113 907 q 64 918 77 909 q 42 942 50 927 q 35 975 35 957 q 57 1035 35 1014 q 111 1056 79 1056 q 153 1046 135 1056 q 184 1019 172 1036 q 203 979 197 1002 q 210 930 210 956 q 202 868 210 903 q 181 795 195 832 q 149 725 168 759 q 106 667 130 690 l 69 695 z "},"":{"ha":351,"x_min":92,"x_max":267,"o":"m 126 -220 q 151 -182 138 -206 q 173 -127 163 -157 q 189 -65 183 -98 q 190 0 194 -32 q 152 -7 170 -9 q 121 3 134 -6 q 99 26 107 12 q 92 60 92 41 q 114 119 92 98 q 168 140 136 140 q 210 131 192 140 q 241 104 229 121 q 260 64 254 87 q 267 14 267 41 q 259 -48 267 -12 q 238 -120 252 -83 q 205 -191 224 -157 q 163 -248 186 -225 l 126 -220 z "},"":{"ha":555,"x_min":64,"x_max":484,"o":"m 204 1027 q 180 988 193 1012 q 157 934 167 964 q 142 871 147 904 q 140 806 136 838 q 178 814 160 815 q 210 804 196 812 q 231 780 223 795 q 239 747 239 765 q 216 687 239 708 q 162 666 194 666 q 120 676 138 666 q 89 703 102 686 q 70 743 77 720 q 64 792 64 766 q 71 854 64 819 q 92 926 79 890 q 125 997 106 963 q 167 1055 144 1031 l 204 1027 m 449 1027 q 425 988 437 1012 q 402 934 412 964 q 387 871 392 904 q 385 806 381 838 q 423 814 405 815 q 454 804 441 812 q 476 780 468 795 q 484 747 484 765 q 461 687 484 708 q 407 666 439 666 q 365 676 383 666 q 334 703 347 686 q 315 743 321 720 q 309 792 309 766 q 316 854 309 819 q 337 926 324 890 q 370 997 351 963 q 412 1055 389 1031 l 449 1027 z "},"":{"ha":485,"x_min":35,"x_max":454,"o":"m 69 695 q 94 734 81 709 q 116 788 106 758 q 132 851 126 818 q 133 916 137 884 q 95 908 113 907 q 64 918 77 909 q 42 942 50 927 q 35 975 35 957 q 57 1035 35 1014 q 111 1056 79 1056 q 153 1046 135 1056 q 184 1019 172 1036 q 203 979 197 1002 q 210 930 210 956 q 202 868 210 903 q 181 795 195 832 q 149 725 168 759 q 106 667 130 690 l 69 695 m 313 695 q 338 734 325 709 q 360 788 351 758 q 376 851 370 818 q 377 916 381 884 q 339 908 357 907 q 308 918 321 909 q 287 942 294 927 q 279 975 279 957 q 301 1035 279 1014 q 355 1056 323 1056 q 397 1046 379 1056 q 428 1019 416 1036 q 447 979 441 1002 q 454 930 454 956 q 446 868 454 903 q 425 795 439 832 q 393 725 412 759 q 351 667 374 690 l 313 695 z "},"":{"ha":596,"x_min":92,"x_max":511,"o":"m 126 -220 q 151 -182 138 -206 q 173 -127 163 -157 q 189 -65 183 -98 q 190 0 194 -32 q 152 -7 170 -9 q 121 3 134 -6 q 99 26 107 12 q 92 60 92 41 q 114 119 92 98 q 168 140 136 140 q 210 131 192 140 q 241 104 229 121 q 260 64 254 87 q 267 14 267 41 q 259 -48 267 -12 q 238 -120 252 -83 q 205 -191 224 -157 q 163 -248 186 -225 l 126 -220 m 370 -220 q 395 -182 382 -206 q 417 -127 408 -157 q 433 -65 427 -98 q 434 0 438 -32 q 396 -7 414 -9 q 365 3 378 -6 q 343 26 351 12 q 336 60 336 41 q 358 119 336 98 q 412 140 380 140 q 454 131 436 140 q 485 104 473 121 q 504 64 498 87 q 511 14 511 41 q 503 -48 511 -12 q 482 -120 496 -83 q 450 -191 469 -157 q 408 -248 431 -225 l 370 -220 z "},"":{"ha":711,"x_min":36,"x_max":675,"o":"m 336 -376 q 326 -183 330 -280 q 315 11 321 -85 q 302 202 310 107 q 282 389 294 297 q 312 484 298 427 q 342 618 326 540 q 240 597 291 607 q 138 581 189 587 q 107 578 122 578 q 81 581 94 578 q 58 589 68 583 q 42 604 48 594 q 36 629 36 614 q 42 654 36 644 q 57 669 47 664 q 80 677 67 675 q 106 680 93 680 q 138 677 122 680 q 240 661 189 671 q 342 640 292 651 q 330 710 337 671 q 316 790 323 749 q 302 873 309 831 q 294 939 296 916 q 292 966 292 962 q 296 997 292 981 q 307 1026 299 1013 q 327 1047 315 1039 q 357 1055 339 1055 q 386 1047 374 1055 q 406 1027 398 1040 q 416 998 413 1014 q 419 967 419 983 q 417 940 419 964 q 408 873 414 916 q 395 790 402 831 q 381 710 389 749 q 368 640 374 671 q 471 661 420 651 q 574 677 523 671 q 605 680 589 680 q 631 677 618 680 q 654 669 644 675 q 670 654 664 664 q 675 629 675 644 q 669 604 675 614 q 653 589 663 594 q 631 581 644 583 q 604 578 618 578 q 574 581 588 578 q 472 597 523 587 q 369 617 420 607 q 399 483 385 539 q 429 389 414 427 q 409 202 417 297 q 396 11 401 107 q 386 -183 391 -85 q 375 -376 381 -280 l 336 -376 z "},"":{"ha":737,"x_min":49,"x_max":688,"o":"m 442 340 q 428 291 435 321 q 413 225 420 261 q 398 149 406 189 q 382 69 390 109 q 485 90 433 80 q 587 106 536 100 q 617 109 601 109 q 644 106 631 109 q 666 98 656 104 q 682 82 676 92 q 688 58 688 73 q 683 33 688 43 q 667 18 677 23 q 644 10 657 12 q 618 7 631 7 q 587 9 602 7 q 484 26 536 16 q 381 47 433 36 q 394 -24 387 16 q 408 -106 401 -64 q 421 -193 415 -149 q 431 -275 427 -236 q 432 -280 431 -277 q 432 -286 432 -283 q 429 -318 432 -302 q 417 -347 425 -334 q 397 -368 410 -360 q 367 -376 385 -376 q 337 -368 349 -376 q 318 -348 326 -360 q 308 -319 311 -335 q 305 -288 305 -303 q 305 -281 305 -284 q 306 -275 305 -278 q 315 -193 309 -236 q 329 -106 321 -149 q 343 -24 336 -64 q 355 47 350 16 q 253 26 304 36 q 151 9 201 16 q 119 7 135 7 q 93 10 106 7 q 70 18 80 12 q 55 33 60 23 q 49 58 49 43 q 55 82 49 73 q 71 98 61 92 q 94 106 81 104 q 120 109 106 109 q 151 106 135 109 q 253 90 201 100 q 355 69 304 79 q 339 149 347 109 q 325 225 332 189 q 310 291 317 261 q 295 340 302 321 q 310 389 302 359 q 324 454 317 418 q 339 530 332 490 q 355 609 347 570 q 253 588 304 598 q 151 572 201 578 q 120 570 135 570 q 94 572 106 570 q 71 580 81 574 q 55 595 61 585 q 49 621 49 605 q 55 645 49 635 q 70 661 60 655 q 93 668 80 666 q 119 671 106 671 q 151 669 135 671 q 253 652 201 662 q 355 631 304 642 q 343 703 350 663 q 329 786 336 743 q 315 872 321 829 q 306 954 309 916 q 305 960 305 957 q 305 966 305 962 q 309 997 305 981 q 320 1026 312 1013 q 340 1047 328 1039 q 370 1055 352 1055 q 399 1047 387 1055 q 418 1027 411 1040 q 429 998 426 1014 q 432 967 432 983 q 432 961 432 964 q 431 954 431 958 q 421 872 427 916 q 408 786 415 829 q 394 703 401 743 q 381 631 387 663 q 484 652 433 642 q 587 669 536 662 q 618 671 602 671 q 644 668 631 671 q 667 661 657 666 q 683 645 677 655 q 688 621 688 635 q 682 595 688 605 q 666 580 676 585 q 644 572 656 574 q 617 570 631 570 q 587 572 601 570 q 485 588 536 578 q 382 608 433 598 q 397 529 390 569 q 412 454 405 490 q 427 389 420 418 q 442 340 435 359 z "},"":{"ha":557,"x_min":69,"x_max":488,"o":"m 69 519 q 85 600 69 563 q 130 665 102 637 q 196 709 158 693 q 277 725 234 725 q 359 709 321 725 q 426 665 397 693 q 471 600 454 637 q 488 519 488 563 q 471 439 488 476 q 426 374 454 401 q 359 330 397 346 q 277 314 321 314 q 196 330 234 314 q 130 374 158 346 q 85 439 102 401 q 69 519 69 476 z "},"":{"ha":1092,"x_min":89,"x_max":1001,"o":"m 251 66 q 244 32 251 48 q 226 3 237 16 q 200 -16 215 -9 q 170 -22 186 -22 q 139 -16 153 -22 q 113 3 124 -9 q 95 32 102 16 q 89 66 89 48 q 96 102 89 85 q 114 131 102 119 q 140 150 125 143 q 171 157 155 157 q 202 150 188 157 q 228 131 217 143 q 245 102 239 119 q 251 66 251 85 m 626 66 q 619 32 626 48 q 601 3 612 16 q 575 -16 590 -9 q 545 -22 561 -22 q 514 -16 528 -22 q 488 3 499 -9 q 470 32 477 16 q 464 66 464 48 q 471 102 464 85 q 489 131 477 119 q 515 150 500 143 q 546 157 530 157 q 577 150 563 157 q 603 131 592 143 q 620 102 614 119 q 626 66 626 85 m 1001 66 q 994 32 1001 48 q 976 3 987 16 q 950 -16 965 -9 q 920 -22 936 -22 q 889 -16 903 -22 q 863 3 874 -9 q 845 32 852 16 q 839 66 839 48 q 846 102 839 85 q 864 131 852 119 q 890 150 875 143 q 921 157 905 157 q 952 150 938 157 q 978 131 967 143 q 995 102 989 119 q 1001 66 1001 85 z "},"":{"ha":1793,"x_min":54,"x_max":1747,"o":"m 1628 224 q 1625 273 1628 247 q 1617 324 1623 298 q 1600 373 1611 349 q 1575 414 1590 396 q 1539 442 1560 431 q 1491 452 1518 452 q 1428 433 1453 452 q 1388 387 1403 415 q 1366 324 1373 358 q 1360 257 1360 290 q 1367 182 1360 222 q 1390 107 1373 142 q 1432 51 1406 73 q 1497 28 1459 28 q 1562 48 1537 28 q 1601 100 1587 69 q 1622 164 1616 130 q 1628 224 1628 198 m 1747 247 q 1731 151 1747 199 q 1683 65 1714 103 q 1604 2 1651 26 q 1496 -22 1557 -22 q 1383 -2 1432 -24 q 1303 57 1335 20 q 1255 140 1271 94 q 1239 235 1239 186 q 1259 337 1239 288 q 1315 424 1280 387 q 1396 484 1350 462 q 1496 507 1443 507 q 1605 485 1558 507 q 1684 427 1652 463 q 1731 344 1715 391 q 1747 247 1747 297 m 174 748 q 179 675 174 715 q 200 601 185 635 q 242 543 216 566 q 310 520 269 520 q 373 539 348 520 q 413 586 398 557 q 435 649 429 614 q 441 716 441 684 q 435 791 441 751 q 413 866 429 831 q 372 923 398 900 q 307 945 346 945 q 242 924 268 945 q 201 873 216 903 q 180 809 186 843 q 174 748 174 774 m 1021 939 l 233 -24 l 174 25 l 958 995 l 1021 939 m 54 726 q 71 822 54 774 q 119 908 87 869 q 198 970 151 946 q 306 995 245 994 q 418 974 370 996 q 498 916 467 952 q 545 833 530 880 q 561 739 561 786 q 541 635 561 685 q 486 548 521 586 q 405 488 452 511 q 306 466 359 466 q 197 488 243 466 q 118 546 150 509 q 70 629 86 582 q 54 726 54 675 m 1044 224 q 1042 272 1044 247 q 1034 323 1040 298 q 1017 372 1027 349 q 992 413 1007 395 q 956 442 977 431 q 908 452 935 452 q 845 434 870 452 q 805 387 820 416 q 783 324 789 359 q 777 257 777 290 q 783 182 777 222 q 806 107 790 142 q 849 51 823 73 q 914 28 876 28 q 979 48 954 28 q 1018 100 1004 69 q 1039 164 1033 130 q 1044 224 1044 198 m 1164 247 q 1147 151 1164 199 q 1099 65 1131 103 q 1021 2 1067 26 q 913 -22 974 -22 q 800 -2 848 -24 q 720 57 751 20 q 672 140 688 94 q 656 235 656 186 q 676 337 656 288 q 731 424 696 387 q 813 484 766 462 q 913 507 860 507 q 1022 485 975 507 q 1100 427 1069 463 q 1148 344 1132 391 q 1164 247 1164 297 z "},"":{"ha":532,"x_min":43,"x_max":467,"o":"m 43 386 l 43 380 l 424 -9 l 467 35 l 193 386 l 193 389 l 465 718 l 420 762 l 43 386 z "},"":{"ha":532,"x_min":64,"x_max":488,"o":"m 488 386 l 488 380 l 107 -9 l 64 35 l 338 386 l 338 389 l 66 718 l 111 762 l 488 386 z "},"":{"ha":661,"x_min":-25,"x_max":684,"o":"m 684 951 l 27 -22 l -25 14 l 623 995 l 684 951 z "},"":{"ha":559,"x_min":57,"x_max":449,"o":"m 428 424 l 224 424 l 224 464 q 258 472 245 465 q 279 491 272 479 q 290 519 287 503 q 292 556 292 536 l 292 570 l 57 570 l 57 611 l 334 995 l 370 995 l 370 620 l 449 620 l 449 570 l 371 570 l 371 469 l 428 471 l 428 424 m 122 625 l 292 622 l 292 860 l 290 860 l 122 625 z "},"":{"ha":1055,"x_min":49,"x_max":998,"o":"m 637 937 q 529 916 581 937 q 435 857 477 896 q 361 761 393 818 q 315 630 330 704 l 782 628 l 745 550 l 304 548 q 302 490 302 520 q 302 458 302 474 q 304 427 303 442 l 688 425 l 649 347 l 319 346 q 367 225 335 279 q 441 133 398 171 q 539 75 485 95 q 654 54 593 54 q 825 92 746 54 q 962 208 904 130 l 998 179 q 904 78 953 117 q 806 16 855 39 q 709 -14 757 -6 q 618 -22 661 -22 q 458 5 530 -22 q 330 81 385 33 q 239 198 275 130 q 186 345 202 265 l 49 345 l 68 428 l 176 427 q 174 482 174 454 q 178 547 174 515 l 49 547 l 68 631 l 194 630 q 250 770 213 704 q 342 887 288 837 q 468 966 397 937 q 628 995 540 995 q 764 975 703 995 q 886 915 826 954 l 888 983 l 963 983 l 935 703 l 885 703 q 860 795 878 752 q 813 869 843 838 q 741 919 784 901 q 637 937 697 937 z "},"":{"ha":1483,"x_min":87,"x_max":1396,"o":"m 652 972 l 831 972 l 954 675 q 983 603 968 640 q 1017 525 998 566 l 1018 525 q 1066 638 1044 584 q 1111 747 1088 693 q 1155 857 1133 801 q 1201 972 1177 912 l 1364 972 l 1364 926 q 1335 920 1347 926 q 1317 904 1324 914 q 1308 881 1310 895 q 1305 850 1305 867 q 1316 685 1305 844 q 1328 515 1327 526 q 1328 492 1329 503 l 1328 468 l 1396 471 l 1396 422 l 1167 422 l 1167 461 l 1175 461 q 1220 487 1208 465 q 1232 544 1232 509 q 1231 552 1232 548 q 1213 847 1231 557 l 1211 847 l 1035 415 l 970 415 q 916 536 944 473 q 861 661 887 599 q 811 778 834 722 q 774 877 788 834 l 772 877 q 772 852 772 865 q 771 828 772 840 l 760 525 q 758 493 759 507 q 753 467 756 478 l 821 471 l 821 424 l 625 424 l 625 463 q 659 470 646 463 q 680 490 672 477 q 690 520 687 503 q 694 559 693 538 q 701 702 699 644 q 706 801 704 761 q 708 863 707 840 q 709 898 709 886 q 710 914 709 909 q 711 920 710 918 l 652 917 l 652 972 m 295 920 l 206 919 q 146 885 163 918 q 130 789 130 852 l 87 789 l 92 972 l 596 972 l 602 789 l 560 789 q 554 848 559 823 q 537 889 549 873 q 506 913 526 905 q 456 921 486 921 l 395 920 l 395 525 l 395 500 q 395 483 395 491 q 393 468 395 475 l 457 471 l 457 421 l 231 421 l 231 460 q 263 466 250 460 q 282 484 275 473 q 292 511 290 496 q 295 546 295 527 l 295 920 z "},"":{"ha":707,"x_min":52,"x_max":631,"o":"m 175 1053 q 221 1055 198 1055 q 357 1035 297 1055 q 463 977 417 1014 q 540 887 508 939 q 592 771 572 834 q 622 634 612 707 q 631 484 631 562 q 603 247 631 343 q 527 90 574 150 q 417 4 479 31 q 288 -22 355 -22 q 198 -3 241 -22 q 123 55 155 16 q 71 151 90 94 q 52 283 52 208 q 77 454 52 377 q 147 585 103 530 q 248 669 191 640 q 368 699 305 699 q 446 684 409 699 q 513 640 484 670 q 502 730 510 685 q 479 816 494 775 q 440 891 464 857 q 382 952 416 926 q 300 992 347 977 q 191 1006 253 1006 l 175 1006 l 175 1053 m 518 489 q 518 523 518 505 q 517 557 517 540 q 458 623 493 603 q 376 643 423 643 q 303 620 340 643 q 237 554 267 597 q 189 446 208 510 q 171 298 171 381 q 182 184 171 234 q 212 100 193 134 q 256 48 231 66 q 313 31 282 31 q 384 53 353 31 q 437 111 414 75 q 475 196 460 148 q 500 294 491 243 q 514 396 510 345 q 518 489 518 446 z "},"":{"ha":885,"x_min":43,"x_max":819,"o":"m 737 729 q 723 827 737 789 q 685 886 709 865 q 629 916 661 908 q 559 924 596 924 l 550 924 l 232 917 q 251 888 242 903 q 268 857 260 873 l 533 340 l 235 -190 q 200 -249 217 -221 q 165 -298 182 -276 q 337 -300 267 -300 q 453 -302 408 -301 q 523 -302 498 -302 q 585 -302 547 -302 q 663 -291 628 -302 q 722 -253 697 -279 q 759 -185 746 -227 q 772 -83 772 -143 l 819 -83 l 811 -354 l 53 -354 l 53 -293 q 79 -284 66 -293 q 105 -262 93 -275 q 129 -233 118 -249 q 149 -203 140 -217 l 429 288 l 142 832 q 117 882 125 863 q 106 914 109 901 l 43 911 l 43 972 l 777 972 l 783 729 l 737 729 z "},"":{"ha":822,"x_min":102,"x_max":720,"o":"m 102 444 l 720 441 l 720 357 l 102 354 l 102 444 z "},"":{"ha":661,"x_min":-25,"x_max":684,"o":"m 684 951 l 28 -22 l -25 14 l 622 995 l 684 951 z "},"":{"ha":1171,"x_min":3,"x_max":1202,"o":"m 3 694 l 275 694 l 479 172 l 779 1197 l 1202 1197 l 1202 1139 l 835 1145 l 496 -4 l 427 -4 l 210 529 q 182 598 192 572 q 170 642 173 625 l 3 646 l 3 694 z "},"":{"ha":1215,"x_min":104,"x_max":1113,"o":"m 345 772 q 422 760 386 772 q 490 723 458 747 q 551 663 522 699 q 611 580 581 627 q 661 659 632 623 q 726 722 690 695 q 801 764 761 749 q 882 779 840 779 q 989 756 945 779 q 1060 692 1033 732 q 1100 596 1088 651 q 1113 479 1113 542 q 1096 367 1113 420 q 1049 274 1080 314 q 976 211 1019 234 q 880 187 932 187 q 809 196 843 187 q 742 228 775 205 q 674 288 708 250 q 602 383 640 326 q 556 309 583 344 q 498 249 530 275 q 430 208 467 223 q 352 193 393 193 q 237 220 284 193 q 160 290 190 247 q 118 385 131 332 q 104 490 104 438 q 121 601 104 549 q 170 691 138 652 q 245 751 201 729 q 345 772 290 772 m 873 293 q 950 309 916 293 q 1007 352 984 325 q 1041 415 1029 378 q 1053 492 1053 451 q 1041 568 1053 533 q 1008 629 1029 603 q 957 669 987 654 q 890 684 927 684 q 828 676 859 684 q 766 649 797 668 q 704 600 734 631 q 644 524 673 570 q 689 441 665 483 q 740 367 712 400 q 800 314 767 334 q 873 293 833 293 m 348 293 q 469 329 413 293 q 570 436 526 364 l 566 444 q 524 517 546 479 q 475 588 503 555 q 414 642 448 621 q 334 663 379 663 q 270 651 300 663 q 215 616 239 640 q 177 559 191 593 q 163 481 163 526 q 177 405 163 439 q 215 346 191 370 q 274 307 240 321 q 348 293 308 293 z "},"":{"ha":554,"x_min":-14,"x_max":567,"o":"m 144 -321 q 202 -282 179 -321 q 225 -164 225 -243 l 225 -155 l 209 737 l 209 750 q 221 870 209 814 q 261 967 234 926 q 332 1031 289 1008 q 435 1055 374 1055 q 480 1049 456 1055 q 523 1031 503 1043 q 554 1000 542 1019 q 567 956 567 981 q 553 915 567 932 q 514 898 540 898 q 488 903 498 898 q 471 917 478 909 q 462 934 465 925 q 459 951 459 943 q 467 984 459 966 q 444 1000 459 995 q 417 1005 429 1005 q 381 998 397 1005 q 353 974 364 991 q 335 926 341 956 q 328 851 328 897 l 328 840 l 345 -59 l 345 -73 q 332 -194 345 -138 q 291 -290 319 -250 q 220 -354 264 -331 q 117 -376 177 -376 q 67 -370 91 -376 q 25 -351 43 -363 q -3 -320 7 -338 q -14 -277 -14 -301 q 1 -235 -14 -252 q 40 -218 16 -218 q 67 -223 57 -218 q 83 -238 77 -229 q 92 -256 89 -246 q 94 -273 94 -265 q 93 -287 94 -280 q 88 -302 92 -294 q 111 -317 96 -313 q 138 -321 127 -321 l 144 -321 l 144 -321 z "},"":{"ha":822,"x_min":103,"x_max":720,"o":"m 274 529 q 222 524 245 529 q 179 511 199 519 q 140 490 159 502 q 103 467 122 479 l 103 549 q 145 578 125 565 q 185 600 165 591 q 229 613 206 609 q 279 618 252 618 q 345 610 317 618 q 394 592 372 603 q 434 568 416 581 q 470 545 452 555 q 510 527 489 534 q 560 519 532 519 q 647 536 606 519 q 720 581 687 553 l 720 499 q 651 450 692 469 q 555 431 610 431 q 493 439 520 431 q 445 457 467 446 q 404 480 423 468 q 366 504 385 493 q 324 522 346 515 q 274 529 302 529 m 274 307 q 222 302 245 307 q 179 288 199 297 q 140 268 159 279 q 103 244 122 257 l 103 326 q 145 355 125 342 q 185 377 165 368 q 229 391 206 387 q 279 395 252 395 q 345 388 317 395 q 394 370 372 380 q 434 346 416 359 q 470 322 452 333 q 510 304 489 311 q 560 297 532 297 q 647 314 606 297 q 720 359 687 330 l 720 277 q 651 228 692 247 q 555 209 610 209 q 493 216 520 209 q 445 235 467 224 q 404 258 423 245 q 366 281 385 271 q 324 300 346 292 q 274 307 302 307 z "},"":{"ha":777,"x_min":78,"x_max":696,"o":"m 78 596 l 465 594 l 580 766 l 644 722 l 557 594 l 696 593 l 696 513 l 503 511 l 383 334 l 696 332 l 696 252 l 328 250 l 197 56 l 136 100 l 236 250 l 78 249 l 78 335 l 292 334 l 410 511 l 78 510 l 78 596 z "},"":{"ha":804,"x_min":81,"x_max":700,"o":"m 81 78 l 699 72 l 699 0 l 81 0 l 81 78 m 81 506 l 700 781 l 700 694 l 176 464 l 700 232 l 700 143 l 81 412 l 81 506 z "},"":{"ha":804,"x_min":106,"x_max":725,"o":"m 725 0 l 106 0 l 106 72 l 725 78 l 725 0 m 724 420 l 106 146 l 106 232 l 630 463 l 106 694 l 106 783 l 724 514 l 724 420 z "},"":{"ha":676,"x_min":50,"x_max":625,"o":"m 344 115 l 347 115 l 547 515 l 344 925 l 340 925 l 138 516 l 344 115 m 356 -23 l 320 -23 l 50 488 l 50 525 l 327 1055 l 363 1055 l 625 534 l 625 498 l 356 -23 z "},"":{"ha":366,"x_min":0,"x_max":0,"o":""},"":{"ha":734,"x_min":69,"x_max":644,"o":"m 69 694 l 644 694 l 644 0 l 69 0 l 69 694 m 184 52 l 529 52 l 529 642 l 184 642 l 184 52 z "},"":{"ha":366,"x_min":0,"x_max":0,"o":""},"":{"ha":419,"x_min":62,"x_max":357,"o":"m 62 -308 q 129 -291 98 -302 q 182 -266 159 -280 q 219 -234 205 -252 q 232 -195 232 -216 q 219 -161 232 -172 q 187 -151 205 -151 q 156 -156 172 -151 q 126 -170 140 -161 l 77 -147 l 117 11 l 197 11 l 159 -106 q 182 -96 170 -100 q 207 -89 194 -92 q 231 -85 219 -87 q 250 -84 242 -84 q 297 -92 277 -84 q 330 -113 317 -100 q 350 -144 343 -126 q 357 -183 357 -162 q 342 -235 357 -212 q 303 -276 328 -258 q 249 -309 279 -295 q 187 -334 219 -323 q 125 -351 155 -344 q 71 -361 94 -357 l 62 -308 z "},"":{"ha":653,"x_min":62,"x_max":590,"o":"m 332 1293 l 335 1293 l 590 1097 l 559 1050 l 329 1173 l 326 1173 l 90 1051 l 62 1096 l 332 1293 z "},"":{"ha":444,"x_min":64,"x_max":380,"o":"m 216 1253 q 164 1224 184 1251 q 144 1153 144 1198 q 166 1072 144 1103 q 226 1042 189 1042 q 254 1048 240 1042 q 277 1067 267 1055 q 294 1096 288 1079 q 300 1136 300 1114 q 278 1223 300 1194 q 221 1253 256 1253 l 216 1253 m 221 1300 q 277 1292 249 1300 q 327 1265 304 1283 q 365 1220 350 1247 q 380 1156 379 1193 q 367 1088 380 1118 q 332 1037 354 1058 q 282 1004 310 1015 q 224 993 254 993 q 165 1002 194 993 q 114 1029 136 1010 q 78 1076 92 1048 q 64 1144 64 1105 q 78 1208 64 1179 q 114 1257 92 1237 q 164 1289 136 1278 q 221 1300 193 1300 z "},"":{"ha":661,"x_min":62,"x_max":599,"o":"m 212 1178 q 159 1156 182 1178 q 110 1095 136 1133 l 62 1121 q 93 1177 75 1152 q 131 1222 111 1203 q 175 1252 152 1241 q 220 1264 197 1263 q 269 1257 247 1264 q 309 1239 291 1250 q 343 1215 328 1228 q 375 1192 359 1202 q 407 1174 391 1181 q 441 1166 422 1166 q 476 1174 460 1166 q 506 1194 492 1181 q 532 1222 520 1206 q 554 1257 544 1238 l 599 1235 q 565 1162 584 1192 q 524 1114 546 1133 q 479 1087 503 1096 q 433 1079 456 1079 q 384 1086 406 1079 q 343 1105 362 1094 q 308 1128 324 1116 q 275 1152 291 1141 q 244 1171 259 1163 q 212 1178 229 1178 z "},"":{"ha":403,"x_min":46,"x_max":325,"o":"m 77 1055 l 46 1096 l 221 1263 q 258 1284 241 1280 q 287 1286 275 1289 q 306 1278 298 1284 q 315 1270 313 1272 q 321 1256 318 1265 q 323 1234 325 1246 q 311 1208 321 1222 q 278 1179 302 1194 l 77 1055 z "},"":{"ha":653,"x_min":62,"x_max":590,"o":"m 321 1036 l 318 1036 l 62 1232 l 93 1279 l 323 1157 l 326 1157 l 562 1282 l 590 1238 l 321 1036 z "},"":{"ha":526,"x_min":62,"x_max":463,"o":"m 463 1165 q 457 1131 463 1147 q 440 1103 451 1115 q 416 1084 430 1091 q 387 1078 402 1078 q 358 1084 372 1078 q 334 1103 345 1091 q 318 1131 324 1115 q 312 1165 312 1147 q 318 1200 312 1183 q 335 1228 324 1216 q 359 1247 346 1240 q 389 1255 373 1255 q 418 1247 404 1255 q 441 1228 431 1240 q 457 1200 452 1216 q 463 1165 463 1183 m 214 1165 q 208 1131 214 1147 q 191 1103 201 1115 q 166 1084 180 1091 q 138 1078 153 1078 q 109 1084 122 1078 q 85 1103 95 1091 q 68 1131 75 1115 q 62 1165 62 1147 q 68 1200 62 1183 q 85 1228 75 1216 q 110 1247 96 1240 q 139 1255 123 1255 q 168 1247 155 1255 q 192 1228 182 1240 q 208 1200 202 1216 q 214 1165 214 1183 z "},"":{"ha":403,"x_min":62,"x_max":340,"o":"m 109 1179 q 75 1208 85 1194 q 64 1234 66 1222 q 65 1256 62 1246 q 72 1270 68 1265 q 81 1278 74 1272 q 100 1286 88 1284 q 129 1284 112 1289 q 165 1263 145 1280 l 340 1096 l 310 1055 l 109 1179 z "},"":{"ha":865,"x_min":35,"x_max":817,"o":"m 511 1055 q 599 1046 558 1055 q 670 1021 640 1038 q 718 983 701 1005 q 735 933 735 960 q 720 886 735 905 q 675 867 705 867 q 646 873 658 867 q 627 888 634 880 q 616 908 619 897 q 612 927 612 918 q 614 945 612 936 q 620 964 616 955 q 562 992 595 982 q 484 1003 528 1003 q 397 987 436 1003 q 329 940 357 972 q 284 859 300 907 q 269 746 269 811 l 269 694 l 586 694 q 661 699 633 694 q 694 708 689 704 l 735 708 l 735 147 q 734 98 735 119 q 729 53 734 77 l 817 57 l 817 0 l 534 0 l 534 41 q 582 54 565 41 q 606 89 599 66 q 615 142 614 111 q 616 211 616 174 l 616 555 q 617 597 616 577 q 621 646 618 618 l 269 638 l 270 146 q 269 97 270 118 q 264 53 269 77 l 351 57 l 351 0 l 70 0 l 70 41 q 118 54 102 41 q 142 89 135 66 q 151 142 150 111 q 151 211 151 174 l 149 632 l 35 632 l 35 694 l 102 694 l 149 694 l 149 697 q 168 844 149 778 q 231 957 188 910 q 343 1029 275 1004 q 511 1055 412 1055 z "},"":{"ha":885,"x_min":35,"x_max":838,"o":"m 754 147 l 754 113 q 753 83 754 98 q 750 53 753 68 l 838 57 l 838 0 l 554 0 l 554 41 q 602 54 585 41 q 627 89 619 66 q 635 142 634 111 q 636 211 636 174 l 636 947 q 586 970 614 961 q 531 986 559 980 q 477 994 503 991 q 432 997 451 997 q 353 984 385 997 q 303 945 321 970 q 276 884 284 920 q 269 800 269 847 l 269 694 l 456 694 l 456 640 l 269 637 l 270 147 q 269 98 270 119 q 264 53 269 77 l 351 57 l 351 0 l 68 0 l 68 41 q 117 54 100 41 q 141 89 134 66 q 149 142 148 111 q 150 211 150 174 l 149 634 l 35 632 l 35 694 l 149 694 l 149 737 q 167 875 149 815 q 219 975 186 935 q 300 1035 253 1015 q 404 1055 347 1055 q 477 1051 445 1055 q 537 1041 509 1046 q 588 1030 564 1035 q 633 1026 611 1026 q 673 1031 653 1026 q 714 1048 692 1036 l 754 1048 l 754 147 z "},"":{"ha":366,"x_min":0,"x_max":0,"o":""},"":{"ha":869,"x_min":-8,"x_max":886,"o":"m 178 151 q 168 122 172 135 q 160 98 164 109 q 152 77 156 87 q 143 56 148 67 l 252 61 l 252 0 l -8 0 l -8 46 q 43 59 23 46 q 76 94 62 71 q 101 149 90 117 q 126 220 112 181 l 412 999 l 446 999 l 755 208 q 768 174 762 194 q 780 133 774 154 q 789 92 786 112 q 791 56 792 71 l 886 61 l 886 0 l 568 0 l 568 46 q 625 60 607 47 q 648 94 644 74 q 648 136 653 113 q 636 178 644 158 l 587 308 l 226 300 q 199 221 211 257 q 178 151 188 186 m 346 639 q 290 481 314 549 q 247 359 266 413 l 568 359 l 469 625 l 407 796 l 404 796 l 346 639 m 639 1267 q 553 1160 606 1197 q 435 1124 499 1124 q 318 1160 372 1124 q 232 1267 264 1197 l 269 1283 q 297 1255 280 1269 q 337 1232 315 1242 q 384 1215 359 1221 q 435 1208 409 1208 q 487 1215 462 1208 q 534 1232 512 1221 q 573 1255 556 1242 q 602 1283 591 1269 l 639 1267 z "},"":{"ha":869,"x_min":-8,"x_max":886,"o":"m 178 151 q 168 122 172 135 q 160 98 164 109 q 152 77 156 87 q 143 56 148 67 l 252 61 l 252 0 l -8 0 l -8 46 q 43 59 23 46 q 76 94 62 71 q 101 149 90 117 q 126 220 112 181 l 412 999 l 446 999 l 755 208 q 768 174 762 194 q 780 133 774 154 q 789 92 786 112 q 791 56 792 71 l 886 61 l 886 0 l 568 0 l 568 46 q 625 60 607 47 q 648 94 644 74 q 648 136 653 113 q 636 178 644 158 l 587 308 l 226 300 q 199 221 211 257 q 178 151 188 186 m 346 639 q 290 481 314 549 q 247 359 266 413 l 568 359 l 469 625 l 407 796 l 404 796 l 346 639 m 243 1251 l 612 1251 l 612 1173 l 243 1167 l 243 1251 z "},"":{"ha":869,"x_min":-8,"x_max":886,"o":"m 783 0 q 713 -32 747 -14 q 655 -74 680 -50 q 615 -127 630 -98 q 600 -191 600 -156 q 607 -230 600 -212 q 626 -260 614 -248 q 653 -279 637 -272 q 686 -286 669 -286 q 734 -275 711 -286 q 777 -248 757 -264 l 800 -273 q 769 -304 787 -289 q 729 -333 751 -320 q 684 -353 708 -345 q 635 -360 660 -360 q 574 -350 602 -360 q 528 -320 547 -339 q 498 -276 509 -302 q 488 -218 488 -250 q 504 -152 488 -184 q 546 -93 519 -121 q 609 -42 573 -66 q 685 0 645 -18 l 568 0 l 568 46 q 625 60 607 47 q 648 94 644 74 q 648 136 653 113 q 636 178 644 158 l 587 308 l 226 300 q 199 221 211 257 q 178 151 188 186 q 168 122 172 135 q 160 98 164 109 q 152 77 156 87 q 143 56 148 67 l 252 61 l 252 0 l -8 0 l -8 46 q 43 59 23 46 q 76 94 62 71 q 101 149 90 117 q 126 220 112 181 l 412 999 l 446 999 l 755 208 q 768 174 762 194 q 780 133 774 154 q 789 92 786 112 q 791 56 792 71 l 886 61 l 886 0 l 783 0 m 469 625 l 407 796 l 404 796 l 346 639 q 290 481 314 549 q 247 359 266 413 l 568 359 l 469 625 z "},"":{"ha":971,"x_min":64,"x_max":929,"o":"m 555 938 q 417 906 481 938 q 304 817 352 875 q 228 676 256 759 q 200 492 200 593 q 213 368 200 426 q 251 261 227 310 q 309 173 275 212 q 385 106 343 134 q 473 65 426 79 q 572 50 521 50 q 663 60 618 50 q 750 91 708 71 q 828 141 791 111 q 893 210 865 171 l 929 180 q 833 79 884 119 q 730 17 782 40 q 628 -14 678 -5 q 536 -22 578 -22 q 345 16 431 -22 q 195 121 258 54 q 98 277 133 187 q 64 471 64 367 q 77 600 64 536 q 117 723 90 665 q 184 830 144 781 q 277 917 224 880 q 398 974 331 954 q 546 995 465 995 q 693 974 625 995 q 826 910 762 953 l 819 985 l 895 985 l 895 663 l 844 663 q 813 779 837 728 q 753 865 790 830 q 666 919 716 901 q 555 938 616 938 m 484 1055 l 453 1096 l 628 1263 q 665 1284 648 1280 q 693 1286 682 1289 q 712 1278 705 1284 q 722 1270 720 1272 q 728 1256 725 1265 q 730 1234 732 1246 q 718 1208 728 1222 q 685 1179 709 1194 l 484 1055 z "},"":{"ha":971,"x_min":64,"x_max":930,"o":"m 556 938 q 417 906 482 938 q 304 817 353 875 q 229 676 256 759 q 201 492 201 593 q 214 368 201 426 q 252 261 227 310 q 310 173 276 212 q 385 106 344 134 q 474 65 427 79 q 573 50 522 50 q 664 60 618 50 q 750 91 709 71 q 829 141 792 111 q 894 210 865 171 l 930 180 q 834 79 885 119 q 731 17 783 40 q 629 -14 679 -5 q 536 -22 579 -22 q 345 16 432 -22 q 196 121 258 54 q 99 277 134 187 q 64 471 64 367 q 78 600 64 536 q 118 723 91 665 q 184 830 144 781 q 278 917 224 880 q 399 974 332 954 q 547 995 466 995 q 694 974 625 995 q 827 910 762 953 l 820 985 l 895 985 l 895 663 l 845 663 q 814 779 838 728 q 754 865 791 830 q 667 919 717 901 q 556 938 616 938 m 551 1036 l 549 1036 l 293 1232 l 323 1279 l 554 1157 l 557 1157 l 793 1282 l 821 1238 l 551 1036 z "},"":{"ha":1035,"x_min":77,"x_max":972,"o":"m 294 164 q 293 100 294 126 q 290 56 292 73 q 342 54 317 54 q 388 53 368 53 q 421 53 408 53 q 439 53 435 53 q 602 86 528 53 q 727 178 675 119 q 807 317 779 237 q 836 490 836 397 q 809 668 836 589 q 727 805 782 748 q 588 892 672 861 q 390 922 505 922 q 331 910 351 922 q 303 876 311 898 q 295 823 295 854 q 294 755 294 793 l 294 164 m 405 974 q 635 945 531 974 q 814 855 739 916 q 930 703 889 795 q 972 485 972 610 q 957 360 972 421 q 912 246 942 300 q 838 147 882 192 q 735 69 793 102 q 603 18 676 37 q 443 0 530 0 l 77 0 l 77 46 q 136 60 117 47 q 164 96 156 73 q 173 149 172 118 q 173 216 173 180 l 173 817 q 174 870 173 845 q 178 917 175 896 l 77 911 l 77 972 l 405 974 m 504 1036 l 501 1036 l 245 1232 l 276 1279 l 507 1157 l 509 1157 l 745 1282 l 773 1238 l 504 1036 z "},"":{"ha":1036,"x_min":26,"x_max":972,"o":"m 406 974 q 635 945 531 975 q 815 855 740 916 q 931 703 890 795 q 972 485 972 610 q 958 360 972 421 q 913 246 943 300 q 839 147 883 192 q 735 69 794 102 q 604 18 677 37 q 444 0 530 0 l 78 0 l 78 46 q 137 60 117 47 q 165 96 157 73 q 173 149 173 118 q 174 216 174 180 l 174 454 l 26 452 l 26 524 l 174 524 l 174 817 q 175 870 174 845 q 178 917 176 896 l 78 911 l 78 974 l 406 974 m 295 164 q 294 100 295 126 q 290 56 293 73 q 343 54 318 54 q 388 53 368 53 q 422 53 408 53 q 439 53 435 53 q 602 86 529 53 q 727 178 675 119 q 808 317 779 237 q 836 490 836 397 q 809 668 836 589 q 728 805 783 748 q 589 892 673 861 q 391 922 505 922 q 332 910 351 922 q 304 876 312 898 q 295 823 296 854 q 295 755 295 793 l 295 524 l 464 524 l 464 457 l 295 455 l 295 164 z "},"":{"ha":864,"x_min":77,"x_max":802,"o":"m 294 160 q 293 95 294 121 q 290 52 292 69 l 555 56 q 637 67 601 56 q 700 102 674 77 q 741 168 726 127 q 755 271 755 209 l 802 271 l 794 0 l 77 0 l 77 46 q 130 57 111 47 q 159 83 149 66 q 171 124 168 100 q 173 176 173 147 l 173 216 l 173 817 q 174 870 173 845 q 178 917 175 896 l 77 911 l 77 972 l 745 972 l 752 729 l 707 729 q 693 827 707 789 q 655 886 679 865 q 598 916 631 908 q 528 924 566 924 l 399 922 q 339 909 361 920 q 308 879 318 899 q 296 829 298 859 q 294 755 294 798 l 294 532 l 555 532 l 545 652 l 606 652 l 606 359 l 561 359 q 554 424 561 400 q 531 461 547 448 q 493 479 516 475 q 436 483 469 483 q 416 483 427 483 q 294 478 406 483 l 294 160 m 463 1036 l 460 1036 l 205 1232 l 235 1279 l 466 1157 l 469 1157 l 705 1282 l 732 1238 l 463 1036 z "},"":{"ha":864,"x_min":77,"x_max":802,"o":"m 294 160 q 293 95 294 121 q 289 52 292 69 l 555 56 q 637 67 600 56 q 700 102 673 77 q 740 168 726 127 q 754 271 754 209 l 802 271 l 793 0 l 77 0 l 77 46 q 129 57 110 47 q 158 83 149 66 q 170 124 168 100 q 172 176 172 147 l 172 216 l 172 817 q 173 870 172 845 q 177 917 174 896 l 77 911 l 77 972 l 745 972 l 751 729 l 706 729 q 692 827 706 789 q 654 886 678 865 q 597 916 630 908 q 527 924 565 924 l 399 922 q 339 909 360 920 q 307 879 317 899 q 295 829 297 859 q 294 755 294 798 l 294 532 l 554 532 l 544 652 l 606 652 l 606 359 l 560 359 q 553 424 560 400 q 531 461 546 448 q 492 479 515 475 q 435 483 469 483 q 416 483 426 483 q 294 478 406 483 l 294 160 m 529 1206 q 522 1174 529 1189 q 506 1148 516 1159 q 482 1130 495 1137 q 454 1124 469 1124 q 425 1130 439 1124 q 401 1148 412 1137 q 385 1174 391 1159 q 379 1206 379 1189 q 385 1239 379 1224 q 402 1265 392 1254 q 426 1283 412 1277 q 455 1290 440 1290 q 484 1283 470 1290 q 507 1265 497 1277 q 523 1239 517 1254 q 529 1206 529 1224 z "},"":{"ha":864,"x_min":77,"x_max":802,"o":"m 294 160 q 293 95 294 121 q 289 52 292 69 l 555 56 q 637 67 600 56 q 700 102 673 77 q 740 168 726 127 q 754 271 754 209 l 802 271 l 793 0 l 77 0 l 77 46 q 129 57 110 47 q 158 83 149 66 q 170 124 168 100 q 172 176 172 147 l 172 216 l 172 817 q 173 870 172 845 q 177 917 174 896 l 77 911 l 77 972 l 745 972 l 751 729 l 706 729 q 692 827 706 789 q 654 886 678 865 q 597 916 630 908 q 527 924 565 924 l 399 922 q 339 909 360 920 q 307 879 317 899 q 295 829 297 859 q 294 755 294 798 l 294 532 l 554 532 l 544 652 l 606 652 l 606 359 l 560 359 q 553 424 560 400 q 531 461 546 448 q 492 479 515 475 q 435 483 469 483 q 416 483 426 483 q 294 478 406 483 l 294 160 m 243 1251 l 612 1251 l 612 1173 l 243 1167 l 243 1251 z "},"":{"ha":864,"x_min":77,"x_max":802,"o":"m 759 0 q 695 -32 725 -14 q 644 -73 666 -50 q 608 -124 621 -96 q 595 -183 595 -151 q 603 -222 595 -205 q 621 -252 610 -240 q 648 -271 633 -264 q 682 -278 664 -278 q 729 -268 707 -278 q 772 -240 752 -257 l 795 -265 q 764 -297 782 -281 q 725 -325 746 -313 q 679 -345 703 -338 q 630 -353 655 -353 q 570 -342 597 -353 q 523 -313 543 -332 q 493 -268 504 -294 q 483 -211 483 -242 q 497 -148 483 -178 q 536 -91 511 -118 q 594 -41 561 -64 q 665 0 627 -18 l 77 0 l 77 46 q 136 60 116 47 q 163 96 155 73 q 172 149 172 118 q 172 216 172 180 l 172 817 q 173 870 172 845 q 177 917 174 896 l 77 911 l 77 972 l 745 972 l 751 729 l 706 729 q 691 829 706 791 q 651 889 677 867 q 592 917 626 910 q 518 924 557 924 l 399 921 q 339 910 360 920 q 307 880 317 900 q 295 828 297 859 q 294 755 294 798 l 294 532 l 554 532 l 544 652 l 606 652 l 606 359 l 560 359 q 551 431 560 406 q 522 468 542 456 q 470 482 502 480 q 395 482 439 484 l 294 478 l 294 160 q 293 96 294 122 q 289 52 292 69 l 555 56 q 637 67 600 56 q 700 102 673 77 q 740 168 726 127 q 754 271 754 209 l 802 271 l 793 0 l 759 0 z "},"":{"ha":1057,"x_min":66,"x_max":1028,"o":"m 928 50 l 890 50 q 829 42 867 50 q 741 14 791 34 q 693 -1 719 6 q 641 -12 667 -7 q 587 -20 614 -17 q 538 -22 561 -22 q 347 11 433 -22 q 197 107 260 45 q 100 261 135 170 q 66 465 66 351 q 79 595 66 530 q 119 719 92 660 q 186 828 146 777 q 280 916 226 878 q 401 974 334 953 q 549 995 469 995 q 625 989 587 995 q 701 974 664 984 q 773 950 739 964 q 837 918 808 936 l 831 985 l 907 985 l 907 667 l 857 667 q 828 783 852 732 q 764 868 804 833 q 672 921 724 903 q 559 939 619 939 q 420 906 485 939 q 307 815 355 873 q 230 675 258 756 q 202 497 202 594 q 229 316 202 399 q 306 173 256 233 q 423 79 355 113 q 574 45 492 45 q 632 49 602 45 q 693 61 663 53 q 754 82 724 69 q 812 114 785 96 l 812 418 l 714 412 l 714 473 l 1028 473 l 1028 428 q 985 418 1002 428 q 956 393 967 408 q 940 359 945 378 q 931 322 934 340 q 929 288 929 304 q 928 262 928 272 l 928 50 m 755 1267 q 669 1160 722 1197 q 551 1124 615 1124 q 434 1160 488 1124 q 348 1267 380 1197 l 385 1283 q 413 1255 396 1269 q 453 1232 431 1242 q 500 1215 475 1221 q 551 1208 525 1208 q 603 1215 578 1208 q 650 1232 628 1221 q 689 1255 672 1242 q 718 1283 707 1269 l 755 1267 z "},"":{"ha":1057,"x_min":66,"x_max":1028,"o":"m 928 50 l 890 50 q 829 42 867 50 q 741 14 791 34 q 693 -1 719 6 q 641 -12 667 -7 q 587 -20 614 -17 q 538 -22 561 -22 q 347 11 433 -22 q 197 107 260 45 q 100 261 135 170 q 66 465 66 351 q 79 595 66 530 q 119 719 92 660 q 186 828 146 777 q 280 916 226 878 q 401 974 334 953 q 549 995 469 995 q 625 989 587 995 q 701 974 664 984 q 773 950 739 964 q 837 918 808 936 l 831 985 l 907 985 l 907 667 l 857 667 q 828 783 852 732 q 764 868 804 833 q 672 921 724 903 q 559 939 619 939 q 420 906 485 939 q 307 815 355 873 q 230 675 258 756 q 202 497 202 594 q 229 316 202 399 q 306 173 256 233 q 423 79 355 113 q 574 45 492 45 q 632 49 602 45 q 693 61 663 53 q 754 82 724 69 q 812 114 785 96 l 812 418 l 714 412 l 714 473 l 1028 473 l 1028 428 q 985 418 1002 428 q 956 393 967 408 q 940 359 945 378 q 931 322 934 340 q 929 288 929 304 q 928 262 928 272 l 928 50 m 608 -78 q 625 -150 625 -113 q 595 -257 625 -203 q 515 -360 565 -311 l 479 -333 q 512 -261 501 -292 q 524 -204 522 -230 q 523 -154 526 -178 q 513 -100 519 -129 l 608 -78 z "}}}
